<?xml version="1.0" encoding="UTF-8" standalone="no"?>
<svg
   xmlns:dc="http://purl.org/dc/elements/1.1/"
   xmlns:cc="http://creativecommons.org/ns#"
   xmlns:rdf="http://www.w3.org/1999/02/22-rdf-syntax-ns#"
   xmlns:svg="http://www.w3.org/2000/svg"
   xmlns="http://www.w3.org/2000/svg"
   xmlns:sodipodi="http://sodipodi.sourceforge.net/DTD/sodipodi-0.dtd"
   xmlns:inkscape="http://www.inkscape.org/namespaces/inkscape"
   version="1.0"
   width="213.05mm"
   height="102.31mm"
   id="svg3347"
   inkscape:version="0.91 r13725"
   viewBox="0 0 213.05 102.31"
   sodipodi:docname="GeomagnetismLineDetection2.svg">
  <metadata
     id="metadata3511">
    <rdf:RDF>
      <cc:Work
         rdf:about="">
        <dc:format>image/svg+xml</dc:format>
        <dc:type
           rdf:resource="http://purl.org/dc/dcmitype/StillImage" />
        <dc:title></dc:title>
      </cc:Work>
    </rdf:RDF>
  </metadata>
  <sodipodi:namedview
     pagecolor="#ffffff"
     bordercolor="#666666"
     borderopacity="1"
     objecttolerance="10"
     gridtolerance="10"
     guidetolerance="10"
     inkscape:pageopacity="0"
     inkscape:pageshadow="2"
     inkscape:window-width="1920"
     inkscape:window-height="1017"
     id="namedview3509"
     inkscape:document-units="mm"
     showgrid="false"
     inkscape:zoom="0.92066182"
     inkscape:cx="501.54997"
     inkscape:cy="148.89455"
     inkscape:window-x="1912"
     inkscape:window-y="-8"
     inkscape:window-maximized="1"
     inkscape:current-layer="svg3347" />
  <defs
     id="defs3349">
    <clipPath
       clipPathUnits="userSpaceOnUse"
       id="clipEmfPath1">
      <path
         d="m 166.528,40.9569 755.077,0 0,362.6111 -755.077,0 z"
         id="path3352"
         inkscape:connector-curvature="0" />
    </clipPath>
    <pattern
       id="EMFhbasepattern"
       patternUnits="userSpaceOnUse"
       width="6"
       height="6"
       x="0"
       y="0" />
    <clipPath
       id="clipEmfPath1-5"
       clipPathUnits="userSpaceOnUse">
      <path
         inkscape:connector-curvature="0"
         id="path3428"
         d="m 341.411,216.607 755.119,0 0,362.411 -755.119,0 z" />
    </clipPath>
    <pattern
       y="0"
       x="0"
       height="6"
       width="6"
       patternUnits="userSpaceOnUse"
       id="EMFhbasepattern-6" />
  </defs>
  <g
     id="g3616"
     transform="translate(-95.724565,-60.307504)">
    <path
       inkscape:connector-curvature="0"
       id="path3431"
       d="m 206.88949,62.358976 0,98.131774 98.13064,0 0,-98.131774 -98.13064,0 z"
       style="fill:#ffffff;fill-opacity:1;fill-rule:evenodd;stroke:none" />
    <path
       transform="scale(0.28222222,0.28222222)"
       inkscape:connector-curvature="0"
       id="path3433"
       d="m 733.073,220.957 347.707,0 0,347.711 -347.707,0 z"
       clip-path="url(#clipEmfPath1-5)"
       style="fill:none;stroke:#000000;stroke-width:2.40007567px;stroke-linecap:butt;stroke-linejoin:miter;stroke-miterlimit:8;stroke-dasharray:none;stroke-opacity:1" />
    <text
       sodipodi:linespacing="125%"
       id="text3435"
       y="147.89426"
       x="222.60858"
       style="font-style:normal;font-variant:normal;font-weight:400;font-size:7.02027798px;line-height:125%;font-family:Calibri;text-align:start;letter-spacing:0px;word-spacing:0px;text-anchor:start;fill:#000000;fill-opacity:1;stroke:none"
       xml:space="preserve"><tspan
         id="tspan3437"
         y="147.89426"
         x="222.60858"
         sodipodi:role="line"><tspan
           id="tspan3439"
           style="font-style:normal;font-variant:normal;font-weight:400;font-size:7.02027798px;font-family:Calibri;fill:#000000"
           dy="0"
           dx="0">S</tspan></tspan></text>
    <text
       sodipodi:linespacing="125%"
       id="text3441"
       y="147.89426"
       x="225.82602"
       style="font-style:normal;font-variant:normal;font-weight:400;font-size:7.02027798px;line-height:125%;font-family:Calibri;text-align:start;letter-spacing:0px;word-spacing:0px;text-anchor:start;fill:#000000;fill-opacity:1;stroke:none"
       xml:space="preserve"><tspan
         id="tspan3443"
         y="147.89426"
         x="225.82602"
         sodipodi:role="line"><tspan
           id="tspan3445"
           style="font-style:normal;font-variant:normal;font-weight:400;font-size:7.02027798px;font-family:Calibri;fill:#000000"
           dy="0"
           dx="0">earch area</tspan></tspan></text>
    <path
       inkscape:connector-curvature="0"
       id="path3447"
       d="m 102.06877,62.358976 0,98.047104 98.04711,0 0,-98.047104 -98.04711,0 z"
       style="fill:#ffffff;fill-opacity:1;fill-rule:evenodd;stroke:none" />
    <path
       transform="scale(0.28222222,0.28222222)"
       inkscape:connector-curvature="0"
       id="path3449"
       d="m 361.661,220.957 347.411,0 0,347.411 -347.411,0 z"
       clip-path="url(#clipEmfPath1-5)"
       style="fill:none;stroke:#000000;stroke-width:2.40007567px;stroke-linecap:butt;stroke-linejoin:miter;stroke-miterlimit:8;stroke-dasharray:none;stroke-opacity:1" />
    <text
       sodipodi:linespacing="125%"
       id="text3451"
       y="147.88206"
       x="126.36118"
       style="font-style:normal;font-variant:normal;font-weight:400;font-size:7.02027798px;line-height:125%;font-family:Arial;text-align:start;letter-spacing:0px;word-spacing:0px;text-anchor:start;fill:#000000;fill-opacity:1;stroke:none"
       xml:space="preserve"><tspan
         id="tspan3453"
         y="147.88206"
         x="126.36118"
         sodipodi:role="line"><tspan
           id="tspan3455"
           style="font-style:normal;font-variant:normal;font-weight:400;font-size:7.02027798px;font-family:Arial;fill:#000000"
           dy="0"
           dx="0">T</tspan></tspan></text>
    <text
       sodipodi:linespacing="125%"
       id="text3457"
       y="147.88206"
       x="130.00197"
       style="font-style:normal;font-variant:normal;font-weight:400;font-size:7.02027798px;line-height:125%;font-family:Arial;text-align:start;letter-spacing:0px;word-spacing:0px;text-anchor:start;fill:#000000;fill-opacity:1;stroke:none"
       xml:space="preserve"><tspan
         id="tspan3459"
         y="147.88206"
         x="130.00197"
         sodipodi:role="line"><tspan
           id="tspan3461"
           style="font-style:normal;font-variant:normal;font-weight:400;font-size:7.02027798px;font-family:Arial;fill:#000000"
           dy="0"
           dx="0">emplate</tspan></tspan></text>
    <text
       sodipodi:linespacing="125%"
       id="text3463"
       y="94.150772"
       x="129.65443"
       style="font-style:normal;font-variant:normal;font-weight:400;font-size:7.02027798px;line-height:125%;font-family:Arial;text-align:start;letter-spacing:0px;word-spacing:0px;text-anchor:start;fill:#000000;fill-opacity:1;stroke:none"
       xml:space="preserve"><tspan
         id="tspan3465"
         y="94.150772"
         x="129.65443"
         sodipodi:role="line"><tspan
           id="tspan3467"
           style="font-style:normal;font-variant:normal;font-weight:400;font-size:7.02027798px;font-family:Arial;fill:#000000"
           dy="0"
           dx="0">Geomagnetism line</tspan></tspan></text>
    <path
       transform="scale(0.28222222,0.28222222)"
       inkscape:connector-curvature="0"
       id="path3469"
       d="m 390.012,417.651 c 14.251,-13.726 28.464,-27.414 49.914,-22.801 21.414,4.575 52.465,42.414 78.715,50.402 26.251,8.025 53.402,-4.576 78.715,-2.401 25.314,2.213 70.578,22.614 73.165,15.638"
       clip-path="url(#clipEmfPath1-5)"
       style="fill:none;stroke:#92d050;stroke-width:53.70169449px;stroke-linecap:butt;stroke-linejoin:miter;stroke-miterlimit:8;stroke-dasharray:none;stroke-opacity:1" />
    <path
       inkscape:connector-curvature="0"
       id="path3471"
       d="m 115.997,123.69659 c 0.5715,-0.67733 1.14836,-1.35467 1.86267,-1.95806 0.71967,-0.60311 1.84686,-1.31769 2.45025,-1.66144 0.60311,-0.34403 0.89944,-0.31242 1.17997,-0.39173 0.27517,-0.0847 0.1112,-0.17977 0.48684,-0.10047 0.37563,0.0847 0.96322,0.10047 1.76219,0.58731 0.80434,0.49219 2.11159,1.58242 3.04292,2.3495 0.92597,0.76736 1.38628,1.33886 2.54536,2.25439 1.15881,0.91553 2.80981,2.09042 4.40803,3.23342 1.60331,1.143 3.60906,2.75703 5.19656,3.6195 1.58214,0.86783 2.8417,1.09559 4.31292,1.56633 1.46586,0.47639 3.11686,1.03209 4.50342,1.27536 1.39164,0.24356 2.32297,0.19587 3.82581,0.19587 1.50283,0 3.29692,-0.0158 5.19147,-0.19587 1.89428,-0.17977 4.47689,-0.6508 6.17531,-0.88363 1.69869,-0.22747 3.10106,-0.43914 4.01658,-0.48684 0.91553,-0.0477 0.4764,-0.0158 1.47123,0.19587 0.99483,0.21166 4.5085,1.0795 4.5085,1.0795 1.50311,0.35447 2.85778,0.635 4.50878,1.07413 1.64564,0.43914 3.65675,1.1272 5.38706,1.56634 1.7303,0.43942 3.44509,1.02672 5.00069,1.0795 1.55053,0.0477 3.16456,-0.35984 4.30756,-0.78317 1.143,-0.42841 2.92636,-2.64583 2.55073,-1.7622"
       style="fill:none;stroke:#00b0f0;stroke-width:1.43937874px;stroke-linecap:butt;stroke-linejoin:miter;stroke-miterlimit:8;stroke-dasharray:none;stroke-opacity:1" />
    <path
       inkscape:connector-curvature="0"
       id="path3473"
       d="m 153.64319,99.327829 -4.58809,33.110871 0.50264,0.0742 4.58809,-33.116521 -0.50264,-0.06858 z m -5.33965,32.650571 0.75692,2.24367 1.33887,-1.9527 -2.09579,-0.29097 z"
       style="fill:#ff0000;fill-opacity:1;fill-rule:nonzero;stroke:#ff0000;stroke-width:0.00529183px;stroke-linecap:butt;stroke-linejoin:round;stroke-miterlimit:10;stroke-dasharray:none;stroke-opacity:1" />
    <path
       inkscape:connector-curvature="0"
       id="path3475"
       d="m 146.35085,130.85657 6.77361,0 0,6.77333 -6.77361,0 z"
       style="fill:none;stroke:#000000;stroke-width:0.67735469px;stroke-linecap:butt;stroke-linejoin:miter;stroke-miterlimit:8;stroke-dasharray:none;stroke-opacity:1" />
    <path
       transform="scale(0.28222222,0.28222222)"
       inkscape:connector-curvature="0"
       id="path3477"
       d="m 768.324,417.651 c 14.251,-13.726 28.464,-27.414 49.914,-22.801 21.413,4.575 52.464,42.414 78.715,50.402 26.251,8.025 53.402,-4.576 78.715,-2.401 25.312,2.213 70.582,22.614 73.162,15.638"
       clip-path="url(#clipEmfPath1-5)"
       style="fill:none;stroke:#92d050;stroke-width:53.70169449px;stroke-linecap:butt;stroke-linejoin:miter;stroke-miterlimit:8;stroke-dasharray:none;stroke-opacity:1" />
    <path
       transform="scale(0.28222222,0.28222222)"
       inkscape:connector-curvature="0"
       id="path3479"
       d="m 789.625,438.314 c 2.025,-2.4 4.05,-4.8 6.6,-6.938 2.55,-2.137 6.563,-4.688 8.7,-5.888 2.138,-1.237 3.188,-1.125 4.163,-1.387 0.975,-0.3 0.413,-0.638 1.725,-0.375 1.35,0.3 3.413,0.375 6.263,2.1 2.85,1.725 7.463,5.588 10.763,8.325 3.3,2.7 4.912,4.725 9.037,7.988 4.088,3.225 9.938,7.388 15.601,11.438 5.7,4.05 12.788,9.788 18.413,12.825 5.625,3.075 10.088,3.9 15.3,5.55 5.176,1.688 11.026,3.676 15.938,4.538 4.951,0.863 8.251,0.675 13.576,0.675 5.325,0 11.663,-0.037 18.375,-0.675 6.713,-0.637 15.863,-2.325 21.901,-3.15 6,-0.788 10.988,-1.538 14.213,-1.725 3.263,-0.15 1.688,-0.038 5.213,0.712 3.525,0.75 15.975,3.788 15.975,3.788 5.325,1.275 10.129,2.288 15.979,3.825 5.85,1.575 12.97,4.013 19.08,5.55 6.16,1.575 12.23,3.638 17.71,3.825 5.51,0.188 11.25,-1.275 15.3,-2.775 4.05,-1.5 10.35,-9.375 9.03,-6.225"
       clip-path="url(#clipEmfPath1-5)"
       style="fill:none;stroke:#00b0f0;stroke-width:5.10016108px;stroke-linecap:butt;stroke-linejoin:miter;stroke-miterlimit:8;stroke-dasharray:none;stroke-opacity:1" />
    <path
       inkscape:connector-curvature="0"
       id="path3481"
       d="m 259.01396,97.46488 -5.68339,34.42885 0.49756,0.0847 5.69411,-34.439296 -0.50828,-0.07422 z m -6.42422,33.94202 0.6985,2.26483 1.397,-1.91572 -2.0955,-0.34911 z"
       style="fill:#ff0000;fill-opacity:1;fill-rule:nonzero;stroke:#ff0000;stroke-width:0.01058367px;stroke-linecap:butt;stroke-linejoin:round;stroke-miterlimit:10;stroke-dasharray:none;stroke-opacity:1" />
    <path
       inkscape:connector-curvature="0"
       id="path3483"
       d="m 245.15995,130.94123 32.51313,0 0,6.77334 -32.51313,0 z"
       style="fill:none;stroke:#ff0000;stroke-width:0.33867735px;stroke-linecap:butt;stroke-linejoin:miter;stroke-miterlimit:8;stroke-dasharray:none;stroke-opacity:1" />
    <path
       inkscape:connector-curvature="0"
       id="path3485"
       d="m 258.02985,131.0259 6.77362,0 0,6.77333 -6.77362,0 z"
       style="fill:none;stroke:#ffc000;stroke-width:0.67735469px;stroke-linecap:butt;stroke-linejoin:miter;stroke-miterlimit:8;stroke-dasharray:none;stroke-opacity:1" />
    <path
       inkscape:connector-curvature="0"
       id="path3487"
       d="m 249.5629,130.7719 6.77362,0 0,6.858 -6.77362,0 z"
       style="fill:none;stroke:#0070c0;stroke-width:0.67735469px;stroke-linecap:butt;stroke-linejoin:miter;stroke-miterlimit:8;stroke-dasharray:none;stroke-opacity:1" />
    <path
       inkscape:connector-curvature="0"
       id="path3489"
       d="m 261.41652,97.496771 0.45522,35.550409 -0.508,0 -0.45522,-35.539967 0.508,-0.01044 z m 1.24883,35.180129 -1.02644,2.13783 -1.09023,-2.10622 2.11667,-0.0316 z"
       style="fill:#ff0000;fill-opacity:1;fill-rule:nonzero;stroke:#ff0000;stroke-width:0.01058367px;stroke-linecap:butt;stroke-linejoin:round;stroke-miterlimit:10;stroke-dasharray:none;stroke-opacity:1" />
    <path
       inkscape:connector-curvature="0"
       id="path3491"
       d="m 264.63413,97.454438 6.21256,35.042402 -0.49756,0.0847 -6.21255,-35.031963 0.49755,-0.09511 z m 6.94267,34.555572 -0.66661,2.26511 -1.41817,-1.89455 2.08478,-0.37056 z"
       style="fill:#ff0000;fill-opacity:1;fill-rule:nonzero;stroke:#ff0000;stroke-width:0.01058367px;stroke-linecap:butt;stroke-linejoin:round;stroke-miterlimit:10;stroke-dasharray:none;stroke-opacity:1" />
    <path
       inkscape:connector-curvature="0"
       id="path3493"
       d="m 147.11285,122.89762 6.85828,0 0,6.77333 -6.85828,0 z"
       style="fill:none;stroke:#000000;stroke-width:0.50801605px;stroke-linecap:butt;stroke-linejoin:miter;stroke-miterlimit:8;stroke-dasharray:none;stroke-opacity:1" />
    <path
       inkscape:connector-curvature="0"
       id="path3495"
       d="m 147.7058,114.93867 6.77333,0 0,6.77361 -6.77333,0 z"
       style="fill:none;stroke:#000000;stroke-width:0.50801605px;stroke-linecap:butt;stroke-linejoin:miter;stroke-miterlimit:8;stroke-dasharray:none;stroke-opacity:1" />
    <path
       inkscape:connector-curvature="0"
       id="path3497"
       d="m 250.49424,122.81295 6.85828,0 0,6.77333 -6.85828,0 z"
       style="fill:none;stroke:#0070c0;stroke-width:0.50801605px;stroke-linecap:butt;stroke-linejoin:miter;stroke-miterlimit:8;stroke-dasharray:none;stroke-opacity:1" />
    <path
       inkscape:connector-curvature="0"
       id="path3499"
       d="m 252.18757,114.51534 6.85828,0 0,6.77361 -6.85828,0 z"
       style="fill:none;stroke:#0070c0;stroke-width:0.50801605px;stroke-linecap:butt;stroke-linejoin:miter;stroke-miterlimit:8;stroke-dasharray:none;stroke-opacity:1" />
    <path
       inkscape:connector-curvature="0"
       id="path3501"
       d="m 258.62252,122.81295 6.85828,0 0,6.77333 -6.85828,0 z"
       style="fill:none;stroke:#ffc000;stroke-width:0.50801605px;stroke-linecap:butt;stroke-linejoin:miter;stroke-miterlimit:8;stroke-dasharray:none;stroke-opacity:1" />
    <path
       inkscape:connector-curvature="0"
       id="path3503"
       d="m 257.52185,114.6 6.77362,0 0,6.77362 -6.77362,0 z"
       style="fill:none;stroke:#ffc000;stroke-width:0.50801605px;stroke-linecap:butt;stroke-linejoin:miter;stroke-miterlimit:8;stroke-dasharray:none;stroke-opacity:1" />
    <path
       inkscape:connector-curvature="0"
       id="path3505"
       d="m 266.41213,122.81295 6.85829,0 0,6.77333 -6.85829,0 z"
       style="fill:none;stroke:#002060;stroke-width:0.50801605px;stroke-linecap:butt;stroke-linejoin:miter;stroke-miterlimit:8;stroke-dasharray:none;stroke-opacity:1" />
    <path
       inkscape:connector-curvature="0"
       id="path3507"
       d="m 264.4648,114.76934 6.77333,0 0,6.77361 -6.77333,0 z"
       style="fill:none;stroke:#002060;stroke-width:0.50801605px;stroke-linecap:butt;stroke-linejoin:miter;stroke-miterlimit:8;stroke-dasharray:none;stroke-opacity:1" />
    <text
       sodipodi:linespacing="125%"
       id="text3509"
       y="110.81236"
       x="109.23711"
       style="font-style:normal;font-variant:normal;font-weight:400;font-size:7.02027798px;line-height:125%;font-family:Arial;text-align:start;letter-spacing:0px;word-spacing:0px;text-anchor:start;fill:#000000;fill-opacity:1;stroke:none"
       xml:space="preserve"><tspan
         id="tspan3511"
         y="110.81236"
         x="109.23711"
         sodipodi:role="line"><tspan
           id="tspan3513"
           style="font-style:normal;font-variant:normal;font-weight:400;font-size:7.02027798px;font-family:Arial;fill:#000000"
           dy="0"
           dx="0">Aurora</tspan></tspan></text>
    <text
       sodipodi:linespacing="125%"
       id="text3515"
       y="93.344696"
       x="240.84518"
       style="font-style:normal;font-variant:normal;font-weight:400;font-size:7.02027798px;line-height:125%;font-family:Arial;text-align:start;letter-spacing:0px;word-spacing:0px;text-anchor:start;fill:#000000;fill-opacity:1;stroke:none"
       xml:space="preserve"><tspan
         id="tspan3517"
         y="93.344696"
         x="240.84518"
         sodipodi:role="line"><tspan
           id="tspan3519"
           style="font-style:normal;font-variant:normal;font-weight:400;font-size:7.02027798px;font-family:Arial;fill:#000000"
           dy="0"
           dx="0">Geomagnetism line</tspan></tspan></text>
    <path
       inkscape:connector-curvature="0"
       id="path3521"
       d="m 146.11802,135.76723 -4.7625,5.34473"
       style="fill:none;stroke:#000000;stroke-width:0.33867735px;stroke-linecap:butt;stroke-linejoin:miter;stroke-miterlimit:8;stroke-dasharray:none;stroke-opacity:1" />
    <path
       inkscape:connector-curvature="0"
       id="path3523"
       d="m 157.43202,117.648 91.36888,0 0,0.508 -91.36888,0 0,-0.508 z m 0.34939,1.31234 -2.11695,-1.05834 2.11695,-1.05833 0,2.11667 z m 90.65966,-2.11667 2.11667,1.05833 -2.11667,1.05834 0,-2.11667 z"
       style="fill:#000000;fill-opacity:1;fill-rule:nonzero;stroke:#000000;stroke-width:0.01058367px;stroke-linecap:butt;stroke-linejoin:round;stroke-miterlimit:10;stroke-dasharray:none;stroke-opacity:1" />
    <path
       inkscape:connector-curvature="0"
       id="path3525"
       d="m 157.00869,126.03028 91.36888,0 0,0.508 -91.36888,0 0,-0.508 z m 0.34939,1.31234 -2.11695,-1.05834 2.11695,-1.05833 0,2.11667 z m 90.65966,-2.11667 2.11666,1.05833 -2.11666,1.05834 0,-2.11667 z"
       style="fill:#000000;fill-opacity:1;fill-rule:nonzero;stroke:#000000;stroke-width:0.01058367px;stroke-linecap:butt;stroke-linejoin:round;stroke-miterlimit:10;stroke-dasharray:none;stroke-opacity:1" />
    <path
       inkscape:connector-curvature="0"
       id="path3527"
       d="m 155.90802,134.24323 91.36888,0 0,0.508 -91.36888,0 0,-0.508 z m 0.34911,1.31234 -2.11667,-1.05834 2.11667,-1.05833 0,2.11667 z m 90.65994,-2.11667 2.11667,1.05833 -2.11667,1.05834 0,-2.11667 z"
       style="fill:#000000;fill-opacity:1;fill-rule:nonzero;stroke:#000000;stroke-width:0.01058367px;stroke-linecap:butt;stroke-linejoin:round;stroke-miterlimit:10;stroke-dasharray:none;stroke-opacity:1" />
    <text
       sodipodi:linespacing="125%"
       id="text3529"
       y="113.84045"
       x="157.00761"
       style="font-style:normal;font-variant:normal;font-weight:400;font-size:7.02027798px;line-height:125%;font-family:Arial;text-align:start;letter-spacing:0px;word-spacing:0px;text-anchor:start;fill:#000000;fill-opacity:1;stroke:none"
       xml:space="preserve"><tspan
         id="tspan3531"
         y="113.84045"
         x="157.00761"
         sodipodi:role="line"><tspan
           id="tspan3533"
           style="font-style:normal;font-variant:normal;font-weight:400;font-size:7.02027798px;font-family:Arial;fill:#000000"
           dy="0"
           dx="0">Calculation of similarity</tspan></tspan></text>
    <text
       sodipodi:linespacing="125%"
       id="text3535"
       y="72.288673"
       x="106.03429"
       style="font-style:normal;font-variant:normal;font-weight:400;font-size:8.46666622px;line-height:125%;font-family:Arial;text-align:start;letter-spacing:0px;word-spacing:0px;text-anchor:start;fill:#000000;fill-opacity:1;stroke:none"
       xml:space="preserve"><tspan
         id="tspan3537"
         y="72.288673"
         x="106.03429"
         sodipodi:role="line"><tspan
           id="tspan3539"
           style="font-style:normal;font-variant:normal;font-weight:400;font-size:8.46666622px;font-family:Arial;fill:#000000"
           dy="0 0 0 0 0"
           dx="0 0 0 0 0">Left camera image</tspan></tspan></text>
    <text
       sodipodi:linespacing="125%"
       id="text3541"
       y="72.018967"
       x="209.74512"
       style="font-style:normal;font-variant:normal;font-weight:400;font-size:8.46666622px;line-height:125%;font-family:Arial;text-align:start;letter-spacing:0px;word-spacing:0px;text-anchor:start;fill:#000000;fill-opacity:1;stroke:none"
       xml:space="preserve"><tspan
         id="tspan3543"
         y="72.018967"
         x="209.74512"
         sodipodi:role="line"><tspan
           id="tspan3545"
           style="font-style:normal;font-variant:normal;font-weight:400;font-size:8.46666622px;font-family:Arial;fill:#000000"
           dy="0 0 0 0 0 0"
           dx="0 0 0 0 0 0">Right camera image</tspan></tspan></text>
    <text
       sodipodi:linespacing="125%"
       id="text3547"
       y="123.52663"
       x="106.99554"
       style="font-style:normal;font-variant:normal;font-weight:400;font-size:7.02027798px;line-height:125%;font-family:Calibri;text-align:start;letter-spacing:0px;word-spacing:0px;text-anchor:start;fill:#000000;fill-opacity:1;stroke:none"
       xml:space="preserve"><tspan
         id="tspan3549"
         y="123.52663"
         x="106.99554"
         sodipodi:role="line"><tspan
           id="tspan3551"
           style="font-style:normal;font-variant:normal;font-weight:400;font-size:7.02027798px;font-family:Calibri;fill:#000000"
           dy="0"
           dx="0">Slide along </tspan></tspan></text>
    <text
       sodipodi:linespacing="125%"
       id="text3553"
       y="131.99356"
       x="106.99554"
       style="font-style:normal;font-variant:normal;font-weight:400;font-size:7.02027798px;line-height:125%;font-family:Calibri;text-align:start;letter-spacing:0px;word-spacing:0px;text-anchor:start;fill:#000000;fill-opacity:1;stroke:none"
       xml:space="preserve"><tspan
         id="tspan3555"
         y="131.99356"
         x="106.99554"
         sodipodi:role="line"><tspan
           id="tspan3557"
           style="font-style:normal;font-variant:normal;font-weight:400;font-size:7.02027798px;font-family:Calibri;fill:#000000"
           dy="0"
           dx="0">magnetism</tspan></tspan></text>
    <path
       inkscape:connector-curvature="0"
       id="path3559"
       d="m 141.77885,136.4711 3.52947,-21.76526 -0.66661,-0.1112 -3.53483,21.76526 0.67197,0.1112 z m 4.18592,-21.30496 -0.70923,-2.25947 -1.38119,1.9208 2.09042,0.33867 z"
       style="fill:#000000;fill-opacity:1;fill-rule:nonzero;stroke:#000000;stroke-width:0.00529183px;stroke-linecap:butt;stroke-linejoin:round;stroke-miterlimit:4;stroke-dasharray:none;stroke-opacity:1" />
    <text
       sodipodi:linespacing="125%"
       id="text3561"
       y="145.42851"
       x="164.87148"
       style="font-style:normal;font-variant:normal;font-weight:400;font-size:7.02027798px;line-height:125%;font-family:Arial;text-align:start;letter-spacing:0px;word-spacing:0px;text-anchor:start;fill:#000000;fill-opacity:1;stroke:none"
       xml:space="preserve"><tspan
         id="tspan3563"
         y="145.42851"
         x="164.87148"
         sodipodi:role="line"><tspan
           id="tspan3565"
           style="font-style:normal;font-variant:normal;font-weight:400;font-size:7.02027798px;font-family:Arial;fill:#000000"
           dy="0"
           dx="0">Lower end</tspan></tspan></text>
    <path
       inkscape:connector-curvature="0"
       id="path3567"
       d="m 173.7837,134.75123 2.76239,5.26542"
       style="fill:none;stroke:#000000;stroke-width:0.33867735px;stroke-linecap:butt;stroke-linejoin:miter;stroke-miterlimit:8;stroke-dasharray:none;stroke-opacity:1" />
    <path
       transform="scale(0.28222222,0.28222222)"
       inkscape:connector-curvature="0"
       id="path3569"
       d="m 341.861,476.265 7.2,0 0,1.8 -7.2,0 0,-1.8 z m 12.6,0 7.2,0 0,1.8 -7.2,0 0,-1.8 z m 12.601,0 7.2,0 0,1.8 -7.2,0 0,-1.8 z m 12.6,0 7.2,0 0,1.8 -7.2,0 0,-1.8 z m 12.6,0 7.201,0 0,1.8 -7.201,0 0,-1.8 z m 12.601,0 7.2,0 0,1.8 -7.2,0 0,-1.8 z m 12.6,0 7.2,0 0,1.8 -7.2,0 0,-1.8 z m 12.601,0 7.2,0 0,1.8 -7.2,0 0,-1.8 z m 12.6,0 7.2,0 0,1.8 -7.2,0 0,-1.8 z m 12.6,0 7.201,0 0,1.8 -7.201,0 0,-1.8 z m 12.601,0 7.2,0 0,1.8 -7.2,0 0,-1.8 z m 12.6,0 7.2,0 0,1.8 -7.2,0 0,-1.8 z m 12.601,0 7.2,0 0,1.8 -7.2,0 0,-1.8 z m 12.6,0 7.2,0 0,1.8 -7.2,0 0,-1.8 z m 12.6,0 7.201,0 0,1.8 -7.201,0 0,-1.8 z m 12.601,0 7.2,0 0,1.8 -7.2,0 0,-1.8 z m 12.6,0 7.2,0 0,1.8 -7.2,0 0,-1.8 z m 12.601,0 7.2,0 0,1.8 -7.2,0 0,-1.8 z m 12.6,0 7.2,0 0,1.8 -7.2,0 0,-1.8 z m 12.6,0 7.201,0 0,1.8 -7.201,0 0,-1.8 z m 12.601,0 7.2,0 0,1.8 -7.2,0 0,-1.8 z m 12.6,0 7.2,0 0,1.8 -7.2,0 0,-1.8 z m 12.601,0 7.2,0 0,1.8 -7.2,0 0,-1.8 z m 12.6,0 7.2,0 0,1.8 -7.2,0 0,-1.8 z m 12.6,0 7.201,0 0,1.8 -7.201,0 0,-1.8 z m 12.601,0 7.2,0 0,1.8 -7.2,0 0,-1.8 z m 12.6,0 7.2,0 0,1.8 -7.2,0 0,-1.8 z m 12.601,0 7.2,0 0,1.8 -7.2,0 0,-1.8 z m 12.6,0 7.2,0 0,1.8 -7.2,0 0,-1.8 z m 12.6,0 7.201,0 0,1.8 -7.201,0 0,-1.8 z m 12.601,0 7.2,0 0,1.8 -7.2,0 0,-1.8 z m 12.6,0 7.2,0 0,1.8 -7.2,0 0,-1.8 z m 12.601,0 7.2,0 0,1.8 -7.2,0 0,-1.8 z m 12.6,0 7.2,0 0,1.8 -7.2,0 0,-1.8 z m 12.6,0 7.201,0 0,1.8 -7.201,0 0,-1.8 z m 12.601,0 7.2,0 0,1.8 -7.2,0 0,-1.8 z m 12.6,0 7.2,0 0,1.8 -7.2,0 0,-1.8 z m 12.601,0 7.2,0 0,1.8 -7.2,0 0,-1.8 z m 12.6,0 7.2,0 0,1.8 -7.2,0 0,-1.8 z m 12.6,0 7.201,0 0,1.8 -7.201,0 0,-1.8 z m 12.601,0 7.2,0 0,1.8 -7.2,0 0,-1.8 z m 12.6,0 7.2,0 0,1.8 -7.2,0 0,-1.8 z m 12.6,0 7.201,0 0,1.8 -7.201,0 0,-1.8 z m 12.601,0 7.2,0 0,1.8 -7.2,0 0,-1.8 z m 12.6,0 7.201,0 0,1.8 -7.201,0 0,-1.8 z m 12.601,0 7.2,0 0,1.8 -7.2,0 0,-1.8 z m 12.6,0 7.2,0 0,1.8 -7.2,0 0,-1.8 z m 12.6,0 7.201,0 0,1.8 -7.201,0 0,-1.8 z m 12.601,0 7.2,0 0,1.8 -7.2,0 0,-1.8 z m 12.6,0 7.201,0 0,1.8 -7.201,0 0,-1.8 z m 12.601,0 7.2,0 0,1.8 -7.2,0 0,-1.8 z m 12.6,0 7.2,0 0,1.8 -7.2,0 0,-1.8 z m 12.6,0 7.199,0 0,1.8 -7.199,0 0,-1.8 z m 12.599,0 7.2,0 0,1.8 -7.2,0 0,-1.8 z m 12.6,0 7.2,0 0,1.8 -7.2,0 0,-1.8 z m 12.6,0 7.2,0 0,1.8 -7.2,0 0,-1.8 z m 12.6,0 7.2,0 0,1.8 -7.2,0 0,-1.8 z m 12.6,0 7.2,0 0,1.8 -7.2,0 0,-1.8 z m 12.6,0 7.2,0 0,1.8 -7.2,0 0,-1.8 z m 12.6,0 7.2,0 0,1.8 -7.2,0 0,-1.8 z"
       clip-path="url(#clipEmfPath1-5)"
       style="fill:#000000;fill-opacity:1;fill-rule:nonzero;stroke:#000000;stroke-width:0.03750118px;stroke-linecap:butt;stroke-linejoin:round;stroke-miterlimit:10;stroke-dasharray:none;stroke-opacity:1" />
    <text
       sodipodi:linespacing="125%"
       id="text3571"
       y="157.3515"
       x="107.43587"
       style="font-style:normal;font-variant:normal;font-weight:400;font-size:7.02027798px;line-height:125%;font-family:Arial;text-align:start;letter-spacing:0px;word-spacing:0px;text-anchor:start;fill:#000000;fill-opacity:1;stroke:none"
       xml:space="preserve"><tspan
         id="tspan3573"
         y="157.3515"
         x="107.43587"
         sodipodi:role="line"><tspan
           id="tspan3575"
           style="font-style:normal;font-variant:normal;font-weight:400;font-size:7.02027798px;font-family:Arial;fill:#000000"
           dy="0"
           dx="0">Epipolar</tspan></tspan></text>
    <text
       sodipodi:linespacing="125%"
       id="text3577"
       y="157.3515"
       x="135.29207"
       style="font-style:normal;font-variant:normal;font-weight:400;font-size:7.02027798px;line-height:125%;font-family:Arial;text-align:start;letter-spacing:0px;word-spacing:0px;text-anchor:start;fill:#000000;fill-opacity:1;stroke:none"
       xml:space="preserve"><tspan
         id="tspan3579"
         y="157.3515"
         x="135.29207"
         sodipodi:role="line"><tspan
           id="tspan3581"
           style="font-style:normal;font-variant:normal;font-weight:400;font-size:7.02027798px;font-family:Arial;fill:#000000"
           dy="0"
           dx="0">line</tspan></tspan></text>
    <path
       inkscape:connector-curvature="0"
       id="path3583"
       d="m 112.00694,151.34646 -6.12789,-16.34123"
       style="fill:none;stroke:#000000;stroke-width:0.16933867px;stroke-linecap:butt;stroke-linejoin:miter;stroke-miterlimit:8;stroke-dasharray:none;stroke-opacity:1" />
    <path
       inkscape:connector-curvature="0"
       id="path3585"
       d="m 267.17413,131.0259 6.77362,0 0,6.77333 -6.77362,0 z"
       style="fill:none;stroke:#002060;stroke-width:0.67735469px;stroke-linecap:butt;stroke-linejoin:miter;stroke-miterlimit:8;stroke-dasharray:none;stroke-opacity:1" />
    <path
       inkscape:connector-curvature="0"
       id="path3587"
       d="m 252.18757,139.57752 19.55856,0 0,-0.42334 0.84667,0.84667 -0.84667,0.84667 0,-0.42334 -19.55856,0 z"
       style="fill:#0070c0;fill-opacity:1;fill-rule:evenodd;stroke:none" />
    <path
       inkscape:connector-curvature="0"
       id="path3589"
       d="M 246.89054,137.71457 235.931,142.93765"
       style="fill:none;stroke:#000000;stroke-width:0.33867735px;stroke-linecap:butt;stroke-linejoin:miter;stroke-miterlimit:8;stroke-dasharray:none;stroke-opacity:1" />
    <text
       sodipodi:linespacing="125%"
       id="text3591"
       y="146.79327"
       x="258.58441"
       style="font-style:normal;font-variant:normal;font-weight:400;font-size:7.02027798px;line-height:125%;font-family:Calibri;text-align:start;letter-spacing:0px;word-spacing:0px;text-anchor:start;fill:#000000;fill-opacity:1;stroke:none"
       xml:space="preserve"><tspan
         id="tspan3593"
         y="146.79327"
         x="258.58441"
         sodipodi:role="line"><tspan
           id="tspan3595"
           style="font-style:normal;font-variant:normal;font-weight:400;font-size:7.02027798px;font-family:Calibri;fill:#000000"
           dy="0"
           dx="0">Evaluation </tspan></tspan></text>
    <text
       sodipodi:linespacing="125%"
       id="text3597"
       y="146.79327"
       x="289.99673"
       style="font-style:normal;font-variant:normal;font-weight:400;font-size:7.02027798px;line-height:125%;font-family:Calibri;text-align:start;letter-spacing:0px;word-spacing:0px;text-anchor:start;fill:#000000;fill-opacity:1;stroke:none"
       xml:space="preserve"><tspan
         id="tspan3599"
         y="146.79327"
         x="289.99673"
         sodipodi:role="line"><tspan
           id="tspan3601"
           style="font-style:normal;font-variant:normal;font-weight:400;font-size:7.02027798px;font-family:Calibri;fill:#000000"
           dy="0"
           dx="0">area</tspan></tspan></text>
    <path
       inkscape:connector-curvature="0"
       id="path3603"
       d="m 253.1189,137.54523 12.70057,4.30756"
       style="fill:none;stroke:#000000;stroke-width:0.33867735px;stroke-linecap:butt;stroke-linejoin:miter;stroke-miterlimit:8;stroke-dasharray:none;stroke-opacity:1" />
    <path
       inkscape:connector-curvature="0"
       id="path3605"
       d="m 260.99318,137.79923 6.5089,3.96889"
       style="fill:none;stroke:#000000;stroke-width:0.33867735px;stroke-linecap:butt;stroke-linejoin:miter;stroke-miterlimit:8;stroke-dasharray:none;stroke-opacity:1" />
    <path
       inkscape:connector-curvature="0"
       id="path3607"
       d="m 269.77763,138.1379 -0.48683,3.42928"
       style="fill:none;stroke:#000000;stroke-width:0.33867735px;stroke-linecap:butt;stroke-linejoin:miter;stroke-miterlimit:8;stroke-dasharray:none;stroke-opacity:1" />
  </g>
</svg>
