<?xml version="1.0" encoding="UTF-8" standalone="no"?>
<svg
   xmlns:dc="http://purl.org/dc/elements/1.1/"
   xmlns:cc="http://creativecommons.org/ns#"
   xmlns:rdf="http://www.w3.org/1999/02/22-rdf-syntax-ns#"
   xmlns:svg="http://www.w3.org/2000/svg"
   xmlns="http://www.w3.org/2000/svg"
   xmlns:sodipodi="http://sodipodi.sourceforge.net/DTD/sodipodi-0.dtd"
   xmlns:inkscape="http://www.inkscape.org/namespaces/inkscape"
   version="1.0"
   width="236.28999mm"
   height="124.5mm"
   id="svg3513"
   inkscape:version="0.91 r13725"
   viewBox="0 0 236.28999 124.5"
   sodipodi:docname="Geomagnetism_epipolar.svg">
  <metadata
     id="metadata3637">
    <rdf:RDF>
      <cc:Work
         rdf:about="">
        <dc:format>image/svg+xml</dc:format>
        <dc:type
           rdf:resource="http://purl.org/dc/dcmitype/StillImage" />
        <dc:title></dc:title>
      </cc:Work>
    </rdf:RDF>
  </metadata>
  <sodipodi:namedview
     pagecolor="#ffffff"
     bordercolor="#666666"
     borderopacity="1"
     objecttolerance="10"
     gridtolerance="10"
     guidetolerance="10"
     inkscape:pageopacity="0"
     inkscape:pageshadow="2"
     inkscape:window-width="1920"
     inkscape:window-height="1017"
     id="namedview3635"
     inkscape:document-units="mm"
     showgrid="false"
     inkscape:zoom="1.5131391"
     inkscape:cx="258.88582"
     inkscape:cy="267.91101"
     inkscape:window-x="1912"
     inkscape:window-y="-8"
     inkscape:window-maximized="1"
     inkscape:current-layer="svg3513" />
  <defs
     id="defs3515">
    <clipPath
       clipPathUnits="userSpaceOnUse"
       id="clipEmfPath1">
      <path
         d="m 105.918,35.856 837.441,0 0,441.224 -837.441,0 z"
         id="path3518"
         inkscape:connector-curvature="0" />
    </clipPath>
    <pattern
       id="EMFhbasepattern"
       patternUnits="userSpaceOnUse"
       width="6"
       height="6"
       x="0"
       y="0" />
  </defs>
  <path
     style="fill:#ffffff;fill-opacity:1;fill-rule:evenodd;stroke:none"
     d="m 26.404205,1.2933488 0,98.0978512 98.142225,0 0,-98.0978512 -98.142225,0 z"
     id="path3521"
     inkscape:connector-curvature="0" />
  <path
     style="fill:none;stroke:#000000;stroke-width:2.55042934px;stroke-linecap:butt;stroke-linejoin:miter;stroke-miterlimit:8;stroke-dasharray:none;stroke-opacity:1"
     clip-path="url(#clipEmfPath1)"
     d="m 178.08,43.2073 332.306,0 0,332.1557 -332.306,0 z"
     id="path3523"
     inkscape:connector-curvature="0"
     transform="matrix(0.2953369,0,0,0.2953369,-26.189389,-11.467359)" />
  <path
     style="fill:none;stroke:#92d050;stroke-width:53.7090416px;stroke-linecap:butt;stroke-linejoin:miter;stroke-miterlimit:8;stroke-dasharray:none;stroke-opacity:1"
     clip-path="url(#clipEmfPath1)"
     d="m 214.761,239.328 c 12.827,-12.265 25.617,-24.567 44.933,-20.441 19.278,4.126 47.22,37.994 70.849,45.157 23.629,7.164 48.083,-4.125 70.85,-2.137 22.803,1.987 63.535,20.253 65.861,13.989"
     id="path3525"
     inkscape:connector-curvature="0"
     transform="matrix(0.2953369,0,0,0.2953369,-26.189389,-11.467359)" />
  <path
     style="fill:#ff0000;fill-opacity:1;fill-rule:nonzero;stroke:#ff0000;stroke-width:0.0055385px;stroke-linecap:butt;stroke-linejoin:round;stroke-miterlimit:10;stroke-dasharray:none;stroke-opacity:1"
     d="m 76.073374,30.30391 -6.635038,42.31971 0.742182,0.116364 6.635038,-42.319711 -0.742182,-0.116363 z m -7.321697,41.832405 0.764332,2.403746 1.467529,-2.054954 -2.231861,-0.348792 z"
     id="path3527"
     inkscape:connector-curvature="0" />
  <text
     xml:space="preserve"
     style="font-style:normal;font-variant:normal;font-weight:400;font-size:8.86010647px;line-height:125%;font-family:Arial;text-align:start;letter-spacing:0px;word-spacing:0px;text-anchor:start;fill:#000000;fill-opacity:1;stroke:none"
     x="30.964319"
     y="55.536057"
     id="text3529"
     sodipodi:linespacing="125%"><tspan
       sodipodi:role="line"
       x="30.964319"
       y="55.536057"
       id="tspan3531"><tspan
         dx="0"
         dy="0"
         style="font-style:normal;font-variant:normal;font-weight:400;font-size:8.86010647px;font-family:Arial;fill:#000000"
         id="tspan3533">Aurora</tspan></tspan></text>
  <text
     xml:space="preserve"
     style="font-style:normal;font-variant:normal;font-weight:400;font-size:8.86010647px;line-height:125%;font-family:Arial;text-align:start;letter-spacing:0px;word-spacing:0px;text-anchor:start;fill:#000000;fill-opacity:1;stroke:none"
     x="31.37071"
     y="26.782938"
     id="text3535"
     sodipodi:linespacing="125%"><tspan
       sodipodi:role="line"
       x="31.37071"
       y="26.782938"
       id="tspan3537"><tspan
         dx="0"
         dy="0"
         style="font-style:normal;font-variant:normal;font-weight:400;font-size:8.86010647px;font-family:Arial;fill:#000000"
         id="tspan3539">Geomagnetism line</tspan></tspan></text>
  <text
     xml:space="preserve"
     style="font-style:normal;font-variant:normal;font-weight:400;font-size:8.86010647px;line-height:125%;font-family:Arial;text-align:start;letter-spacing:0px;word-spacing:0px;text-anchor:start;fill:#000000;fill-opacity:1;stroke:none"
     x="29.930988"
     y="10.579413"
     id="text3541"
     sodipodi:linespacing="125%"><tspan
       sodipodi:role="line"
       x="29.930988"
       y="10.579413"
       id="tspan3543"><tspan
         dx="0 0 0 0 0"
         dy="0 0 0 0 0"
         style="font-style:normal;font-variant:normal;font-weight:400;font-size:8.86010647px;font-family:Arial;fill:#000000"
         id="tspan3545">Left camera image</tspan></tspan></text>
  <path
     style="fill:#ffffff;fill-opacity:1;fill-rule:evenodd;stroke:none"
     d="m 132.3888,1.2933488 0,98.0978512 98.09792,0 0,-98.0978512 -98.09792,0 z"
     id="path3547"
     inkscape:connector-curvature="0" />
  <path
     style="fill:none;stroke:#000000;stroke-width:2.55042934px;stroke-linecap:butt;stroke-linejoin:miter;stroke-miterlimit:8;stroke-dasharray:none;stroke-opacity:1"
     clip-path="url(#clipEmfPath1)"
     d="m 536.94,43.2073 332.156,0 0,332.1557 -332.156,0 z"
     id="path3549"
     inkscape:connector-curvature="0"
     transform="matrix(0.2953369,0,0,0.2953369,-26.189389,-11.467359)" />
  <path
     style="fill:none;stroke:#92d050;stroke-width:53.7090416px;stroke-linecap:butt;stroke-linejoin:miter;stroke-miterlimit:8;stroke-dasharray:none;stroke-opacity:1"
     clip-path="url(#clipEmfPath1)"
     d="m 592.825,239.328 c 12.827,-12.265 25.654,-24.567 44.97,-20.441 19.278,4.126 47.258,37.994 70.887,45.157 23.629,7.164 48.083,-4.125 70.887,-2.137 22.804,1.987 63.573,20.253 65.898,13.989"
     id="path3551"
     inkscape:connector-curvature="0"
     transform="matrix(0.2953369,0,0,0.2953369,-26.189389,-11.467359)" />
  <path
     style="fill:#ff0000;fill-opacity:1;fill-rule:nonzero;stroke:#ff0000;stroke-width:0.01107701px;stroke-linecap:butt;stroke-linejoin:round;stroke-miterlimit:10;stroke-dasharray:none;stroke-opacity:1"
     d="m 186.20095,28.321314 5.66043,44.817375 -0.74218,0.09982 -5.66042,-44.817669 0.74217,-0.09953 z m 6.35831,44.352219 -0.83078,2.381596 -1.40699,-2.093643 2.23777,-0.287953 z"
     id="path3553"
     inkscape:connector-curvature="0" />
  <text
     xml:space="preserve"
     style="font-style:normal;font-variant:normal;font-weight:400;font-size:8.86010647px;line-height:125%;font-family:Arial;text-align:start;letter-spacing:0px;word-spacing:0px;text-anchor:start;fill:#000000;fill-opacity:1;stroke:none"
     x="136.94017"
     y="55.536057"
     id="text3555"
     sodipodi:linespacing="125%"><tspan
       sodipodi:role="line"
       x="136.94017"
       y="55.536057"
       id="tspan3557"><tspan
         dx="0"
         dy="0"
         style="font-style:normal;font-variant:normal;font-weight:400;font-size:8.86010647px;font-family:Arial;fill:#000000"
         id="tspan3559">Aurora</tspan></tspan></text>
  <path
     style="fill:#44546a;fill-opacity:1;fill-rule:evenodd;stroke:none"
     d="m 67.943045,75.376455 c 0,-0.692565 0.570295,-1.26286 1.262566,-1.26286 0.69788,0 1.262859,0.570295 1.262859,1.26286 0,0.697586 -0.564979,1.262565 -1.262859,1.262565 -0.692271,0 -1.262566,-0.564979 -1.262566,-1.262565 z"
     id="path3561"
     inkscape:connector-curvature="0" />
  <path
     style="fill:none;stroke:#333f50;stroke-width:0.35446399px;stroke-linecap:butt;stroke-linejoin:miter;stroke-miterlimit:8;stroke-dasharray:none;stroke-opacity:1"
     d="m 67.943045,75.376455 c 0,-0.692565 0.570295,-1.26286 1.262566,-1.26286 0.69788,0 1.262859,0.570295 1.262859,1.26286 0,0.697586 -0.564979,1.262565 -1.262859,1.262565 -0.692271,0 -1.262566,-0.564979 -1.262566,-1.262565"
     id="path3563"
     inkscape:connector-curvature="0" />
  <path
     style="fill:#000000;fill-opacity:1;fill-rule:nonzero;stroke:#000000;stroke-width:0.01107701px;stroke-linecap:butt;stroke-linejoin:round;stroke-miterlimit:10;stroke-dasharray:none;stroke-opacity:1"
     d="m 8.1494318,74.999606 2.3039222,0 0,0.576202 -2.3039222,0 0,-0.576202 z m 4.0319392,0 2.303923,0 0,0.576202 -2.303923,0 0,-0.576202 z m 4.031939,0 2.303924,0 0,0.576202 -2.303924,0 0,-0.576202 z m 4.03194,0 2.304219,0 0,0.576202 -2.304219,0 0,-0.576202 z m 4.032233,0 2.303925,0 0,0.576202 -2.303925,0 0,-0.576202 z m 4.031941,0 2.303923,0 0,0.576202 -2.303923,0 0,-0.576202 z m 4.031939,0 2.304218,0 0,0.576202 -2.304218,0 0,-0.576202 z m 4.032234,0 2.303924,0 0,0.576202 -2.303924,0 0,-0.576202 z m 4.03194,0 2.303922,0 0,0.576202 -2.303922,0 0,-0.576202 z m 4.031939,0 2.304219,0 0,0.576202 -2.304219,0 0,-0.576202 z m 4.032234,0 2.303925,0 0,0.576202 -2.303925,0 0,-0.576202 z m 4.031941,0 2.303922,0 0,0.576202 -2.303922,0 0,-0.576202 z m 4.031939,0 2.303923,0 0,0.576202 -2.303923,0 0,-0.576202 z m 4.031939,0 2.304218,0 0,0.576202 -2.304218,0 0,-0.576202 z m 4.032235,0 2.303922,0 0,0.576202 -2.303922,0 0,-0.576202 z m 4.031939,0 2.303924,0 0,0.576202 -2.303924,0 0,-0.576202 z m 4.031938,0 2.30422,0 0,0.576202 -2.30422,0 0,-0.576202 z m 4.032236,0 2.303926,0 0,0.576202 -2.303926,0 0,-0.576202 z m 4.031941,0 2.303916,0 0,0.576202 -2.303916,0 0,-0.576202 z m 4.031941,0 2.304211,0 0,0.576202 -2.304211,0 0,-0.576202 z m 4.032235,0 2.303917,0 0,0.576202 -2.303917,0 0,-0.576202 z m 4.031931,0 2.303928,0 0,0.576202 -2.303928,0 0,-0.576202 z m 4.031941,0 2.303929,0 0,0.576202 -2.303929,0 0,-0.576202 z m 4.031944,0 2.30421,0 0,0.576202 -2.30421,0 0,-0.576202 z m 4.03223,0 2.30393,0 0,0.576202 -2.30393,0 0,-0.576202 z m 4.03195,0 2.30391,0 0,0.576202 -2.30391,0 0,-0.576202 z m 4.03193,0 2.30422,0 0,0.576202 -2.30422,0 0,-0.576202 z m 4.03223,0 2.30393,0 0,0.576202 -2.30393,0 0,-0.576202 z m 4.03193,0 2.30394,0 0,0.576202 -2.30394,0 0,-0.576202 z m 4.03194,0 2.30423,0 0,0.576202 -2.30423,0 0,-0.576202 z m 4.03225,0 2.30392,0 0,0.576202 -2.30392,0 0,-0.576202 z m 4.03194,0 2.30391,0 0,0.576202 -2.30391,0 0,-0.576202 z m 4.03194,0 2.30391,0 0,0.576202 -2.30391,0 0,-0.576202 z m 4.03193,0 2.30422,0 0,0.576202 -2.30422,0 0,-0.576202 z m 4.03223,0 2.30393,0 0,0.576202 -2.30393,0 0,-0.576202 z m 4.03195,0 2.30392,0 0,0.576202 -2.30392,0 0,-0.576202 z m 4.03194,0 2.30422,0 0,0.576202 -2.30422,0 0,-0.576202 z m 4.03223,0 2.30393,0 0,0.576202 -2.30393,0 0,-0.576202 z m 4.03194,0 2.30392,0 0,0.576202 -2.30392,0 0,-0.576202 z m 4.03195,0 2.3042,0 0,0.576202 -2.3042,0 0,-0.576202 z m 4.03223,0 2.30391,0 0,0.576202 -2.30391,0 0,-0.576202 z m 4.03193,0 2.30392,0 0,0.576202 -2.30392,0 0,-0.576202 z m 4.03194,0 2.30392,0 0,0.576202 -2.30392,0 0,-0.576202 z m 4.03194,0 2.30422,0 0,0.576202 -2.30422,0 0,-0.576202 z m 4.03224,0 2.30392,0 0,0.576202 -2.30392,0 0,-0.576202 z m 4.03195,0 2.30391,0 0,0.576202 -2.30391,0 0,-0.576202 z m 4.03193,0 2.30421,0 0,0.576202 -2.30421,0 0,-0.576202 z m 4.03222,0 2.30393,0 0,0.576202 -2.30393,0 0,-0.576202 z m 4.03194,0 2.30393,0 0,0.576202 -2.30393,0 0,-0.576202 z m 4.03195,0 2.30423,0 0,0.576202 -2.30423,0 0,-0.576202 z m 4.03224,0 2.30392,0 0,0.576202 -2.30392,0 0,-0.576202 z m 4.03194,0 2.30391,0 0,0.576202 -2.30391,0 0,-0.576202 z m 4.03194,0 2.30391,0 0,0.576202 -2.30391,0 0,-0.576202 z m 4.03193,0 2.30421,0 0,0.576202 -2.30421,0 0,-0.576202 z m 4.03223,0 2.30393,0 0,0.576202 -2.30393,0 0,-0.576202 z m 4.03195,0 0.58713,0 0,0.576202 -0.58713,0 0,-0.576202 z"
     id="path3565"
     inkscape:connector-curvature="0" />
  <path
     style="fill:#000000;fill-opacity:1;fill-rule:nonzero;stroke:#000000;stroke-width:0.01107701px;stroke-linecap:butt;stroke-linejoin:round;stroke-miterlimit:10;stroke-dasharray:none;stroke-opacity:1"
     d="m 8.1603591,66.104944 2.3039239,-0.01122 -0.01093,-0.575909 -2.3039224,0.01092 0.010925,0.576201 z m 4.0319399,-0.01122 2.304218,-0.01092 -0.01123,-0.576202 -2.303921,0.01122 0.01092,0.575908 z m 4.032234,-0.01092 2.303923,-0.01122 -0.01122,-0.575907 -2.303925,0.01092 0.01123,0.576203 z m 4.03194,-0.01122 2.303923,-0.01092 -0.01092,-0.576204 -2.304218,0.01122 0.01123,0.575907 z m 4.031939,-0.01092 2.304218,-0.01122 -0.01122,-0.575906 -2.303924,0.01092 0.01092,0.576203 z m 4.032233,-0.01122 2.303925,-0.01092 -0.01123,-0.576202 -2.303924,0.01122 0.01122,0.575906 z m 4.031941,-0.01092 2.303923,-0.01122 -0.01092,-0.575908 -2.304218,0.01092 0.01122,0.576202 z m 4.031939,-0.01122 2.303922,-0.01092 -0.01092,-0.576203 -2.303923,0.01122 0.01092,0.575907 z m 4.031939,-0.01092 2.304219,-0.01122 -0.01122,-0.575907 -2.303922,0.01092 0.01092,0.576202 z m 4.032236,-0.01122 2.303921,-0.01092 -0.01092,-0.576202 -2.304219,0.01122 0.01122,0.575907 z m 4.031938,-0.01092 2.303923,-0.01123 -0.01092,-0.575906 -2.303924,0.01092 0.01092,0.576203 z m 4.031939,-0.01123 2.30422,-0.01092 -0.01122,-0.576202 -2.303924,0.01122 0.01092,0.575906 z m 4.032236,-0.01092 2.303922,-0.01122 -0.01122,-0.575908 -2.303923,0.01092 0.01122,0.576202 z m 4.031939,-0.01122 2.303924,-0.01092 -0.01092,-0.576202 -2.304218,0.01122 0.01122,0.575908 z m 4.031939,-0.02215 2.304219,0 -0.01122,-0.575906 -2.303923,0 0.01092,0.575906 z m 4.032235,-0.01092 2.303922,0 -0.01122,-0.576203 -2.303923,0 0.01122,0.576203 z m 4.03194,-0.01121 2.303922,0 -0.01092,-0.575907 -2.304219,0 0.01122,0.575907 z m 4.031937,-0.01092 2.303926,0 -0.01088,-0.576201 -2.303926,0 0.01092,0.576201 z m 4.03194,-0.01121 2.30422,0 -0.0112,-0.575908 -2.303918,0 0.01088,0.575908 z m 4.032235,-0.01092 2.303927,0 -0.01088,-0.576202 -2.30421,0 0.0112,0.576202 z m 4.03194,-0.01121 2.303919,0 -0.01088,-0.575906 -2.303917,0 0.01088,0.575906 z m 4.031943,-0.01092 2.30421,0 -0.0112,-0.576204 -2.303929,0 0.01099,0.576204 z m 4.032233,-0.01122 2.303918,0 -0.0112,-0.575907 -2.303926,0 0.0112,0.575907 z m 4.031936,-0.01092 2.29299,0 0,-0.576202 -2.30421,0 0.0112,0.576202 z m 4.02101,-0.01122 2.30393,0 0,-0.575908 -2.30393,0 0,0.575908 z m 4.03195,-0.01092 2.30391,0 0,-0.576202 -2.30391,0 0,0.576202 z m 4.03193,-0.01122 2.30422,0 0,-0.575907 -2.30422,0 0,0.575907 z m 4.03223,-0.01092 2.30393,0 0,-0.576203 -2.30393,0 0,0.576203 z m 4.03193,-0.01123 2.30394,0 0,-0.575908 -2.30394,0 0,0.575908 z m 4.03194,-0.01092 2.30423,0 0,-0.576201 -2.30423,0 0,0.576201 z m 4.03225,-0.01122 2.30392,0 0,-0.575907 -2.30392,0 0,0.575907 z m 4.03194,-0.01092 2.30391,0 0,-0.576202 -2.30391,0 0,0.576202 z m 4.03194,-0.01123 2.30391,0 0,-0.575906 -2.30391,0 0,0.575906 z m 4.03193,-0.01092 2.30422,0 0,-0.576203 -2.30422,0 0,0.576203 z m 4.03223,-0.01122 2.30393,-0.01122 0,-0.575906 -2.30393,0.01122 0,0.575907 z m 4.03195,-0.01122 2.30392,-0.01092 0,-0.575908 -2.30392,0.01092 0,0.575906 z m 4.03194,-0.01092 2.30422,-0.01122 0,-0.575907 -2.30422,0.01122 0,0.575908 z m 4.03223,-0.01122 2.30393,-0.01092 0,-0.575906 -2.30393,0.01092 0,0.575907 z m 4.03194,-0.01092 2.30392,-0.01122 0,-0.575908 -2.30392,0.01122 0,0.575906 z m 4.03195,-0.01122 2.3042,-0.01092 0,-0.575907 -2.3042,0.01092 0,0.575908 z m 4.03223,-0.01092 2.30391,-0.01122 0,-0.575906 -2.30391,0.01122 0,0.575907 z m 4.03193,-0.01122 2.30392,-0.01092 0,-0.575908 -2.30392,0.01092 0,0.575906 z m 4.03194,-0.01092 2.30392,-0.01122 0,-0.575905 -2.30392,0.01121 0,0.575908 z m 4.03194,-0.01122 2.30422,-0.01092 0,-0.575907 -2.30422,0.01092 0,0.575905 z m 4.03224,-0.01092 2.30392,-0.01122 0,-0.575907 -2.30392,0.01122 0,0.575907 z m 4.03195,-0.01122 2.30391,-0.01092 0,-0.575906 -2.30391,0.01092 0,0.575908 z m 4.03193,-0.01092 2.30421,-0.01122 0,-0.575907 -2.30421,0.01122 0,0.575906 z m 4.03222,-0.01122 2.30393,-0.01092 0,-0.575908 -2.30393,0.01092 0,0.575907 z m 4.03194,-0.01092 2.30393,-0.01123 0,-0.575907 -2.30393,0.01121 0,0.575908 z m 4.03195,-0.01123 2.30423,-0.01092 0,-0.575906 -2.30423,0.01092 0,0.575907 z m 4.03224,-0.01092 2.30392,-0.01122 0,-0.575909 -2.30392,0.01123 0,0.575907 z m 4.03194,-0.01122 2.30391,-0.01092 0,-0.575905 -2.30391,0.01092 0,0.575909 z m 4.03194,-0.01092 2.30391,-0.01122 0,-0.575906 -2.30391,0.01122 0,0.575905 z m 4.03193,-0.01122 2.30421,-0.01092 0,-0.575908 -2.30421,0.01092 0,0.575906 z m 4.03223,-0.01092 2.30393,-0.01122 0,-0.575906 -2.30393,0.01122 0,0.575908 z m 4.03195,-0.01122 0.58713,-0.01092 0,-0.575907 -0.58713,0.01092 0,0.575906 z"
     id="path3567"
     inkscape:connector-curvature="0" />
  <text
     xml:space="preserve"
     style="font-style:normal;font-variant:normal;font-weight:400;font-size:8.86010647px;line-height:125%;font-family:Arial;text-align:start;letter-spacing:0px;word-spacing:0px;text-anchor:start;fill:#000000;fill-opacity:1;stroke:none"
     x="10.630555"
     y="111.08978"
     id="text3569"
     sodipodi:linespacing="125%"><tspan
       sodipodi:role="line"
       x="10.630555"
       y="111.08978"
       id="tspan3571"><tspan
         dx="0"
         dy="0"
         style="font-style:normal;font-variant:normal;font-weight:400;font-size:8.86010647px;font-family:Arial;fill:#000000"
         id="tspan3573">Epipolar</tspan></tspan></text>
  <text
     xml:space="preserve"
     style="font-style:normal;font-variant:normal;font-weight:400;font-size:8.86010647px;line-height:125%;font-family:Arial;text-align:start;letter-spacing:0px;word-spacing:0px;text-anchor:start;fill:#000000;fill-opacity:1;stroke:none"
     x="45.678177"
     y="111.08978"
     id="text3575"
     sodipodi:linespacing="125%"><tspan
       sodipodi:role="line"
       x="45.678177"
       y="111.08978"
       id="tspan3577"><tspan
         dx="0"
         dy="0"
         style="font-style:normal;font-variant:normal;font-weight:400;font-size:8.86010647px;font-family:Arial;fill:#000000"
         id="tspan3579">lines</tspan></tspan></text>
  <path
     style="fill:#44546a;fill-opacity:1;fill-rule:evenodd;stroke:none"
     d="m 190.58759,75.575808 c 0,-0.709103 0.5759,-1.28501 1.28472,-1.28501 0.72002,0 1.28501,0.575907 1.28501,1.28501 0,0.720031 -0.56499,1.284716 -1.28501,1.284716 -0.70882,0 -1.28472,-0.564685 -1.28472,-1.284716 z"
     id="path3581"
     inkscape:connector-curvature="0" />
  <path
     style="fill:none;stroke:#333f50;stroke-width:0.35446399px;stroke-linecap:butt;stroke-linejoin:miter;stroke-miterlimit:8;stroke-dasharray:none;stroke-opacity:1"
     d="m 190.58759,75.575808 c 0,-0.709103 0.5759,-1.28501 1.28472,-1.28501 0.72002,0 1.28501,0.575907 1.28501,1.28501 0,0.720031 -0.56499,1.284716 -1.28501,1.284716 -0.70882,0 -1.28472,-0.564685 -1.28472,-1.284716"
     id="path3583"
     inkscape:connector-curvature="0" />
  <path
     style="fill:#44546a;fill-opacity:1;fill-rule:evenodd;stroke:none"
     d="m 189.25829,65.783617 c 0,-0.708808 0.5759,-1.285009 1.26286,-1.285009 0.69758,0 1.26256,0.576201 1.26256,1.285009 0,0.720032 -0.56498,1.285011 -1.26256,1.285011 -0.68696,0 -1.26286,-0.564979 -1.26286,-1.285011 z"
     id="path3585"
     inkscape:connector-curvature="0" />
  <path
     style="fill:none;stroke:#333f50;stroke-width:0.35446399px;stroke-linecap:butt;stroke-linejoin:miter;stroke-miterlimit:8;stroke-dasharray:none;stroke-opacity:1"
     d="m 189.25829,65.783617 c 0,-0.708808 0.5759,-1.285009 1.26286,-1.285009 0.69758,0 1.26256,0.576201 1.26256,1.285009 0,0.720032 -0.56498,1.285011 -1.26256,1.285011 -0.68696,0 -1.26286,-0.564979 -1.26286,-1.285011"
     id="path3587"
     inkscape:connector-curvature="0" />
  <path
     style="fill:#44546a;fill-opacity:1;fill-rule:evenodd;stroke:none"
     d="m 69.18346,65.606416 c 0,-0.708808 0.576202,-1.285011 1.28501,-1.285011 0.71442,0 1.285011,0.576203 1.285011,1.285011 0,0.71442 -0.570591,1.285011 -1.285011,1.285011 -0.708808,0 -1.28501,-0.570591 -1.28501,-1.285011 z"
     id="path3589"
     inkscape:connector-curvature="0" />
  <path
     style="fill:none;stroke:#333f50;stroke-width:0.35446399px;stroke-linecap:butt;stroke-linejoin:miter;stroke-miterlimit:8;stroke-dasharray:none;stroke-opacity:1"
     d="m 69.18346,65.606416 c 0,-0.708808 0.576202,-1.285011 1.28501,-1.285011 0.71442,0 1.285011,0.576203 1.285011,1.285011 0,0.71442 -0.570591,1.285011 -1.285011,1.285011 -0.708808,0 -1.28501,-0.570591 -1.28501,-1.285011"
     id="path3591"
     inkscape:connector-curvature="0" />
  <path
     style="fill:none;stroke:#000000;stroke-width:0.177232px;stroke-linecap:butt;stroke-linejoin:miter;stroke-miterlimit:8;stroke-dasharray:none;stroke-opacity:1"
     d="M 70.235505,76.307838 114.35476,104.42353"
     id="path3593"
     inkscape:connector-curvature="0"
     sodipodi:nodetypes="cc" />
  <path
     style="fill:none;stroke:#000000;stroke-width:0.177232px;stroke-linecap:butt;stroke-linejoin:miter;stroke-miterlimit:8;stroke-dasharray:none;stroke-opacity:1"
     d="M 190.68152,76.72559 139.1387,104.1129"
     id="path3595"
     inkscape:connector-curvature="0"
     sodipodi:nodetypes="cc" />
  <path
     style="fill:none;stroke:#000000;stroke-width:0.177232px;stroke-linecap:butt;stroke-linejoin:miter;stroke-miterlimit:8;stroke-dasharray:none;stroke-opacity:1"
     d="M 71.499142,65.704634 119.91106,104.77328"
     id="path3597"
     inkscape:connector-curvature="0" />
  <path
     style="fill:none;stroke:#000000;stroke-width:0.177232px;stroke-linecap:butt;stroke-linejoin:miter;stroke-miterlimit:8;stroke-dasharray:none;stroke-opacity:1"
     d="m 188.84353,66.56782 -54.1156,37.38846"
     id="path3599"
     inkscape:connector-curvature="0"
     sodipodi:nodetypes="cc" />
  <path
     style="fill:none;stroke:#000000;stroke-width:0.177232px;stroke-linecap:butt;stroke-linejoin:miter;stroke-miterlimit:8;stroke-dasharray:none;stroke-opacity:1"
     d="M 20.400596,102.28787 16.235461,75.221109"
     id="path3601"
     inkscape:connector-curvature="0" />
  <path
     style="fill:none;stroke:#000000;stroke-width:0.177232px;stroke-linecap:butt;stroke-linejoin:miter;stroke-miterlimit:8;stroke-dasharray:none;stroke-opacity:1"
     d="M 17.437481,103.94943 9.8995984,66.093722"
     id="path3603"
     inkscape:connector-curvature="0" />
  <text
     xml:space="preserve"
     style="font-style:normal;font-variant:normal;font-weight:400;font-size:8.86010647px;line-height:125%;font-family:Arial;text-align:start;letter-spacing:0px;word-spacing:0px;text-anchor:start;fill:#000000;fill-opacity:1;stroke:none"
     x="153.80553"
     y="25.042551"
     id="text3605"
     sodipodi:linespacing="125%"><tspan
       sodipodi:role="line"
       x="153.80553"
       y="25.042551"
       id="tspan3607"><tspan
         dx="0"
         dy="0"
         style="font-style:normal;font-variant:normal;font-weight:400;font-size:8.86010647px;font-family:Arial;fill:#000000"
         id="tspan3609">Geomagnetism line</tspan></tspan></text>
  <text
     xml:space="preserve"
     style="font-style:normal;font-variant:normal;font-weight:400;font-size:8.86010647px;line-height:125%;font-family:Arial;text-align:start;letter-spacing:0px;word-spacing:0px;text-anchor:start;fill:#000000;fill-opacity:1;stroke:none"
     x="135.4823"
     y="11.061626"
     id="text3611"
     sodipodi:linespacing="125%"><tspan
       sodipodi:role="line"
       x="135.4823"
       y="11.061626"
       id="tspan3613"><tspan
         dx="0 0 0 0 0 0"
         dy="0 0 0 0 0 0"
         style="font-style:normal;font-variant:normal;font-weight:400;font-size:8.86010647px;font-family:Arial;fill:#000000"
         id="tspan3615">Right camera image</tspan></tspan></text>
  <text
     xml:space="preserve"
     style="font-style:normal;font-variant:normal;font-weight:400;font-size:8.86010647px;line-height:125%;font-family:Arial;text-align:start;letter-spacing:0px;word-spacing:0px;text-anchor:start;fill:#000000;fill-opacity:1;stroke:none"
     x="78.487526"
     y="111.31882"
     id="text3617"
     sodipodi:linespacing="125%"><tspan
       sodipodi:role="line"
       x="78.487526"
       y="111.31882"
       id="tspan3619"><tspan
         dx="0"
         dy="0"
         style="font-style:normal;font-variant:normal;font-weight:400;font-size:8.86010647px;font-family:Arial;fill:#000000"
         id="tspan3621">Corresponding points</tspan></tspan></text>
  <text
     xml:space="preserve"
     style="font-style:normal;font-variant:normal;font-weight:400;font-size:8.86010647px;line-height:125%;font-family:Arial;text-align:start;letter-spacing:0px;word-spacing:0px;text-anchor:start;fill:#000000;fill-opacity:1;stroke:none"
     x="78.487526"
     y="121.95273"
     id="text3623"
     sodipodi:linespacing="125%"><tspan
       sodipodi:role="line"
       x="78.487526"
       y="121.95273"
       id="tspan3625"><tspan
         dx="0"
         dy="0"
         style="font-style:normal;font-variant:normal;font-weight:400;font-size:8.86010647px;font-family:Arial;fill:#000000"
         id="tspan3627">on </tspan></tspan></text>
  <text
     xml:space="preserve"
     style="font-style:normal;font-variant:normal;font-weight:400;font-size:8.86010647px;line-height:125%;font-family:Arial;text-align:start;letter-spacing:0px;word-spacing:0px;text-anchor:start;fill:#000000;fill-opacity:1;stroke:none"
     x="90.805145"
     y="121.95273"
     id="text3629"
     sodipodi:linespacing="125%"><tspan
       sodipodi:role="line"
       x="90.805145"
       y="121.95273"
       id="tspan3631"><tspan
         dx="0"
         dy="0"
         style="font-style:normal;font-variant:normal;font-weight:400;font-size:8.86010647px;font-family:Arial;fill:#000000"
         id="tspan3633">the same geomagnetism line</tspan></tspan></text>
  <flowRoot
     xml:space="preserve"
     id="flowRoot4371"
     style="fill:black;stroke:none;stroke-opacity:1;stroke-width:1px;stroke-linejoin:miter;stroke-linecap:butt;fill-opacity:1;font-family:sans-serif;font-style:normal;font-weight:normal;font-size:40px;line-height:125%;letter-spacing:0px;word-spacing:0px"><flowRegion
       id="flowRegion4373"><rect
         id="rect4375"
         width="972.0072"
         height="689.75128"
         x="-100.93921"
         y="-110.28543" /></flowRegion><flowPara
       id="flowPara4377" /></flowRoot></svg>
