<?xml version="1.0" encoding="UTF-8" standalone="no"?>
<svg
   xmlns:dc="http://purl.org/dc/elements/1.1/"
   xmlns:cc="http://creativecommons.org/ns#"
   xmlns:rdf="http://www.w3.org/1999/02/22-rdf-syntax-ns#"
   xmlns:svg="http://www.w3.org/2000/svg"
   xmlns="http://www.w3.org/2000/svg"
   xmlns:sodipodi="http://sodipodi.sourceforge.net/DTD/sodipodi-0.dtd"
   xmlns:inkscape="http://www.inkscape.org/namespaces/inkscape"
   version="1.0"
   width="213.05mm"
   height="102.31mm"
   id="svg3347"
   inkscape:version="0.91 r13725"
   viewBox="0 0 213.05 102.31"
   sodipodi:docname="GeomagnetismLineDetection.svg">
  <metadata
     id="metadata3511">
    <rdf:RDF>
      <cc:Work
         rdf:about="">
        <dc:format>image/svg+xml</dc:format>
        <dc:type
           rdf:resource="http://purl.org/dc/dcmitype/StillImage" />
        <dc:title></dc:title>
      </cc:Work>
    </rdf:RDF>
  </metadata>
  <sodipodi:namedview
     pagecolor="#ffffff"
     bordercolor="#666666"
     borderopacity="1"
     objecttolerance="10"
     gridtolerance="10"
     guidetolerance="10"
     inkscape:pageopacity="0"
     inkscape:pageshadow="2"
     inkscape:window-width="1536"
     inkscape:window-height="801"
     id="namedview3509"
     inkscape:document-units="mm"
     showgrid="false"
     inkscape:zoom="0.92066182"
     inkscape:cx="501.54997"
     inkscape:cy="148.89455"
     inkscape:window-x="1528"
     inkscape:window-y="-8"
     inkscape:window-maximized="1"
     inkscape:current-layer="svg3347" />
  <defs
     id="defs3349">
    <clipPath
       clipPathUnits="userSpaceOnUse"
       id="clipEmfPath1">
      <path
         d="m 166.528,40.9569 755.077,0 0,362.6111 -755.077,0 z"
         id="path3352"
         inkscape:connector-curvature="0" />
    </clipPath>
    <pattern
       id="EMFhbasepattern"
       patternUnits="userSpaceOnUse"
       width="6"
       height="6"
       x="0"
       y="0" />
  </defs>
  <path
     style="fill:#ffffff;fill-opacity:1;fill-rule:evenodd;stroke:none"
     d="m 114.36867,1.2228808 0,98.1027842 98.10298,0 0,-98.1027842 -98.10298,0 z"
     id="path3355"
     inkscape:connector-curvature="0" />
  <path
     style="fill:none;stroke:#000000;stroke-width:2.55042934px;stroke-linecap:butt;stroke-linejoin:miter;stroke-miterlimit:8;stroke-dasharray:none;stroke-opacity:1"
     clip-path="url(#clipEmfPath1)"
     d="m 558.394,45.6077 347.609,0 0,347.6083 -347.609,0 z"
     id="path3357"
     inkscape:connector-curvature="0"
     transform="matrix(0.28222222,0,0,0.28222222,-43.222528,-11.648625)" />
  <text
     xml:space="preserve"
     style="font-style:normal;font-variant:normal;font-weight:400;font-size:7.0731945px;line-height:125%;font-family:Arial;text-align:start;letter-spacing:0px;word-spacing:0px;text-anchor:start;fill:#000000;fill-opacity:1;stroke:none"
     x="152.45183"
     y="82.010864"
     id="text3359"
     sodipodi:linespacing="125%"><tspan
       sodipodi:role="line"
       x="152.45183"
       y="82.010864"
       id="tspan3361"><tspan
         dx="0"
         dy="0"
         style="font-style:normal;font-variant:normal;font-weight:400;font-size:7.0731945px;font-family:Arial;fill:#000000"
         id="tspan3363">S</tspan></tspan></text>
  <text
     xml:space="preserve"
     style="font-style:normal;font-variant:normal;font-weight:400;font-size:7.0731945px;line-height:125%;font-family:Arial;text-align:start;letter-spacing:0px;word-spacing:0px;text-anchor:start;fill:#000000;fill-opacity:1;stroke:none"
     x="155.71204"
     y="82.010864"
     id="text3365"
     sodipodi:linespacing="125%"><tspan
       sodipodi:role="line"
       x="155.71204"
       y="82.010864"
       id="tspan3367"><tspan
         dx="0"
         dy="0"
         style="font-style:normal;font-variant:normal;font-weight:400;font-size:7.0731945px;font-family:Arial;fill:#000000"
         id="tspan3369">earch area</tspan></tspan></text>
  <path
     style="fill:#ffffff;fill-opacity:1;fill-rule:evenodd;stroke:none"
     d="m 9.4488885,1.2228808 0,98.1027842 98.1029815,0 0,-98.1027842 -98.1029815,0 z"
     id="path3371"
     inkscape:connector-curvature="0" />
  <path
     style="fill:none;stroke:#000000;stroke-width:2.55042934px;stroke-linecap:butt;stroke-linejoin:miter;stroke-miterlimit:8;stroke-dasharray:none;stroke-opacity:1"
     clip-path="url(#clipEmfPath1)"
     d="m 186.631,45.6077 347.609,0 0,347.6083 -347.609,0 z"
     id="path3373"
     inkscape:connector-curvature="0"
     transform="matrix(0.28222222,0,0,0.28222222,-43.222528,-11.648625)" />
  <text
     xml:space="preserve"
     style="font-style:normal;font-variant:normal;font-weight:400;font-size:7.0731945px;line-height:125%;font-family:Arial;text-align:start;letter-spacing:0px;word-spacing:0px;text-anchor:start;fill:#000000;fill-opacity:1;stroke:none"
     x="33.744629"
     y="86.715324"
     id="text3375"
     sodipodi:linespacing="125%"><tspan
       sodipodi:role="line"
       x="33.744629"
       y="86.715324"
       id="tspan3377"><tspan
         dx="0"
         dy="0"
         style="font-style:normal;font-variant:normal;font-weight:400;font-size:7.0731945px;font-family:Arial;fill:#000000"
         id="tspan3379">T</tspan></tspan></text>
  <text
     xml:space="preserve"
     style="font-style:normal;font-variant:normal;font-weight:400;font-size:7.0731945px;line-height:125%;font-family:Arial;text-align:start;letter-spacing:0px;word-spacing:0px;text-anchor:start;fill:#000000;fill-opacity:1;stroke:none"
     x="37.301231"
     y="86.715324"
     id="text3381"
     sodipodi:linespacing="125%"><tspan
       sodipodi:role="line"
       x="37.301231"
       y="86.715324"
       id="tspan3383"><tspan
         dx="0"
         dy="0"
         style="font-style:normal;font-variant:normal;font-weight:400;font-size:7.0731945px;font-family:Arial;fill:#000000"
         id="tspan3385">emplate</tspan></tspan></text>
  <text
     xml:space="preserve"
     style="font-style:normal;font-variant:normal;font-weight:400;font-size:7.0731945px;line-height:125%;font-family:Arial;text-align:start;letter-spacing:0px;word-spacing:0px;text-anchor:start;fill:#000000;fill-opacity:1;stroke:none"
     x="37.038322"
     y="32.976692"
     id="text3387"
     sodipodi:linespacing="125%"><tspan
       sodipodi:role="line"
       x="37.038322"
       y="32.976692"
       id="tspan3389"><tspan
         dx="0"
         dy="0"
         style="font-style:normal;font-variant:normal;font-weight:400;font-size:7.0731945px;font-family:Arial;fill:#000000"
         id="tspan3391">Geomagnetism line</tspan></tspan></text>
  <path
     style="fill:none;stroke:#92d050;stroke-width:53.7090416px;stroke-linecap:butt;stroke-linejoin:miter;stroke-miterlimit:8;stroke-dasharray:none;stroke-opacity:1"
     clip-path="url(#clipEmfPath1)"
     d="m 214.761,242.141 c 14.253,-13.653 28.467,-27.305 49.921,-22.692 21.416,4.576 52.471,42.233 78.726,50.184 26.254,7.989 53.409,-4.576 78.726,-2.401 25.316,2.213 70.586,22.542 73.174,15.566"
     id="path3393"
     inkscape:connector-curvature="0"
     transform="matrix(0.28222222,0,0,0.28222222,-43.222528,-11.648625)" />
  <path
     style="fill:none;stroke:#00b0f0;stroke-width:1.39723527px;stroke-linecap:butt;stroke-linejoin:miter;stroke-miterlimit:8;stroke-dasharray:none;stroke-opacity:1"
     d="m 23.379094,62.494822 c 0.5715,-0.677334 1.148362,-1.354949 1.862949,-1.96342 0.719667,-0.603391 1.847145,-1.32334 2.450536,-1.667369 0.603109,-0.344029 0.899724,-0.312138 1.180253,-0.391442 0.275167,-0.08467 0.110913,-0.180058 0.486833,-0.100754 0.375638,0.08467 0.963225,0.100754 1.762478,0.592949 0.804333,0.486833 2.111587,1.58242 3.043202,2.355145 0.925971,0.767362 1.386558,1.338862 2.545645,2.254673 1.159086,0.915529 2.810369,2.095782 4.408593,3.239064 1.603869,1.148363 3.609622,2.767754 5.197405,3.635869 1.58242,0.862754 2.841977,1.095587 4.313484,1.566616 1.465862,0.476391 3.117144,1.032086 4.503984,1.275362 1.39192,0.24892 2.323256,0.201224 3.826366,0.201224 1.50312,0 3.29721,-0.02117 5.19205,-0.201224 1.89484,-0.179776 4.47745,-0.650804 6.17643,-0.878558 1.69898,-0.232833 3.10134,-0.4445 4.01715,-0.492195 0.91553,-0.04741 0.47611,-0.01581 1.47122,0.195862 0.99512,0.211667 4.50935,1.079782 4.50935,1.079782 1.50312,0.359833 2.85778,0.635 4.50907,1.079782 1.6462,0.439138 3.65731,1.127196 5.3879,1.571696 1.73059,0.43942 3.44537,1.026724 5.00154,1.079782 1.55081,0.0477 3.16484,-0.359833 4.30812,-0.788529 1.143288,-0.423615 2.926648,-2.646398 2.551008,-1.76784"
     id="path3395"
     inkscape:connector-curvature="0" />
  <path
     style="fill:#ff0000;fill-opacity:1;fill-rule:nonzero;stroke:#ff0000;stroke-width:0.00529256px;stroke-linecap:butt;stroke-linejoin:round;stroke-miterlimit:10;stroke-dasharray:none;stroke-opacity:1"
     d="m 61.093862,38.191255 -4.588652,33.121036 0.544972,0.07394 4.58865,-33.115391 -0.54497,-0.07959 z m -5.319043,32.660449 0.75692,2.244231 1.338863,-1.952978 -2.095783,-0.291253 z"
     id="path3397"
     inkscape:connector-curvature="0" />
  <path
     style="fill:none;stroke:#000000;stroke-width:0.71978784px;stroke-linecap:butt;stroke-linejoin:miter;stroke-miterlimit:8;stroke-dasharray:none;stroke-opacity:1"
     d="m 53.779508,69.687537 6.816794,0 0,6.816796 -6.816794,0 z"
     id="path3399"
     inkscape:connector-curvature="0" />
  <path
     style="fill:none;stroke:#92d050;stroke-width:53.7090416px;stroke-linecap:butt;stroke-linejoin:miter;stroke-miterlimit:8;stroke-dasharray:none;stroke-opacity:1"
     clip-path="url(#clipEmfPath1)"
     d="m 593.425,242.141 c 14.252,-13.653 28.467,-27.305 49.921,-22.692 21.416,4.576 52.471,42.233 78.726,50.184 26.254,7.989 53.409,-4.576 78.725,-2.401 25.317,2.213 70.587,22.542 73.175,15.566"
     id="path3401"
     inkscape:connector-curvature="0"
     transform="matrix(0.28222222,0,0,0.28222222,-43.222528,-11.648625)" />
  <path
     style="fill:none;stroke:#00b0f0;stroke-width:1.39723527px;stroke-linecap:butt;stroke-linejoin:miter;stroke-miterlimit:8;stroke-dasharray:none;stroke-opacity:1"
     d="m 130.24621,62.500184 c 0.57178,-0.677616 1.14328,-1.354949 1.86323,-1.968782 0.71966,-0.603391 1.85222,-1.32334 2.45561,-1.662007 0.60339,-0.349391 0.89973,-0.3175 1.17489,-0.391724 0.27517,-0.08467 0.11656,-0.179776 0.48712,-0.105834 0.381,0.08467 0.96322,0.105834 1.76756,0.592949 0.80461,0.486833 2.1065,1.587782 3.03784,2.360507 0.93161,0.762 1.38684,1.3335 2.551,2.254391 1.15401,0.910449 2.80529,2.096064 4.40352,3.239064 1.60895,1.143283 3.60962,2.762674 5.1974,3.630789 1.58778,0.867834 2.84734,1.100949 4.31857,1.566616 1.46078,0.476391 3.11206,1.037449 4.49862,1.280724 1.39728,0.243558 2.3289,0.201225 3.83201,0.201225 1.50312,0 3.29184,-0.02117 5.18668,-0.201225 1.89456,-0.179775 4.47746,-0.656166 6.1818,-0.878558 1.69361,-0.232833 3.10134,-0.4445 4.0115,-0.497557 0.92089,-0.04233 0.47639,-0.01044 1.47151,0.201224 0.99483,0.211667 4.50906,1.079782 4.50906,1.079782 1.50312,0.359834 2.85807,0.635 4.50935,1.0795 1.65128,0.434058 3.6624,1.122116 5.38791,1.566616 1.73594,0.4445 3.45073,1.026724 4.99618,1.079782 1.55589,0.05278 3.17556,-0.359833 4.31856,-0.783449 1.14328,-0.423333 2.92156,-2.646115 2.55101,-1.767558"
     id="path3403"
     inkscape:connector-curvature="0" />
  <path
     style="fill:#ff0000;fill-opacity:1;fill-rule:nonzero;stroke:#ff0000;stroke-width:0.01058512px;stroke-linecap:butt;stroke-linejoin:round;stroke-miterlimit:10;stroke-dasharray:none;stroke-opacity:1"
     d="m 166.43697,36.365559 -5.68424,34.433369 0.5399,0.09511 5.69468,-34.433369 -0.55034,-0.09511 z m -6.40418,33.956978 0.69878,2.265116 1.39728,-1.915725 -2.09606,-0.349391 z"
     id="path3405"
     inkscape:connector-curvature="0" />
  <path
     style="fill:none;stroke:#002060;stroke-width:0.71978784px;stroke-linecap:butt;stroke-linejoin:miter;stroke-miterlimit:8;stroke-dasharray:none;stroke-opacity:1"
     d="m 174.91549,69.814537 6.77446,0 0,6.816796 -6.77446,0 z"
     id="path3407"
     inkscape:connector-curvature="0" />
  <path
     style="fill:none;stroke:#ffc000;stroke-width:0.71978784px;stroke-linecap:butt;stroke-linejoin:miter;stroke-miterlimit:8;stroke-dasharray:none;stroke-opacity:1"
     d="m 165.47375,69.983871 6.77446,0 0,6.816795 -6.77446,0 z"
     id="path3409"
     inkscape:connector-curvature="0" />
  <path
     style="fill:none;stroke:#0070c0;stroke-width:0.71978784px;stroke-linecap:butt;stroke-linejoin:miter;stroke-miterlimit:8;stroke-dasharray:none;stroke-opacity:1"
     d="m 157.00539,69.687537 6.81708,0 0,6.774462 -6.81708,0 z"
     id="path3411"
     inkscape:connector-curvature="0" />
  <path
     style="fill:#ff0000;fill-opacity:1;fill-rule:nonzero;stroke:#ff0000;stroke-width:0.01058512px;stroke-linecap:butt;stroke-linejoin:round;stroke-miterlimit:10;stroke-dasharray:none;stroke-opacity:1"
     d="m 168.88215,36.407893 0.45494,35.555202 -0.55034,0 -0.45522,-35.54476 0.55062,-0.01044 z m 1.22766,35.184926 -1.02672,2.138116 -1.09023,-2.106507 2.11695,-0.03161 z"
     id="path3413"
     inkscape:connector-curvature="0" />
  <path
     style="fill:#ff0000;fill-opacity:1;fill-rule:nonzero;stroke:#ff0000;stroke-width:0.01058512px;stroke-linecap:butt;stroke-linejoin:round;stroke-miterlimit:10;stroke-dasharray:none;stroke-opacity:1"
     d="m 172.14209,36.365559 6.21369,35.047203 -0.53989,0.09539 -6.2134,-35.047485 0.5396,-0.09511 z m 6.92292,34.560369 -0.6669,2.265116 -1.41844,-1.89484 2.08534,-0.370276 z"
     id="path3415"
     inkscape:connector-curvature="0" />
  <path
     style="fill:none;stroke:#000000;stroke-width:0.55042601px;stroke-linecap:butt;stroke-linejoin:miter;stroke-miterlimit:8;stroke-dasharray:none;stroke-opacity:1"
     d="m 54.583841,61.769793 6.774461,0 0,6.816795 -6.774461,0 z"
     id="path3417"
     inkscape:connector-curvature="0" />
  <path
     style="fill:none;stroke:#000000;stroke-width:0.55042601px;stroke-linecap:butt;stroke-linejoin:miter;stroke-miterlimit:8;stroke-dasharray:none;stroke-opacity:1"
     d="m 55.134456,53.767382 6.774466,0 0,6.816795 -6.774466,0 z"
     id="path3419"
     inkscape:connector-curvature="0" />
  <path
     style="fill:none;stroke:#0070c0;stroke-width:0.55042601px;stroke-linecap:butt;stroke-linejoin:miter;stroke-miterlimit:8;stroke-dasharray:none;stroke-opacity:1"
     d="m 157.97934,61.642793 6.77446,0 0,6.816795 -6.77446,0 z"
     id="path3421"
     inkscape:connector-curvature="0" />
  <path
     style="fill:none;stroke:#0070c0;stroke-width:0.55042601px;stroke-linecap:butt;stroke-linejoin:miter;stroke-miterlimit:8;stroke-dasharray:none;stroke-opacity:1"
     d="m 159.67295,53.386382 6.77446,0 0,6.816795 -6.77446,0 z"
     id="path3423"
     inkscape:connector-curvature="0" />
  <path
     style="fill:none;stroke:#ffc000;stroke-width:0.55042601px;stroke-linecap:butt;stroke-linejoin:miter;stroke-miterlimit:8;stroke-dasharray:none;stroke-opacity:1"
     d="m 166.10875,61.642793 6.77446,0 0,6.816795 -6.77446,0 z"
     id="path3425"
     inkscape:connector-curvature="0" />
  <path
     style="fill:none;stroke:#ffc000;stroke-width:0.55042601px;stroke-linecap:butt;stroke-linejoin:miter;stroke-miterlimit:8;stroke-dasharray:none;stroke-opacity:1"
     d="m 164.96547,53.471048 6.81679,0 0,6.816796 -6.81679,0 z"
     id="path3427"
     inkscape:connector-curvature="0" />
  <path
     style="fill:none;stroke:#002060;stroke-width:0.55042601px;stroke-linecap:butt;stroke-linejoin:miter;stroke-miterlimit:8;stroke-dasharray:none;stroke-opacity:1"
     d="m 173.89949,61.685126 6.77446,0 0,6.816796 -6.77446,0 z"
     id="path3429"
     inkscape:connector-curvature="0" />
  <path
     style="fill:none;stroke:#002060;stroke-width:0.55042601px;stroke-linecap:butt;stroke-linejoin:miter;stroke-miterlimit:8;stroke-dasharray:none;stroke-opacity:1"
     d="m 171.90926,53.640382 6.8168,0 0,6.816795 -6.8168,0 z"
     id="path3431"
     inkscape:connector-curvature="0" />
  <text
     xml:space="preserve"
     style="font-style:normal;font-variant:normal;font-weight:400;font-size:7.0731945px;line-height:125%;font-family:Arial;text-align:start;letter-spacing:0px;word-spacing:0px;text-anchor:start;fill:#000000;fill-opacity:1;stroke:none"
     x="16.618212"
     y="49.64056"
     id="text3433"
     sodipodi:linespacing="125%"><tspan
       sodipodi:role="line"
       x="16.618212"
       y="49.64056"
       id="tspan3435"><tspan
         dx="0"
         dy="0"
         style="font-style:normal;font-variant:normal;font-weight:400;font-size:7.0731945px;font-family:Arial;fill:#000000"
         id="tspan3437">Aurora</tspan></tspan></text>
  <text
     xml:space="preserve"
     style="font-style:normal;font-variant:normal;font-weight:400;font-size:7.0731945px;line-height:125%;font-family:Arial;text-align:start;letter-spacing:0px;word-spacing:0px;text-anchor:start;fill:#000000;fill-opacity:1;stroke:none"
     x="148.24428"
     y="32.170506"
     id="text3439"
     sodipodi:linespacing="125%"><tspan
       sodipodi:role="line"
       x="148.24428"
       y="32.170506"
       id="tspan3441"><tspan
         dx="0"
         dy="0"
         style="font-style:normal;font-variant:normal;font-weight:400;font-size:7.0731945px;font-family:Arial;fill:#000000"
         id="tspan3443">Geomagnetism line</tspan></tspan></text>
  <path
     style="fill:none;stroke:#000000;stroke-width:0.33872372px;stroke-linecap:butt;stroke-linejoin:miter;stroke-miterlimit:8;stroke-dasharray:none;stroke-opacity:1"
     d="m 53.525508,74.619935 -4.763347,5.345571"
     id="path3445"
     inkscape:connector-curvature="0" />
  <path
     style="fill:#000000;fill-opacity:1;fill-rule:nonzero;stroke:#000000;stroke-width:0.01058512px;stroke-linecap:butt;stroke-linejoin:round;stroke-miterlimit:10;stroke-dasharray:none;stroke-opacity:1"
     d="m 64.819762,56.498446 91.381288,0 0,0.550333 -91.381288,0 0,-0.550333 z m 0.34939,1.3335 -2.11723,-1.058333 2.11723,-1.058616 0,2.116949 z m 90.672068,-2.116949 2.11695,1.058616 -2.11695,1.058333 0,-2.116949 z"
     id="path3447"
     inkscape:connector-curvature="0" />
  <path
     style="fill:#000000;fill-opacity:1;fill-rule:nonzero;stroke:#000000;stroke-width:0.01058512px;stroke-linecap:butt;stroke-linejoin:round;stroke-miterlimit:10;stroke-dasharray:none;stroke-opacity:1"
     d="m 64.481092,64.924191 91.381298,0 0,0.550333 -91.381298,0 0,-0.550333 z m 0.34911,1.3335 -2.11695,-1.058334 2.11695,-1.058615 0,2.116949 z m 90.672348,-2.116949 2.11695,1.058615 -2.11695,1.058334 0,-2.116949 z"
     id="path3449"
     inkscape:connector-curvature="0" />
  <path
     style="fill:#000000;fill-opacity:1;fill-rule:nonzero;stroke:#000000;stroke-width:0.00529256px;stroke-linecap:butt;stroke-linejoin:round;stroke-miterlimit:10;stroke-dasharray:none;stroke-opacity:1"
     d="m 63.337812,73.095935 91.375928,0 0,0.550333 -91.375928,0 0,-0.550333 z m 0.34939,1.3335 -2.11695,-1.058333 2.11695,-1.058616 0,2.116949 z m 90.672068,-2.116949 2.11695,1.058616 -2.11695,1.058333 0,-2.116949 z"
     id="path3451"
     inkscape:connector-curvature="0" />
  <text
     xml:space="preserve"
     style="font-style:normal;font-variant:normal;font-weight:400;font-size:7.0731945px;line-height:125%;font-family:Arial;text-align:start;letter-spacing:0px;word-spacing:0px;text-anchor:start;fill:#000000;fill-opacity:1;stroke:none"
     x="64.395256"
     y="52.669071"
     id="text3453"
     sodipodi:linespacing="125%"><tspan
       sodipodi:role="line"
       x="64.395256"
       y="52.669071"
       id="tspan3455"><tspan
         dx="0"
         dy="0"
         style="font-style:normal;font-variant:normal;font-weight:400;font-size:7.0731945px;font-family:Arial;fill:#000000"
         id="tspan3457">Calculation of similarity</tspan></tspan></text>
  <text
     xml:space="preserve"
     style="font-style:normal;font-variant:normal;font-weight:400;font-size:8.46666622px;line-height:125%;font-family:Arial;text-align:start;letter-spacing:0px;word-spacing:0px;text-anchor:start;fill:#000000;fill-opacity:1;stroke:none"
     x="13.414954"
     y="11.153935"
     id="text3459"
     sodipodi:linespacing="125%"><tspan
       sodipodi:role="line"
       x="13.414954"
       y="11.153935"
       id="tspan3461"><tspan
         dx="0"
         dy="0"
         style="font-style:normal;font-variant:normal;font-weight:400;font-size:8.46666622px;font-family:Arial;fill:#000000"
         id="tspan3463">Camera 1 image</tspan></tspan></text>
  <text
     xml:space="preserve"
     style="font-style:normal;font-variant:normal;font-weight:400;font-size:8.46666622px;line-height:125%;font-family:Arial;text-align:start;letter-spacing:0px;word-spacing:0px;text-anchor:start;fill:#000000;fill-opacity:1;stroke:none"
     x="117.13998"
     y="10.884196"
     id="text3465"
     sodipodi:linespacing="125%"><tspan
       sodipodi:role="line"
       x="117.13998"
       y="10.884196"
       id="tspan3467"><tspan
         dx="0"
         dy="0"
         style="font-style:normal;font-variant:normal;font-weight:400;font-size:8.46666622px;font-family:Arial;fill:#000000"
         id="tspan3469">Camera 2 image</tspan></tspan></text>
  <text
     xml:space="preserve"
     style="font-style:normal;font-variant:normal;font-weight:400;font-size:7.0731945px;line-height:125%;font-family:Arial;text-align:start;letter-spacing:0px;word-spacing:0px;text-anchor:start;fill:#000000;fill-opacity:1;stroke:none"
     x="14.376338"
     y="62.356556"
     id="text3471"
     sodipodi:linespacing="125%"><tspan
       sodipodi:role="line"
       x="14.376338"
       y="62.356556"
       id="tspan3473"><tspan
         dx="0"
         dy="0"
         style="font-style:normal;font-variant:normal;font-weight:400;font-size:7.0731945px;font-family:Arial;fill:#000000"
         id="tspan3475">Slide along </tspan></tspan></text>
  <text
     xml:space="preserve"
     style="font-style:normal;font-variant:normal;font-weight:400;font-size:7.0731945px;line-height:125%;font-family:Arial;text-align:start;letter-spacing:0px;word-spacing:0px;text-anchor:start;fill:#000000;fill-opacity:1;stroke:none"
     x="14.376338"
     y="70.824646"
     id="text3477"
     sodipodi:linespacing="125%"><tspan
       sodipodi:role="line"
       x="14.376338"
       y="70.824646"
       id="tspan3479"><tspan
         dx="0"
         dy="0"
         style="font-style:normal;font-variant:normal;font-weight:400;font-size:7.0731945px;font-family:Arial;fill:#000000"
         id="tspan3481">magnetism</tspan></tspan></text>
  <path
     style="fill:#000000;fill-opacity:1;fill-rule:nonzero;stroke:#000000;stroke-width:0.00529256px;stroke-linecap:butt;stroke-linejoin:round;stroke-miterlimit:4;stroke-dasharray:none;stroke-opacity:1"
     d="m 49.227828,75.302913 3.524955,-21.731394 -0.709224,-0.116275 -3.530318,21.736473 0.714587,0.111196 z m 4.17576,-21.260365 -0.719667,-2.307449 -1.407725,1.96342 2.127392,0.344029 z"
     id="path3483"
     inkscape:connector-curvature="0" />
  <text
     xml:space="preserve"
     style="font-style:normal;font-variant:normal;font-weight:400;font-size:7.0731945px;line-height:125%;font-family:Arial;text-align:start;letter-spacing:0px;word-spacing:0px;text-anchor:start;fill:#000000;fill-opacity:1;stroke:none"
     x="72.260193"
     y="84.261436"
     id="text3485"
     sodipodi:linespacing="125%"><tspan
       sodipodi:role="line"
       x="72.260193"
       y="84.261436"
       id="tspan3487"><tspan
         dx="0"
         dy="0"
         style="font-style:normal;font-variant:normal;font-weight:400;font-size:7.0731945px;font-family:Arial;fill:#000000"
         id="tspan3489">Lower end</tspan></tspan></text>
  <path
     style="fill:none;stroke:#000000;stroke-width:0.33872372px;stroke-linecap:butt;stroke-linejoin:miter;stroke-miterlimit:8;stroke-dasharray:none;stroke-opacity:1"
     d="m 81.194852,73.561602 2.76268,5.265984"
     id="path3491"
     inkscape:connector-curvature="0" />
  <path
     style="fill:#000000;fill-opacity:1;fill-rule:nonzero;stroke:#000000;stroke-width:0.03750632px;stroke-linecap:butt;stroke-linejoin:round;stroke-miterlimit:10;stroke-dasharray:none;stroke-opacity:1"
     clip-path="url(#clipEmfPath1)"
     d="m 166.978,300.726 7.801,0 0,1.95 -7.801,0 0,-1.95 z m 13.652,0 7.802,0 0,1.95 -7.802,0 0,-1.95 z m 13.653,0 7.801,0 0,1.95 -7.801,0 0,-1.95 z m 13.652,0 7.801,0 0,1.95 -7.801,0 0,-1.95 z m 13.652,0 7.802,0 0,1.95 -7.802,0 0,-1.95 z m 13.653,0 7.801,0 0,1.95 -7.801,0 0,-1.95 z m 13.652,0 7.801,0 0,1.95 -7.801,0 0,-1.95 z m 13.652,0 7.802,0 0,1.95 -7.802,0 0,-1.95 z m 13.653,0 7.801,0 0,1.95 -7.801,0 0,-1.95 z m 13.652,0 7.801,0 0,1.95 -7.801,0 0,-1.95 z m 13.652,0 7.801,0 0,1.95 -7.801,0 0,-1.95 z m 13.652,0 7.802,0 0,1.95 -7.802,0 0,-1.95 z m 13.653,0 7.801,0 0,1.95 -7.801,0 0,-1.95 z m 13.652,0 7.801,0 0,1.95 -7.801,0 0,-1.95 z m 13.652,0 7.802,0 0,1.95 -7.802,0 0,-1.95 z m 13.653,0 7.801,0 0,1.95 -7.801,0 0,-1.95 z m 13.652,0 7.801,0 0,1.95 -7.801,0 0,-1.95 z m 13.652,0 7.802,0 0,1.95 -7.802,0 0,-1.95 z m 13.652,0 7.802,0 0,1.95 -7.802,0 0,-1.95 z m 13.653,0 7.801,0 0,1.95 -7.801,0 0,-1.95 z m 13.652,0 7.801,0 0,1.95 -7.801,0 0,-1.95 z m 13.652,0 7.802,0 0,1.95 -7.802,0 0,-1.95 z m 13.653,0 7.801,0 0,1.95 -7.801,0 0,-1.95 z m 13.652,0 7.801,0 0,1.95 -7.801,0 0,-1.95 z m 13.652,0 7.802,0 0,1.95 -7.802,0 0,-1.95 z m 13.653,0 7.801,0 0,1.95 -7.801,0 0,-1.95 z m 13.652,0 7.801,0 0,1.95 -7.801,0 0,-1.95 z m 13.652,0 7.801,0 0,1.95 -7.801,0 0,-1.95 z m 13.652,0 7.802,0 0,1.95 -7.802,0 0,-1.95 z m 13.653,0 7.801,0 0,1.95 -7.801,0 0,-1.95 z m 13.652,0 7.801,0 0,1.95 -7.801,0 0,-1.95 z m 13.652,0 7.802,0 0,1.95 -7.802,0 0,-1.95 z m 13.653,0 7.801,0 0,1.95 -7.801,0 0,-1.95 z m 13.652,0 7.801,0 0,1.95 -7.801,0 0,-1.95 z m 13.652,0 7.802,0 0,1.95 -7.802,0 0,-1.95 z m 13.653,0 7.801,0 0,1.95 -7.801,0 0,-1.95 z m 13.652,0 7.801,0 0,1.95 -7.801,0 0,-1.95 z m 13.652,0 7.801,0 0,1.95 -7.801,0 0,-1.95 z m 13.652,0 7.802,0 0,1.95 -7.802,0 0,-1.95 z m 13.653,0 7.801,0 0,1.95 -7.801,0 0,-1.95 z m 13.652,0 7.801,0 0,1.95 -7.801,0 0,-1.95 z m 13.652,0 7.802,0 0,1.95 -7.802,0 0,-1.95 z m 13.653,0 7.801,0 0,1.95 -7.801,0 0,-1.95 z m 13.652,0 7.801,0 0,1.95 -7.801,0 0,-1.95 z m 13.652,0 7.802,0 0,1.95 -7.802,0 0,-1.95 z m 13.653,0 7.801,0 0,1.95 -7.801,0 0,-1.95 z m 13.652,0 7.801,0 0,1.95 -7.801,0 0,-1.95 z m 13.652,0 7.801,0 0,1.95 -7.801,0 0,-1.95 z m 13.652,0 7.802,0 0,1.95 -7.802,0 0,-1.95 z m 13.653,0 7.801,0 0,1.95 -7.801,0 0,-1.95 z m 13.652,0 7.801,0 0,1.95 -7.801,0 0,-1.95 z m 13.652,0 7.802,0 0,1.95 -7.802,0 0,-1.95 z m 13.653,0 7.801,0 0,1.95 -7.801,0 0,-1.95 z m 13.652,0 7.801,0 0,1.95 -7.801,0 0,-1.95 z m 13.652,0 7.802,0 0,1.95 -7.802,0 0,-1.95 z m 13.653,0 1.987,0 0,1.95 -1.987,0 0,-1.95 z"
     id="path3493"
     inkscape:connector-curvature="0"
     transform="matrix(0.28222222,0,0,0.28222222,-43.222528,-11.648625)" />
  <text
     xml:space="preserve"
     style="font-style:normal;font-variant:normal;font-weight:400;font-size:7.0731945px;line-height:125%;font-family:Arial;text-align:start;letter-spacing:0px;word-spacing:0px;text-anchor:start;fill:#000000;fill-opacity:1;stroke:none"
     x="14.816718"
     y="96.186058"
     id="text3495"
     sodipodi:linespacing="125%"><tspan
       sodipodi:role="line"
       x="14.816718"
       y="96.186058"
       id="tspan3497"><tspan
         dx="0"
         dy="0"
         style="font-style:normal;font-variant:normal;font-weight:400;font-size:7.0731945px;font-family:Arial;fill:#000000"
         id="tspan3499">Epipolar</tspan></tspan></text>
  <text
     xml:space="preserve"
     style="font-style:normal;font-variant:normal;font-weight:400;font-size:7.0731945px;line-height:125%;font-family:Arial;text-align:start;letter-spacing:0px;word-spacing:0px;text-anchor:start;fill:#000000;fill-opacity:1;stroke:none"
     x="42.676743"
     y="96.186058"
     id="text3501"
     sodipodi:linespacing="125%"><tspan
       sodipodi:role="line"
       x="42.676743"
       y="96.186058"
       id="tspan3503"><tspan
         dx="0"
         dy="0"
         style="font-style:normal;font-variant:normal;font-weight:400;font-size:7.0731945px;font-family:Arial;fill:#000000"
         id="tspan3505">line</tspan></tspan></text>
  <path
     style="fill:none;stroke:#000000;stroke-width:0.16936186px;stroke-linecap:butt;stroke-linejoin:miter;stroke-miterlimit:8;stroke-dasharray:none;stroke-opacity:1"
     d="M 19.451972,90.201425 13.323234,73.857935"
     id="path3507"
     inkscape:connector-curvature="0" />
</svg>
