<?xml version="1.0" encoding="UTF-8" standalone="no"?>
<!-- Created with Inkscape (http://www.inkscape.org/) -->

<svg
   xmlns:dc="http://purl.org/dc/elements/1.1/"
   xmlns:cc="http://creativecommons.org/ns#"
   xmlns:rdf="http://www.w3.org/1999/02/22-rdf-syntax-ns#"
   xmlns:svg="http://www.w3.org/2000/svg"
   xmlns="http://www.w3.org/2000/svg"
   xmlns:sodipodi="http://sodipodi.sourceforge.net/DTD/sodipodi-0.dtd"
   xmlns:inkscape="http://www.inkscape.org/namespaces/inkscape"
   width="210mm"
   height="297mm"
   viewBox="0 0 744.09448819 1052.3622047"
   id="svg2"
   version="1.1"
   inkscape:version="0.91 r13725"
   sodipodi:docname="transform_aft.svg">
  <defs
     id="defs4">
    <clipPath
       id="clipEmfPath1"
       clipPathUnits="userSpaceOnUse">
      <path
         inkscape:connector-curvature="0"
         id="path3341"
         d="m 8.40141,-9.15154 383.76459,0 0,286.39854 -383.76459,0 z" />
    </clipPath>
    <pattern
       y="0"
       x="0"
       height="6"
       width="6"
       patternUnits="userSpaceOnUse"
       id="EMFhbasepattern" />
  </defs>
  <sodipodi:namedview
     id="base"
     pagecolor="#ffffff"
     bordercolor="#666666"
     borderopacity="1.0"
     inkscape:pageopacity="0.0"
     inkscape:pageshadow="2"
     inkscape:zoom="0.7"
     inkscape:cx="189.95869"
     inkscape:cy="476.28766"
     inkscape:document-units="px"
     inkscape:current-layer="layer1"
     showgrid="false"
     inkscape:window-width="958"
     inkscape:window-height="1008"
     inkscape:window-x="1913"
     inkscape:window-y="0"
     inkscape:window-maximized="0" />
  <metadata
     id="metadata7">
    <rdf:RDF>
      <cc:Work
         rdf:about="">
        <dc:format>image/svg+xml</dc:format>
        <dc:type
           rdf:resource="http://purl.org/dc/dcmitype/StillImage" />
        <dc:title></dc:title>
      </cc:Work>
    </rdf:RDF>
  </metadata>
  <g
     inkscape:label="レイヤー 1"
     inkscape:groupmode="layer"
     id="layer1">
    <g
       id="g3425"
       transform="matrix(6.6877313,0,0,6.6877313,-5.3023342,235.09012)">
      <path
         inkscape:connector-curvature="0"
         id="path3344"
         d="m 7.5789367,16.428099 34.9731193,0 0,35.01565 -34.9731193,0 z"
         style="fill:none;stroke:#ff0000;stroke-width:0.55042601px;stroke-linecap:butt;stroke-linejoin:miter;stroke-miterlimit:8;stroke-dasharray:none;stroke-opacity:1" />
      <path
         transform="scale(0.28222222,0.28222222)"
         inkscape:connector-curvature="0"
         id="path3346"
         d="m 10.2017,40.0567 159.4773,0 0,159.4773 -159.4773,0 z"
         clip-path="url(#clipEmfPath1)"
         style="fill:none;stroke:#000000;stroke-width:2.55042934px;stroke-linecap:butt;stroke-linejoin:miter;stroke-miterlimit:8;stroke-dasharray:none;stroke-opacity:1" />
      <path
         inkscape:connector-curvature="0"
         id="path3348"
         d="M 37.899904,11.093196 12.067032,55.836538"
         style="fill:none;stroke:#0070c0;stroke-width:0.71978784px;stroke-linecap:butt;stroke-linejoin:miter;stroke-miterlimit:8;stroke-dasharray:none;stroke-opacity:1" />
      <text
         sodipodi:linespacing="125%"
         id="text3350"
         y="64.669586"
         x="65.858994"
         style="font-style:normal;font-variant:normal;font-weight:400;font-size:6.3499999px;line-height:125%;font-family:Arial;text-align:start;letter-spacing:0px;word-spacing:0px;text-anchor:start;fill:#000000;fill-opacity:1;stroke:none"
         xml:space="preserve"><tspan
           id="tspan3352"
           y="64.669586"
           x="65.858994"
           sodipodi:role="line"><tspan
             id="tspan3354"
             style="font-style:normal;font-variant:normal;font-weight:400;font-size:6.3499999px;font-family:Arial;fill:#000000"
             dy="0"
             dx="0">Right </tspan></tspan></text>
      <text
         sodipodi:linespacing="125%"
         id="text3356"
         y="64.669586"
         x="82.456459"
         style="font-style:normal;font-variant:normal;font-weight:400;font-size:6.3499999px;line-height:125%;font-family:Arial;text-align:start;letter-spacing:0px;word-spacing:0px;text-anchor:start;fill:#000000;fill-opacity:1;stroke:none"
         xml:space="preserve"><tspan
           id="tspan3358"
           y="64.669586"
           x="82.456459"
           sodipodi:role="line"><tspan
             id="tspan3360"
             style="font-style:normal;font-variant:normal;font-weight:400;font-size:6.3499999px;font-family:Arial;fill:#000000"
             dy="0"
             dx="0">block</tspan></tspan></text>
      <text
         sodipodi:linespacing="125%"
         id="text3362"
         y="65.081375"
         x="11.641126"
         style="font-style:normal;font-variant:normal;font-weight:400;font-size:6.3499999px;line-height:125%;font-family:Arial;text-align:start;letter-spacing:0px;word-spacing:0px;text-anchor:start;fill:#000000;fill-opacity:1;stroke:none"
         xml:space="preserve"><tspan
           id="tspan3364"
           y="65.081375"
           x="11.641126"
           sodipodi:role="line"><tspan
             id="tspan3366"
             style="font-style:normal;font-variant:normal;font-weight:400;font-size:6.3499999px;font-family:Arial;fill:#000000"
             dy="0"
             dx="0">Left block</tspan></tspan></text>
      <text
         sodipodi:linespacing="125%"
         id="text3368"
         y="5.7057648"
         x="33.395927"
         style="font-style:normal;font-variant:normal;font-weight:400;font-size:6.3499999px;line-height:125%;font-family:Arial;text-align:start;letter-spacing:0px;word-spacing:0px;text-anchor:start;fill:#000000;fill-opacity:1;stroke:none"
         xml:space="preserve"><tspan
           id="tspan3370"
           y="5.7057648"
           x="33.395927"
           sodipodi:role="line"><tspan
             id="tspan3372"
             style="font-style:normal;font-variant:normal;font-weight:400;font-size:6.3499999px;font-family:Arial;fill:#000000"
             dy="0"
             dx="0">Geomagnetism</tspan></tspan></text>
      <path
         inkscape:connector-curvature="0"
         id="path3374"
         d="M 34.90976,16.978517 52.449307,6.2875724"
         style="fill:none;stroke:#000000;stroke-width:0.16936186px;stroke-linecap:butt;stroke-linejoin:miter;stroke-miterlimit:8;stroke-dasharray:none;stroke-opacity:1" />
      <path
         inkscape:connector-curvature="0"
         id="path3376"
         d="M 93.445471,13.294896 57.943044,6.4992673"
         style="fill:none;stroke:#000000;stroke-width:0.16936186px;stroke-linecap:butt;stroke-linejoin:miter;stroke-miterlimit:8;stroke-dasharray:none;stroke-opacity:1" />
      <path
         inkscape:connector-curvature="0"
         id="path3378"
         d="m 23.858841,33.787644 c 0,-0.8255 0.677446,-1.503115 1.503087,-1.503115 0.830947,0 1.503088,0.677615 1.503088,1.503115 0,0.830863 -0.672141,1.503116 -1.503088,1.503116 -0.825641,0 -1.503087,-0.672253 -1.503087,-1.503116 z"
         style="fill:#000000;fill-opacity:1;fill-rule:evenodd;stroke:none" />
      <path
         inkscape:connector-curvature="0"
         id="path3380"
         d="m 25.637151,11.558947 0,2.201701 -0.550418,0 0,-2.201701 0.550418,0 z m 0,3.852983 0,2.2017 -0.550418,0 0,-2.2017 0.550418,0 z m 0,3.852982 0,2.2017 -0.550418,0 0,-2.2017 0.550418,0 z m 0,3.852983 0,2.2017 -0.550418,0 0,-2.2017 0.550418,0 z m 0,3.852982 0,2.201587 -0.550418,0 0,-2.201587 0.550418,0 z m 0,3.85287 0,2.201897 -0.550418,0 0,-2.201897 0.550418,0 z m 0,3.85318 0,2.201615 -0.550418,0 0,-2.201615 0.550418,0 z m 0,3.852897 0,2.201616 -0.550418,0 0,-2.201616 0.550418,0 z m 0,3.852898 0,2.201898 -0.550418,0 0,-2.201898 0.550418,0 z m 0,3.85318 0,2.201616 -0.550418,0 0,-2.201616 0.550418,0 z m 0,3.852898 0,2.201616 -0.550418,0 0,-2.201616 0.550418,0 z m 0,3.852898 0,2.201615 -0.550418,0 0,-2.201615 0.550418,0 z"
         style="fill:#000000;fill-opacity:1;fill-rule:nonzero;stroke:#000000;stroke-width:0.00529256px;stroke-linecap:butt;stroke-linejoin:round;stroke-miterlimit:10;stroke-dasharray:none;stroke-opacity:1" />
      <path
         inkscape:connector-curvature="0"
         id="path3382"
         d="m 26.129347,20.445137 c 1.688338,-0.788585 3.710009,-0.03175 4.514624,1.693644 0.121638,0.259334 0.211667,0.523946 0.264442,0.799169"
         style="fill:none;stroke:#0070c0;stroke-width:0.52925581px;stroke-linecap:butt;stroke-linejoin:miter;stroke-miterlimit:8;stroke-dasharray:none;stroke-opacity:1" />
      <text
         sodipodi:linespacing="125%"
         id="text3384"
         y="19.528122"
         x="28.879534"
         style="font-style:normal;font-variant:normal;font-weight:400;font-size:4.95652771px;line-height:125%;font-family:'Cambria Math';text-align:start;letter-spacing:0px;word-spacing:0px;text-anchor:start;fill:#000000;fill-opacity:1;stroke:none"
         xml:space="preserve"><tspan
           y="19.528122"
           x="28.879534"
           sodipodi:role="line"
           id="tspan3600"><tspan
             id="tspan3388"
             style="font-style:normal;font-variant:normal;font-weight:400;font-size:4.95652771px;font-family:'Cambria Math';fill:#0070c0"
             dx="0"
             dy="0">α</tspan></tspan></text>
      <text
         sodipodi:linespacing="125%"
         id="text3390"
         y="72.787666"
         x="35.533623"
         style="font-style:normal;font-variant:normal;font-weight:400;font-size:6.3499999px;line-height:125%;font-family:Arial;text-align:start;letter-spacing:0px;word-spacing:0px;text-anchor:start;fill:#000000;fill-opacity:1;stroke:none"
         xml:space="preserve"><tspan
           id="tspan3392"
           y="72.787666"
           x="35.533623"
           sodipodi:role="line"><tspan
             id="tspan3394"
             style="font-style:normal;font-variant:normal;font-weight:400;font-size:6.3499999px;font-family:Arial;fill:#000000"
             dy="0"
             dx="0">Center of block</tspan></tspan></text>
      <path
         inkscape:connector-curvature="0"
         id="path3396"
         d="m 28.879518,19.528113 m 0,0 M 26.145236,33.427811 52.205749,67.86118"
         style="fill:none;stroke:#000000;stroke-width:0.16936186px;stroke-linecap:butt;stroke-linejoin:miter;stroke-miterlimit:8;stroke-dasharray:none;stroke-opacity:1" />
      <path
         inkscape:connector-curvature="0"
         id="path3398"
         d="M 81.706438,34.020478 54.852147,67.850456"
         style="fill:none;stroke:#000000;stroke-width:0.16936186px;stroke-linecap:butt;stroke-linejoin:miter;stroke-miterlimit:8;stroke-dasharray:none;stroke-opacity:1" />
      <path
         inkscape:connector-curvature="0"
         id="path3400"
         d="m 64.103391,16.724489 34.97326,0 0,34.97326 -34.97326,0 z"
         style="fill:none;stroke:#ff0000;stroke-width:0.55042601px;stroke-linecap:butt;stroke-linejoin:miter;stroke-miterlimit:8;stroke-dasharray:none;stroke-opacity:1" />
      <path
         transform="scale(0.28222222,0.28222222)"
         inkscape:connector-curvature="0"
         id="path3402"
         d="m 189.332,198.483 39.869,-159.4764 160.715,0 -39.87,159.4764 z"
         clip-path="url(#clipEmfPath1)"
         style="fill:none;stroke:#000000;stroke-width:2.55042934px;stroke-linecap:butt;stroke-linejoin:miter;stroke-miterlimit:8;stroke-dasharray:none;stroke-opacity:1" />
      <path
         inkscape:connector-curvature="0"
         id="path3404"
         d="m 82.034662,11.008529 0,2.201701 -0.550333,0 0,-2.201701 0.550333,0 z m 0,3.852983 0,2.2017 -0.550333,0 0,-2.2017 0.550333,0 z m 0,3.852982 0,2.2017 -0.550333,0 0,-2.2017 0.550333,0 z m 0,3.852983 0,2.2017 -0.550333,0 0,-2.2017 0.550333,0 z m 0,3.852982 0,2.201672 -0.550333,0 0,-2.201672 0.550333,0 z m 0,3.852954 0,2.201616 -0.550333,0 0,-2.201616 0.550333,0 z m 0,3.852898 0,2.201898 -0.550333,0 0,-2.201898 0.550333,0 z m 0,3.85318 0,2.201616 -0.550333,0 0,-2.201616 0.550333,0 z m 0,3.852898 0,2.201615 -0.550333,0 0,-2.201615 0.550333,0 z m 0,3.852898 0,2.201897 -0.550333,0 0,-2.201897 0.550333,0 z m 0,3.85318 0,2.201615 -0.550333,0 0,-2.201615 0.550333,0 z m 0,3.852897 0,2.201616 -0.550333,0 0,-2.201616 0.550333,0 z"
         style="fill:#000000;fill-opacity:1;fill-rule:nonzero;stroke:#000000;stroke-width:0.01058512px;stroke-linecap:butt;stroke-linejoin:round;stroke-miterlimit:10;stroke-dasharray:none;stroke-opacity:1" />
      <path
         inkscape:connector-curvature="0"
         id="path3406"
         d="M 94.641529,10.923834 68.803238,55.667204"
         style="fill:none;stroke:#0070c0;stroke-width:0.71978784px;stroke-linecap:butt;stroke-linejoin:miter;stroke-miterlimit:8;stroke-dasharray:none;stroke-opacity:1" />
      <path
         inkscape:connector-curvature="0"
         id="path3408"
         d="m 82.203996,21.551307 c 1.683173,-0.793891 3.704731,-0.03178 4.519788,1.693616 0.116558,0.254028 0.201225,0.529251 0.254,0.804446"
         style="fill:none;stroke:#0070c0;stroke-width:0.52925581px;stroke-linecap:butt;stroke-linejoin:miter;stroke-miterlimit:8;stroke-dasharray:none;stroke-opacity:1" />
      <text
         sodipodi:linespacing="125%"
         id="text3410"
         y="20.659283"
         x="85.197281"
         style="font-style:normal;font-variant:normal;font-weight:400;font-size:4.95652771px;line-height:125%;font-family:'Cambria Math';text-align:start;letter-spacing:0px;word-spacing:0px;text-anchor:start;fill:#000000;fill-opacity:1;stroke:none"
         xml:space="preserve"><tspan
           id="tspan3412"
           y="20.659283"
           x="85.197281"
           sodipodi:role="line"><tspan
             id="tspan3414"
             style="font-style:normal;font-variant:normal;font-weight:400;font-size:4.95652771px;font-family:'Cambria Math';fill:#0070c0">α</tspan></tspan></text>
      <path
         inkscape:connector-curvature="0"
         id="path3416"
         d="m 85.197244,20.659288 m 0,0 M 80.51038,33.216144 c 0,-0.815057 0.677333,-1.481948 1.503116,-1.481948 0.836224,0 1.503115,0.666891 1.503115,1.481948 0,0.8255 -0.666891,1.481949 -1.503115,1.481949 -0.825783,0 -1.503116,-0.656449 -1.503116,-1.481949 z"
         style="fill:#000000;fill-opacity:1;fill-rule:evenodd;stroke:none" />
    </g>
  </g>
</svg>
