<?xml version="1.0" encoding="UTF-8" standalone="no"?>
<!-- Created with Inkscape (http://www.inkscape.org/) -->

<svg
   xmlns:dc="http://purl.org/dc/elements/1.1/"
   xmlns:cc="http://creativecommons.org/ns#"
   xmlns:rdf="http://www.w3.org/1999/02/22-rdf-syntax-ns#"
   xmlns:svg="http://www.w3.org/2000/svg"
   xmlns="http://www.w3.org/2000/svg"
   xmlns:sodipodi="http://sodipodi.sourceforge.net/DTD/sodipodi-0.dtd"
   xmlns:inkscape="http://www.inkscape.org/namespaces/inkscape"
   width="210mm"
   height="297mm"
   viewBox="0 0 744.09448819 1052.3622047"
   id="svg3464"
   version="1.1"
   inkscape:version="0.91 r13725"
   sodipodi:docname="transform_bef.svg">
  <defs
     id="defs3466">
    <clipPath
       id="clipEmfPath1"
       clipPathUnits="userSpaceOnUse">
      <path
         inkscape:connector-curvature="0"
         id="path3477"
         d="m 8.25139,-9.00152 365.16161,0 0,286.24852 -365.16161,0 z" />
    </clipPath>
    <pattern
       y="0"
       x="0"
       height="6"
       width="6"
       patternUnits="userSpaceOnUse"
       id="EMFhbasepattern" />
  </defs>
  <sodipodi:namedview
     id="base"
     pagecolor="#ffffff"
     bordercolor="#666666"
     borderopacity="1.0"
     inkscape:pageopacity="0.0"
     inkscape:pageshadow="2"
     inkscape:zoom="0.7"
     inkscape:cx="578.66001"
     inkscape:cy="452.4063"
     inkscape:document-units="px"
     inkscape:current-layer="layer1"
     showgrid="false"
     inkscape:window-width="958"
     inkscape:window-height="1008"
     inkscape:window-x="2873"
     inkscape:window-y="0"
     inkscape:window-maximized="0" />
  <metadata
     id="metadata3469">
    <rdf:RDF>
      <cc:Work
         rdf:about="">
        <dc:format>image/svg+xml</dc:format>
        <dc:type
           rdf:resource="http://purl.org/dc/dcmitype/StillImage" />
        <dc:title></dc:title>
      </cc:Work>
    </rdf:RDF>
  </metadata>
  <g
     inkscape:label="レイヤー 1"
     inkscape:groupmode="layer"
     id="layer1">
    <g
       id="g3561"
       transform="matrix(6.5753699,0,0,6.741979,-1.3280292,256.3178)">
      <path
         inkscape:connector-curvature="0"
         id="path3480"
         d="m 65.20434,17.020876 35.01559,0 0,34.973203 -35.01559,0 z"
         style="fill:none;stroke:#ff0000;stroke-width:0.55042601px;stroke-linecap:butt;stroke-linejoin:miter;stroke-miterlimit:8;stroke-dasharray:none;stroke-opacity:1" />
      <path
         inkscape:connector-curvature="0"
         id="path3482"
         d="m 8.2987444,16.470429 35.0155936,0 0,35.01565 -35.0155936,0 z"
         style="fill:none;stroke:#ff0000;stroke-width:0.55042601px;stroke-linecap:butt;stroke-linejoin:miter;stroke-miterlimit:8;stroke-dasharray:none;stroke-opacity:1" />
      <path
         transform="matrix(0.28222222,0,0,0.28222222,0,-3.0910164e-6)"
         inkscape:connector-curvature="0"
         id="path3484"
         d="m 10.2017,40.0567 159.4773,0 0,159.4773 -159.4773,0 z"
         clip-path="url(#clipEmfPath1)"
         style="fill:none;stroke:#000000;stroke-width:2.55042934px;stroke-linecap:butt;stroke-linejoin:miter;stroke-miterlimit:8;stroke-dasharray:none;stroke-opacity:1" />
      <path
         inkscape:connector-curvature="0"
         id="path3486"
         d="M 37.899904,11.093193 12.067032,55.836535"
         style="fill:none;stroke:#0070c0;stroke-width:0.71978784px;stroke-linecap:butt;stroke-linejoin:miter;stroke-miterlimit:8;stroke-dasharray:none;stroke-opacity:1" />
      <path
         transform="matrix(0.28222222,0,0,0.28222222,0,-3.0910164e-6)"
         inkscape:connector-curvature="0"
         id="path3488"
         d="m 211.986,40.0567 159.477,0 0,159.4773 -159.477,0 z"
         clip-path="url(#clipEmfPath1)"
         style="fill:none;stroke:#000000;stroke-width:2.55042934px;stroke-linecap:butt;stroke-linejoin:miter;stroke-miterlimit:8;stroke-dasharray:none;stroke-opacity:1" />
      <path
         inkscape:connector-curvature="0"
         id="path3490"
         d="M 89.116182,11.558944 74.476751,56.566926"
         style="fill:none;stroke:#0070c0;stroke-width:0.71978784px;stroke-linecap:butt;stroke-linejoin:miter;stroke-miterlimit:8;stroke-dasharray:none;stroke-opacity:1" />
      <text
         sodipodi:linespacing="125%"
         id="text3492"
         y="64.690659"
         x="65.870422"
         style="font-style:normal;font-variant:normal;font-weight:400;font-size:6.3499999px;line-height:125%;font-family:Arial;text-align:start;letter-spacing:0px;word-spacing:0px;text-anchor:start;fill:#000000;fill-opacity:1;stroke:none"
         xml:space="preserve"><tspan
           id="tspan3494"
           y="64.690659"
           x="65.870422"
           sodipodi:role="line"><tspan
             id="tspan3496"
             style="font-style:normal;font-variant:normal;font-weight:400;font-size:6.3499999px;font-family:Arial;fill:#000000"
             dy="0"
             dx="0">Right </tspan></tspan></text>
      <text
         sodipodi:linespacing="125%"
         id="text3498"
         y="64.690659"
         x="82.467888"
         style="font-style:normal;font-variant:normal;font-weight:400;font-size:6.3499999px;line-height:125%;font-family:Arial;text-align:start;letter-spacing:0px;word-spacing:0px;text-anchor:start;fill:#000000;fill-opacity:1;stroke:none"
         xml:space="preserve"><tspan
           id="tspan3500"
           y="64.690659"
           x="82.467888"
           sodipodi:role="line"><tspan
             id="tspan3502"
             style="font-style:normal;font-variant:normal;font-weight:400;font-size:6.3499999px;font-family:Arial;fill:#000000"
             dy="0"
             dx="0">block</tspan></tspan></text>
      <text
         sodipodi:linespacing="125%"
         id="text3504"
         y="65.102455"
         x="11.652546"
         style="font-style:normal;font-variant:normal;font-weight:400;font-size:6.3499999px;line-height:125%;font-family:Arial;text-align:start;letter-spacing:0px;word-spacing:0px;text-anchor:start;fill:#000000;fill-opacity:1;stroke:none"
         xml:space="preserve"><tspan
           id="tspan3506"
           y="65.102455"
           x="11.652546"
           sodipodi:role="line"><tspan
             id="tspan3508"
             style="font-style:normal;font-variant:normal;font-weight:400;font-size:6.3499999px;font-family:Arial;fill:#000000"
             dy="0"
             dx="0">Left block</tspan></tspan></text>
      <text
         sodipodi:linespacing="125%"
         id="text3510"
         y="5.7268496"
         x="33.407349"
         style="font-style:normal;font-variant:normal;font-weight:400;font-size:6.3499999px;line-height:125%;font-family:Arial;text-align:start;letter-spacing:0px;word-spacing:0px;text-anchor:start;fill:#000000;fill-opacity:1;stroke:none"
         xml:space="preserve"><tspan
           id="tspan3512"
           y="5.7268496"
           x="33.407349"
           sodipodi:role="line"><tspan
             id="tspan3514"
             style="font-style:normal;font-variant:normal;font-weight:400;font-size:6.3499999px;font-family:Arial;fill:#000000"
             dy="0"
             dx="0">Geomagnetism</tspan></tspan></text>
      <path
         inkscape:connector-curvature="0"
         id="path3516"
         d="M 34.90976,17.01557 52.446484,6.3299027"
         style="fill:none;stroke:#000000;stroke-width:0.16936186px;stroke-linecap:butt;stroke-linejoin:miter;stroke-miterlimit:8;stroke-dasharray:none;stroke-opacity:1" />
      <path
         inkscape:connector-curvature="0"
         id="path3518"
         d="M 88.682124,13.056726 57.943044,6.5415976"
         style="fill:none;stroke:#000000;stroke-width:0.16936186px;stroke-linecap:butt;stroke-linejoin:miter;stroke-miterlimit:8;stroke-dasharray:none;stroke-opacity:1" />
      <path
         inkscape:connector-curvature="0"
         id="path3520"
         d="m 23.858841,33.787641 c 0,-0.828322 0.674821,-1.503115 1.503087,-1.503115 0.830947,0 1.503088,0.674793 1.503088,1.503115 0,0.830863 -0.672141,1.503116 -1.503088,1.503116 -0.828266,0 -1.503087,-0.672253 -1.503087,-1.503116 z"
         style="fill:#000000;fill-opacity:1;fill-rule:evenodd;stroke:none" />
      <path
         inkscape:connector-curvature="0"
         id="path3522"
         d="m 80.468047,33.851141 c 0,-0.817597 0.674793,-1.481949 1.503115,-1.481949 0.830862,0 1.503116,0.664352 1.503116,1.481949 0,0.82042 -0.672254,1.481949 -1.503116,1.481949 -0.828322,0 -1.503115,-0.661529 -1.503115,-1.481949 z"
         style="fill:#000000;fill-opacity:1;fill-rule:evenodd;stroke:none" />
      <path
         inkscape:connector-curvature="0"
         id="path3524"
         d="m 25.679485,11.558944 0,2.2017 -0.550418,0 0,-2.2017 0.550418,0 z m 0,3.852983 0,2.2017 -0.550418,0 0,-2.2017 0.550418,0 z m 0,3.852982 0,2.2017 -0.550418,0 0,-2.2017 0.550418,0 z m 0,3.852983 0,2.2017 -0.550418,0 0,-2.2017 0.550418,0 z m 0,3.852982 0,2.201587 -0.550418,0 0,-2.201587 0.550418,0 z m 0,3.85287 0,2.201897 -0.550418,0 0,-2.201897 0.550418,0 z m 0,3.85318 0,2.201615 -0.550418,0 0,-2.201615 0.550418,0 z m 0,3.852897 0,2.201616 -0.550418,0 0,-2.201616 0.550418,0 z m 0,3.852898 0,2.201898 -0.550418,0 0,-2.201898 0.550418,0 z m 0,3.85318 0,2.201616 -0.550418,0 0,-2.201616 0.550418,0 z m 0,3.852898 0,2.201615 -0.550418,0 0,-2.201615 0.550418,0 z m 0,3.852898 0,2.201615 -0.550418,0 0,-2.201615 0.550418,0 z"
         style="fill:#000000;fill-opacity:1;fill-rule:nonzero;stroke:#000000;stroke-width:0.00529256px;stroke-linecap:butt;stroke-linejoin:round;stroke-miterlimit:10;stroke-dasharray:none;stroke-opacity:1" />
      <path
         inkscape:connector-curvature="0"
         id="path3526"
         d="m 82.034662,11.558944 0,2.2017 -0.550333,0 0,-2.2017 0.550333,0 z m 0,3.852983 0,2.2017 -0.550333,0 0,-2.2017 0.550333,0 z m 0,3.852982 0,2.2017 -0.550333,0 0,-2.2017 0.550333,0 z m 0,3.852983 0,2.2017 -0.550333,0 0,-2.2017 0.550333,0 z m 0,3.852982 0,2.201587 -0.550333,0 0,-2.201587 0.550333,0 z m 0,3.85287 0,2.201897 -0.550333,0 0,-2.201897 0.550333,0 z m 0,3.85318 0,2.201615 -0.550333,0 0,-2.201615 0.550333,0 z m 0,3.852897 0,2.201616 -0.550333,0 0,-2.201616 0.550333,0 z m 0,3.852898 0,2.201898 -0.550333,0 0,-2.201898 0.550333,0 z m 0,3.85318 0,2.201616 -0.550333,0 0,-2.201616 0.550333,0 z m 0,3.852898 0,2.201615 -0.550333,0 0,-2.201615 0.550333,0 z m 0,3.852898 0,2.201615 -0.550333,0 0,-2.201615 0.550333,0 z"
         style="fill:#000000;fill-opacity:1;fill-rule:nonzero;stroke:#000000;stroke-width:0.00529256px;stroke-linecap:butt;stroke-linejoin:round;stroke-miterlimit:10;stroke-dasharray:none;stroke-opacity:1" />
      <path
         inkscape:connector-curvature="0"
         id="path3528"
         d="m 26.137306,20.466329 c 1.688309,-0.788613 3.709952,-0.03178 4.517107,1.693616 0.12192,0.256681 0.209127,0.523945 0.264725,0.799168"
         style="fill:none;stroke:#0070c0;stroke-width:0.52925581px;stroke-linecap:butt;stroke-linejoin:miter;stroke-miterlimit:8;stroke-dasharray:none;stroke-opacity:1" />
      <path
         inkscape:connector-curvature="0"
         id="path3530"
         d="m 81.727604,22.017027 c 1.217225,-0.571584 2.65176,-0.264611 3.498427,0.740975"
         style="fill:none;stroke:#0070c0;stroke-width:0.52925581px;stroke-linecap:butt;stroke-linejoin:miter;stroke-miterlimit:8;stroke-dasharray:none;stroke-opacity:1" />
      <text
         sodipodi:linespacing="125%"
         id="text3532"
         y="19.658195"
         x="28.64196"
         style="font-style:normal;font-variant:normal;font-weight:400;font-size:4.95652771px;line-height:125%;font-family:'Cambria Math';text-align:start;letter-spacing:0px;word-spacing:0px;text-anchor:start;fill:#000000;fill-opacity:1;stroke:none"
         xml:space="preserve"><tspan
           id="tspan3534"
           y="19.658195"
           x="28.64196"
           sodipodi:role="line"><tspan
             id="tspan3536"
             style="font-style:normal;font-variant:normal;font-weight:400;font-size:4.95652771px;font-family:'Cambria Math';fill:#0070c0"
             dy="0"
             dx="0">α</tspan></tspan></text>
      <text
         sodipodi:linespacing="125%"
         id="text3538"
         y="23.674093"
         x="87.141342"
         style="font-style:normal;font-variant:normal;font-weight:400;font-size:4.95652771px;line-height:125%;font-family:'Cambria Math';text-align:start;letter-spacing:0px;word-spacing:0px;text-anchor:start;fill:#000000;fill-opacity:1;stroke:none"
         xml:space="preserve"><tspan
           id="tspan3540"
           y="23.674093"
           x="87.141342"
           sodipodi:role="line"><tspan
             id="tspan3542"
             style="font-style:normal;font-variant:normal;font-weight:400;font-size:4.95652771px;font-family:'Cambria Math';fill:#0070c0"
             dy="0"
             dx="0">β</tspan></tspan></text>
      <text
         sodipodi:linespacing="125%"
         id="text3544"
         y="72.808754"
         x="35.54504"
         style="font-style:normal;font-variant:normal;font-weight:400;font-size:6.3499999px;line-height:125%;font-family:Arial;text-align:start;letter-spacing:0px;word-spacing:0px;text-anchor:start;fill:#000000;fill-opacity:1;stroke:none"
         xml:space="preserve"><tspan
           id="tspan3546"
           y="72.808754"
           x="35.54504"
           sodipodi:role="line"><tspan
             id="tspan3548"
             style="font-style:normal;font-variant:normal;font-weight:400;font-size:6.3499999px;font-family:Arial;fill:#000000"
             dy="0"
             dx="0">Center of block</tspan></tspan></text>
      <path
         inkscape:connector-curvature="0"
         id="path3550"
         d="m 28.641887,19.658186 m 0,0 m 58.499586,4.015909 m 0,0 M 26.145236,33.470141 52.205749,67.90351"
         style="fill:none;stroke:#000000;stroke-width:0.16936186px;stroke-linecap:butt;stroke-linejoin:miter;stroke-miterlimit:8;stroke-dasharray:none;stroke-opacity:1" />
      <path
         inkscape:connector-curvature="0"
         id="path3552"
         d="M 81.743691,34.062808 54.89448,67.893068"
         style="fill:none;stroke:#000000;stroke-width:0.16936186px;stroke-linecap:butt;stroke-linejoin:miter;stroke-miterlimit:8;stroke-dasharray:none;stroke-opacity:1" />
    </g>
  </g>
</svg>
