<?xml version="1.0" encoding="UTF-8" standalone="no"?>
<!-- Created with Inkscape (http://www.inkscape.org/) -->

<svg
   xmlns:dc="http://purl.org/dc/elements/1.1/"
   xmlns:cc="http://creativecommons.org/ns#"
   xmlns:rdf="http://www.w3.org/1999/02/22-rdf-syntax-ns#"
   xmlns:svg="http://www.w3.org/2000/svg"
   xmlns="http://www.w3.org/2000/svg"
   xmlns:sodipodi="http://sodipodi.sourceforge.net/DTD/sodipodi-0.dtd"
   xmlns:inkscape="http://www.inkscape.org/namespaces/inkscape"
   width="210mm"
   height="297mm"
   viewBox="0 0 744.09448819 1052.3622047"
   id="svg12370"
   version="1.1"
   inkscape:version="0.91 r13725"
   sodipodi:docname="Miss_corresponding_ng.svg">
  <defs
     id="defs12372">
    <clipPath
       id="clipEmfPath3-0"
       clipPathUnits="userSpaceOnUse">
      <path
         inkscape:connector-curvature="0"
         id="path10903-0"
         d="m 0.449977,0.899953 692.064023,0 0,438.877047 -692.064023,0 z" />
    </clipPath>
  </defs>
  <sodipodi:namedview
     id="base"
     pagecolor="#ffffff"
     bordercolor="#666666"
     borderopacity="1.0"
     inkscape:pageopacity="0.0"
     inkscape:pageshadow="2"
     inkscape:zoom="0.7"
     inkscape:cx="-70.194918"
     inkscape:cy="281.11568"
     inkscape:document-units="px"
     inkscape:current-layer="layer1"
     showgrid="true"
     inkscape:window-width="1920"
     inkscape:window-height="1017"
     inkscape:window-x="-8"
     inkscape:window-y="-8"
     inkscape:window-maximized="1">
    <inkscape:grid
       type="xygrid"
       id="grid13098" />
  </sodipodi:namedview>
  <metadata
     id="metadata12375">
    <rdf:RDF>
      <cc:Work
         rdf:about="">
        <dc:format>image/svg+xml</dc:format>
        <dc:type
           rdf:resource="http://purl.org/dc/dcmitype/StillImage" />
        <dc:title />
      </cc:Work>
    </rdf:RDF>
  </metadata>
  <g
     inkscape:label="レイヤー 1"
     inkscape:groupmode="layer"
     id="layer1">
    <path
       sodipodi:nodetypes="cssssccssssccc"
       inkscape:connector-curvature="0"
       d="m 540.34618,351.81984 -18.91068,10.42113 c -18.90524,9.87966 -47.21371,14.09558 -72.16577,-0.1872 -25.9599,-14.85969 -53.80229,-17.13546 -80.57325,-0.56161 -20.98406,12.99119 -54.276,12.99119 -79.22806,-0.11194 -29.86316,-15.68212 -51.61941,-16.54801 -81.28934,1.4325 l -15.72916,99.89902 c 30.60827,-19.58711 52.36452,-18.72122 82.22767,-3.03912 24.95206,13.10314 58.244,13.10314 79.22806,0.11195 26.77096,-16.57382 54.61336,-14.29809 80.57325,0.56159 24.95207,14.28284 53.01406,9.58017 72.16578,0.18722 l 17.97233,-8.81453 8.62454,-54.77612 z"
       style="fill:#78e164;fill-opacity:1;fill-rule:evenodd;stroke:#000000;stroke-width:1;stroke-linecap:butt;stroke-linejoin:miter;stroke-miterlimit:4;stroke-dasharray:none;stroke-opacity:1"
       id="path4708-9" />
    <path
       style="fill:#000000;fill-opacity:1;fill-rule:nonzero;stroke:#000000;stroke-width:0.01874902px;stroke-linecap:butt;stroke-linejoin:round;stroke-miterlimit:4;stroke-dasharray:none;stroke-opacity:1"
       d="m 158.39763,706.18848 100.4011,-272.91059 -2.4,-0.8812 -100.3822,272.91079 2.3811,0.881 z m 102.3511,-270.82949 -0.93799,-8.512 -6.243,5.8684 7.18099,2.6436 z"
       id="path11216-4"
       inkscape:connector-curvature="0" />
    <path
       style="fill:#ffffff;fill-opacity:1;fill-rule:evenodd;stroke:none"
       d="m 100.95064,605.78748 0,80.396 112.6441,0 0,-80.396 -112.6441,0 z"
       id="path11234-6"
       inkscape:connector-curvature="0" />
    <path
       style="fill:none;stroke:#000000;stroke-width:1.94989872px;stroke-linecap:butt;stroke-linejoin:round;stroke-miterlimit:4;stroke-dasharray:none;stroke-opacity:1"
       clip-path="url(#clipEmfPath3-0)"
       d="m 1.9499,227.538 112.6441,0 0,80.396 -112.6441,0 z"
       id="path11236-5"
       inkscape:connector-curvature="0"
       transform="translate(99.000739,378.24949)" />
    <path
       style="fill:#ff0000;fill-opacity:1;fill-rule:evenodd;stroke:none"
       d="m 172.64694,655.81048 c 0,-1.932 1.6124,-3.525 3.59979,-3.525 2.0061,0 3.5998,1.593 3.5998,3.525 0,1.949 -1.5937,3.524 -3.5998,3.524 -1.9874,0 -3.59979,-1.575 -3.59979,-3.524 z"
       id="path11238-5"
       inkscape:connector-curvature="0" />
    <path
       style="fill:none;stroke:#ff0000;stroke-width:2.54986763px;stroke-linecap:butt;stroke-linejoin:round;stroke-miterlimit:4;stroke-dasharray:none;stroke-opacity:1"
       d="m 172.64694,655.81048 c 0,-1.932 1.6124,-3.525 3.59979,-3.525 2.0061,0 3.5998,1.593 3.5998,3.525 0,1.949 -1.5937,3.524 -3.5998,3.524 -1.9874,0 -3.59979,-1.575 -3.59979,-3.524"
       id="path11240-1"
       inkscape:connector-curvature="0" />
    <path
       style="fill:#0070c0;fill-opacity:1;fill-rule:evenodd;stroke:none"
       d="m 147.67323,716.25648 0,29.999 18.899,0 0,-29.999 -18.899,0 z"
       id="path11242-7"
       inkscape:connector-curvature="0" />
    <path
       style="fill:#0070c0;fill-opacity:1;fill-rule:evenodd;stroke:none"
       d="m 166.57223,705.75748 -9.4495,20.999 -9.4495,-20.999 z"
       id="path11244-0"
       inkscape:connector-curvature="0" />
    <path
       style="fill:none;stroke:#000000;stroke-width:2.54986763px;stroke-linecap:butt;stroke-linejoin:round;stroke-miterlimit:4;stroke-dasharray:none;stroke-opacity:1"
       d="m 157.19774,705.85148 16.9491,-46.067"
       id="path11274-8"
       inkscape:connector-curvature="0" />
    <path
       style="fill:#000000;fill-opacity:1;fill-rule:nonzero;stroke:#000000;stroke-width:0.01874902px;stroke-linecap:butt;stroke-linejoin:round;stroke-miterlimit:4;stroke-dasharray:none;stroke-opacity:1"
       d="m 342.36142,740.33406 -60.52097,-308.85804 1.94007,-0.64715 60.50607,308.8777 -1.92517,0.62749 z m -62.21099,-306.97343 1.42507,-8.49007 4.39437,6.58648 -5.81944,1.90359 z"
       id="path11218-0"
       inkscape:connector-curvature="0" />
    <path
       style="fill:#ffffff;fill-opacity:1;fill-rule:evenodd;stroke:none"
       d="m 286.78359,639.76405 0,80.396 112.644,0 0,-80.396 -112.644,0 z"
       id="path11246-2"
       inkscape:connector-curvature="0" />
    <path
       style="fill:none;stroke:#000000;stroke-width:1.94989884px;stroke-linecap:butt;stroke-linejoin:round;stroke-miterlimit:4;stroke-dasharray:none;stroke-opacity:1"
       d="m 286.78359,639.76405 112.644,0 0,80.396 -112.644,0 z"
       id="path11248-8"
       inkscape:connector-curvature="0" />
    <path
       style="fill:#ff0000;fill-opacity:1;stroke:#ff0000;stroke-width:2.54986763px;stroke-linecap:butt;stroke-linejoin:round;stroke-miterlimit:4;stroke-dasharray:none;stroke-opacity:1"
       d="m 330.50302,690.89419 c 0,-1.931 1.594,-3.525 3.525,-3.525 1.95,0 3.525,1.594 3.525,3.525 0,1.95 -1.575,3.525 -3.525,3.525 -1.931,0 -3.525,-1.575 -3.525,-3.525"
       id="path11252-0"
       inkscape:connector-curvature="0" />
    <path
       style="fill:#0070c0;fill-opacity:1;fill-rule:evenodd;stroke:none"
       d="m 333.65659,750.38405 0,30.14801 18.749,0 0,-30.14801 -18.749,0 z"
       id="path11254-4"
       inkscape:connector-curvature="0" />
    <path
       style="fill:#0070c0;fill-opacity:1;fill-rule:evenodd;stroke:none"
       d="m 352.40559,739.88406 -9.375,20.99898 -9.374,-20.99898 z"
       id="path11256-8"
       inkscape:connector-curvature="0" />
    <path
       style="fill:none;stroke:#000000;stroke-width:2.54986763px;stroke-linecap:butt;stroke-linejoin:round;stroke-miterlimit:4;stroke-dasharray:none;stroke-opacity:1"
       d="m 343.74922,740.57805 -8.10054,-46.066"
       id="path11280-2"
       inkscape:connector-curvature="0" />
    <path
       style="fill:#000000;fill-opacity:1;fill-rule:nonzero;stroke:#000000;stroke-width:0.01874902px;stroke-linecap:butt;stroke-linejoin:round;stroke-miterlimit:4;stroke-dasharray:none;stroke-opacity:1"
       d="M 573.54148,710.51218 335.53,426.77144 l 1.36984,-1.93218 238.01149,283.74064 -1.36985,1.93228 z m -238.63724,-280.90044 -2.42679,-8.25048 6.5363,2.43457 -4.10951,5.81591 z"
       id="path11220-40"
       inkscape:connector-curvature="0" />
    <path
       style="fill:#ffffff;fill-opacity:1;fill-rule:evenodd;stroke:none"
       d="m 606.05332,601.29919 1.987,76.908 -91.983,25.499 -1.949,-76.909 z"
       id="path11258-2"
       inkscape:connector-curvature="0" />
    <path
       style="fill:none;stroke:#000000;stroke-width:1.87490261px;stroke-linecap:butt;stroke-linejoin:round;stroke-miterlimit:4;stroke-dasharray:none;stroke-opacity:1"
       d="m 606.05332,601.29919 1.987,76.908 -91.983,25.499 -1.949,-76.909 z"
       id="path11260-1"
       inkscape:connector-curvature="0" />
    <path
       style="fill:#0000ff;fill-opacity:1;stroke:#0000ff;stroke-width:2.54986763px;stroke-linecap:butt;stroke-linejoin:round;stroke-miterlimit:4;stroke-dasharray:none;stroke-opacity:1"
       d="m 538.50809,669.60965 c 0,-1.931 1.593,-3.525 3.524,-3.525 1.95001,0 3.525,1.594 3.525,3.525 0,1.95 -1.575,3.525 -3.525,3.525 -1.931,0 -3.524,-1.575 -3.524,-3.525"
       id="path11268-4"
       inkscape:connector-curvature="0" />
    <path
       style="fill:#0070c0;fill-opacity:1;fill-rule:evenodd;stroke:none"
       d="m 568.06732,722.32419 18.05601,-5.513 8.793,28.76101 -18.03701,5.51299 z"
       id="path11270-8"
       inkscape:connector-curvature="0" />
    <path
       style="fill:#0070c0;fill-opacity:1;fill-rule:evenodd;stroke:none"
       d="m 583.04832,706.76219 -2.888,22.836 -15.149,-17.324 z"
       id="path11272-2"
       inkscape:connector-curvature="0" />
    <path
       style="fill:none;stroke:#000000;stroke-width:2.54986763px;stroke-linecap:butt;stroke-linejoin:round;stroke-miterlimit:4;stroke-dasharray:none;stroke-opacity:1"
       d="M 574.15357,709.55176 545.63516,673.43905"
       id="path11282-1"
       inkscape:connector-curvature="0" />
    <path
       style="fill:#ff0000;fill-opacity:1;stroke:#ff0000;stroke-width:2.54986763px;stroke-linecap:butt;stroke-linejoin:round;stroke-miterlimit:4;stroke-dasharray:none;stroke-opacity:1"
       d="m 257.88933,420.99964 c 0,-1.931 1.594,-3.525 3.52501,-3.525 1.94999,0 3.52499,1.594 3.52499,3.525 0,1.95 -1.575,3.525 -3.52499,3.525 -1.93101,0 -3.52501,-1.575 -3.52501,-3.525"
       id="path11252-0-8"
       inkscape:connector-curvature="0" />
    <text
       xml:space="preserve"
       style="font-style:normal;font-weight:normal;font-size:40px;line-height:125%;font-family:sans-serif;letter-spacing:0px;word-spacing:0px;fill:#000000;fill-opacity:1;stroke:none;stroke-width:1px;stroke-linecap:butt;stroke-linejoin:miter;stroke-opacity:1"
       x="205.67108"
       y="391.18088"
       id="text12260"
       sodipodi:linespacing="125%"><tspan
         sodipodi:role="line"
         id="tspan12262"
         x="205.67108"
         y="391.18088"
         style="font-style:normal;font-variant:normal;font-weight:normal;font-stretch:normal;font-size:27.5px;font-family:'MS Gothic';-inkscape-font-specification:'MS Gothic'">オーロラ</tspan></text>
    <text
       xml:space="preserve"
       style="font-style:normal;font-weight:normal;font-size:40px;line-height:125%;font-family:sans-serif;letter-spacing:0px;word-spacing:0px;fill:#000000;fill-opacity:1;stroke:none;stroke-width:1px;stroke-linecap:butt;stroke-linejoin:miter;stroke-opacity:1"
       x="108.67108"
       y="815.04944"
       id="text12260-4"
       sodipodi:linespacing="125%"><tspan
         sodipodi:role="line"
         id="tspan12262-0"
         x="108.67108"
         y="815.04944"
         style="font-style:normal;font-variant:normal;font-weight:normal;font-stretch:normal;font-size:27.5px;font-family:'MS Gothic';-inkscape-font-specification:'MS Gothic'">カメラA</tspan></text>
    <text
       xml:space="preserve"
       style="font-style:normal;font-weight:normal;font-size:40px;line-height:125%;font-family:sans-serif;letter-spacing:0px;word-spacing:0px;fill:#000000;fill-opacity:1;stroke:none;stroke-width:1px;stroke-linecap:butt;stroke-linejoin:miter;stroke-opacity:1"
       x="283.38535"
       y="815.04944"
       id="text12260-4-1"
       sodipodi:linespacing="125%"><tspan
         sodipodi:role="line"
         x="283.38535"
         y="815.04944"
         style="font-style:normal;font-variant:normal;font-weight:normal;font-stretch:normal;font-size:27.5px;font-family:'MS Gothic';-inkscape-font-specification:'MS Gothic'"
         id="tspan12308">カメラB</tspan></text>
    <text
       xml:space="preserve"
       style="font-style:normal;font-weight:normal;font-size:40px;line-height:125%;font-family:sans-serif;letter-spacing:0px;word-spacing:0px;fill:#000000;fill-opacity:1;stroke:none;stroke-width:1px;stroke-linecap:butt;stroke-linejoin:miter;stroke-opacity:1"
       x="543.67114"
       y="774.75232"
       id="text12260-4-4"
       sodipodi:linespacing="125%"><tspan
         sodipodi:role="line"
         id="tspan12262-0-7"
         x="543.67114"
         y="774.75232"
         style="font-style:normal;font-variant:normal;font-weight:normal;font-stretch:normal;font-size:27.5px;font-family:'MS Gothic';-inkscape-font-specification:'MS Gothic'">カメラC</tspan></text>
    <rect
       style="opacity:1;fill:none;fill-opacity:1;stroke:#ff0000;stroke-width:1;stroke-linecap:square;stroke-miterlimit:3;stroke-dasharray:none;stroke-dashoffset:0;stroke-opacity:1"
       id="rect12312"
       width="280"
       height="35"
       x="105.09966"
       y="788.60944"
       ry="1.27148" />
    <text
       xml:space="preserve"
       style="font-style:normal;font-weight:normal;font-size:40px;line-height:125%;font-family:sans-serif;letter-spacing:0px;word-spacing:0px;fill:#000000;fill-opacity:1;stroke:none;stroke-width:1px;stroke-linecap:butt;stroke-linejoin:miter;stroke-opacity:1"
       x="94.385368"
       y="846.76373"
       id="text12260-4-7"
       sodipodi:linespacing="125%"><tspan
         sodipodi:role="line"
         x="94.385368"
         y="846.76373"
         style="font-style:normal;font-variant:normal;font-weight:normal;font-stretch:normal;font-size:27.5px;font-family:'MS Gothic';-inkscape-font-specification:'MS Gothic';fill:#ff0000;fill-opacity:1"
         id="tspan12332">ステレオ計測用カメラ対</tspan></text>
    <text
       xml:space="preserve"
       style="font-style:normal;font-weight:normal;font-size:40px;line-height:125%;font-family:sans-serif;letter-spacing:0px;word-spacing:0px;fill:#000000;fill-opacity:1;stroke:none;stroke-width:1px;stroke-linecap:butt;stroke-linejoin:miter;stroke-opacity:1"
       x="415.38535"
       y="806.76379"
       id="text12260-4-7-4"
       sodipodi:linespacing="125%"><tspan
         sodipodi:role="line"
         x="415.38535"
         y="806.76379"
         style="font-style:normal;font-variant:normal;font-weight:normal;font-stretch:normal;font-size:27.5px;font-family:'MS Gothic';-inkscape-font-specification:'MS Gothic';fill:#0000ff;fill-opacity:1"
         id="tspan12332-7">誤対応判定用カメラ</tspan></text>
    <path
       style="fill:#ff0000;fill-opacity:1;stroke:#ff0000;stroke-width:2.54986763px;stroke-linecap:butt;stroke-linejoin:round;stroke-miterlimit:4;stroke-dasharray:none;stroke-opacity:1"
       d="m 277.17504,420.99964 c 0,-1.931 1.594,-3.525 3.52501,-3.525 1.94999,0 3.52499,1.594 3.52499,3.525 0,1.95 -1.575,3.525 -3.52499,3.525 -1.93101,0 -3.52501,-1.575 -3.52501,-3.525"
       id="path11252-0-8-6"
       inkscape:connector-curvature="0" />
    <path
       style="fill:#0000ff;fill-opacity:1;stroke:#0000ff;stroke-width:2.54986763px;stroke-linecap:butt;stroke-linejoin:round;stroke-miterlimit:4;stroke-dasharray:none;stroke-opacity:1"
       d="m 326.7898,417.28477 c 0,-1.931 1.593,-3.525 3.524,-3.525 1.95001,0 3.525,1.594 3.525,3.525 0,1.95 -1.575,3.525 -3.525,3.525 -1.931,0 -3.524,-1.575 -3.524,-3.525"
       id="path11268-4-8"
       inkscape:connector-curvature="0" />
    <ellipse
       style="opacity:1;fill:none;fill-opacity:1;stroke:#ff0000;stroke-width:1;stroke-linecap:square;stroke-miterlimit:3;stroke-dasharray:none;stroke-dashoffset:0;stroke-opacity:1"
       id="path13346"
       cx="269.64288"
       cy="424.86221"
       rx="26.785715"
       ry="12.5" />
    <text
       xml:space="preserve"
       style="font-style:normal;font-weight:normal;font-size:40px;line-height:125%;font-family:sans-serif;letter-spacing:0px;word-spacing:0px;fill:#000000;fill-opacity:1;stroke:none;stroke-width:1px;stroke-linecap:butt;stroke-linejoin:miter;stroke-opacity:1"
       x="108.67106"
       y="491.76376"
       id="text12260-4-7-40"
       sodipodi:linespacing="125%"><tspan
         sodipodi:role="line"
         x="108.67106"
         y="491.76376"
         style="font-style:normal;font-variant:normal;font-weight:normal;font-stretch:normal;font-size:27.5px;font-family:'MS Gothic';-inkscape-font-specification:'MS Gothic';fill:#ff0000;fill-opacity:1"
         id="tspan12332-8">類似領域</tspan></text>
    <path
       style="fill:none;fill-rule:evenodd;stroke:#000000;stroke-width:1px;stroke-linecap:butt;stroke-linejoin:miter;stroke-opacity:1"
       d="m 178.63098,660.43999 29.8809,71.70162"
       id="path13366"
       inkscape:connector-curvature="0" />
    <path
       style="fill:none;fill-rule:evenodd;stroke:#000000;stroke-width:1px;stroke-linecap:butt;stroke-linejoin:miter;stroke-opacity:1"
       d="m 329.54619,695.48325 -85.52092,42.32938"
       id="path13366-9"
       inkscape:connector-curvature="0" />
    <text
       xml:space="preserve"
       style="font-style:normal;font-weight:normal;font-size:40px;line-height:125%;font-family:sans-serif;letter-spacing:0px;word-spacing:0px;fill:#000000;fill-opacity:1;stroke:none;stroke-width:1px;stroke-linecap:butt;stroke-linejoin:miter;stroke-opacity:1"
       x="186.52823"
       y="758.19226"
       id="text12260-4-75"
       sodipodi:linespacing="125%"><tspan
         sodipodi:role="line"
         id="tspan12262-0-1"
         x="186.52823"
         y="758.19226"
         style="font-style:normal;font-variant:normal;font-weight:normal;font-stretch:normal;font-size:22.5px;font-family:'MS Gothic';-inkscape-font-specification:'MS Gothic'">誤対応点</tspan></text>
    <path
       style="fill:none;fill-rule:evenodd;stroke:#ff0000;stroke-width:1px;stroke-linecap:butt;stroke-linejoin:miter;stroke-opacity:1"
       d="m 240.38037,428.35094 -63.61788,35.16543"
       id="path13366-2"
       inkscape:connector-curvature="0" />
  </g>
</svg>
