<?xml version="1.0" encoding="UTF-8" standalone="no"?>
<!-- Created with Inkscape (http://www.inkscape.org/) -->

<svg
   xmlns:dc="http://purl.org/dc/elements/1.1/"
   xmlns:cc="http://creativecommons.org/ns#"
   xmlns:rdf="http://www.w3.org/1999/02/22-rdf-syntax-ns#"
   xmlns:svg="http://www.w3.org/2000/svg"
   xmlns="http://www.w3.org/2000/svg"
   xmlns:sodipodi="http://sodipodi.sourceforge.net/DTD/sodipodi-0.dtd"
   xmlns:inkscape="http://www.inkscape.org/namespaces/inkscape"
   width="210mm"
   height="297mm"
   viewBox="0 0 744.09448819 1052.3622047"
   id="svg21049"
   version="1.1"
   inkscape:version="0.91 r13725"
   sodipodi:docname="Cam2miss.svg">
  <defs
     id="defs21051">
    <marker
       inkscape:stockid="Arrow2Mend"
       orient="auto"
       refY="0"
       refX="0"
       id="marker19246"
       style="overflow:visible"
       inkscape:isstock="true">
      <path
         inkscape:connector-curvature="0"
         id="path19248"
         style="fill:#0000ff;fill-opacity:1;fill-rule:evenodd;stroke:#0000ff;stroke-width:0.625;stroke-linejoin:round;stroke-opacity:1"
         d="M 8.7185878,4.0337352 -2.2072895,0.01601326 8.7185884,-4.0017078 c -1.7454984,2.3720609 -1.7354408,5.6174519 -6e-7,8.035443 z"
         transform="scale(-0.6,-0.6)" />
    </marker>
    <marker
       inkscape:stockid="Arrow2Mend"
       orient="auto"
       refY="0"
       refX="0"
       id="marker18154"
       style="overflow:visible"
       inkscape:isstock="true">
      <path
         inkscape:connector-curvature="0"
         id="path18156"
         style="fill:#ff9e00;fill-opacity:1;fill-rule:evenodd;stroke:#ff9e00;stroke-width:0.625;stroke-linejoin:round;stroke-opacity:1"
         d="M 8.7185878,4.0337352 -2.2072895,0.01601326 8.7185884,-4.0017078 c -1.7454984,2.3720609 -1.7354408,5.6174519 -6e-7,8.035443 z"
         transform="scale(-0.6,-0.6)" />
    </marker>
    <marker
       inkscape:stockid="Arrow2Mend"
       orient="auto"
       refY="0"
       refX="0"
       id="marker17573"
       style="overflow:visible"
       inkscape:isstock="true">
      <path
         inkscape:connector-curvature="0"
         id="path17575"
         style="fill:#bd00ff;fill-opacity:1;fill-rule:evenodd;stroke:#bd00ff;stroke-width:0.625;stroke-linejoin:round;stroke-opacity:1"
         d="M 8.7185878,4.0337352 -2.2072895,0.01601326 8.7185884,-4.0017078 c -1.7454984,2.3720609 -1.7354408,5.6174519 -6e-7,8.035443 z"
         transform="scale(-0.6,-0.6)" />
    </marker>
    <marker
       inkscape:stockid="Arrow1Lend"
       orient="auto"
       refY="0"
       refX="0"
       id="Arrow1Lend-3"
       style="overflow:visible"
       inkscape:isstock="true">
      <path
         inkscape:connector-curvature="0"
         id="path4894-8"
         d="M 0,0 5,-5 -12.5,0 5,5 0,0 Z"
         style="fill:#bd00ff;fill-opacity:1;fill-rule:evenodd;stroke:#bd00ff;stroke-width:1pt;stroke-opacity:1"
         transform="matrix(-0.8,0,0,-0.8,-10,0)" />
    </marker>
    <marker
       inkscape:stockid="Arrow1Lend"
       orient="auto"
       refY="0"
       refX="0"
       id="Arrow1Lend-9"
       style="overflow:visible"
       inkscape:isstock="true">
      <path
         inkscape:connector-curvature="0"
         id="path4894-0"
         d="M 0,0 5,-5 -12.5,0 5,5 0,0 Z"
         style="fill:#0000ff;fill-opacity:1;fill-rule:evenodd;stroke:#0000ff;stroke-width:1pt;stroke-opacity:1"
         transform="matrix(-0.8,0,0,-0.8,-10,0)" />
    </marker>
    <marker
       inkscape:stockid="Arrow1Lend"
       orient="auto"
       refY="0"
       refX="0"
       id="Arrow1Lend-1"
       style="overflow:visible"
       inkscape:isstock="true">
      <path
         inkscape:connector-curvature="0"
         id="path4894-6"
         d="M 0,0 5,-5 -12.5,0 5,5 0,0 Z"
         style="fill:#ff9e00;fill-opacity:1;fill-rule:evenodd;stroke:#ff9e00;stroke-width:1pt;stroke-opacity:1"
         transform="matrix(-0.8,0,0,-0.8,-10,0)" />
    </marker>
    <marker
       inkscape:stockid="Arrow2Mend"
       orient="auto"
       refY="0"
       refX="0"
       id="marker20115"
       style="overflow:visible"
       inkscape:isstock="true">
      <path
         inkscape:connector-curvature="0"
         id="path20117"
         style="fill:#ff0000;fill-opacity:1;fill-rule:evenodd;stroke:#ff0000;stroke-width:0.625;stroke-linejoin:round;stroke-opacity:1"
         d="M 8.7185878,4.0337352 -2.2072895,0.01601326 8.7185884,-4.0017078 c -1.7454984,2.3720609 -1.7354408,5.6174519 -6e-7,8.035443 z"
         transform="scale(-0.6,-0.6)" />
    </marker>
    <marker
       inkscape:stockid="Arrow2Mend"
       orient="auto"
       refY="0"
       refX="0"
       id="marker19925"
       style="overflow:visible"
       inkscape:isstock="true">
      <path
         inkscape:connector-curvature="0"
         id="path19927"
         style="fill:#ff0000;fill-opacity:1;fill-rule:evenodd;stroke:#ff0000;stroke-width:0.625;stroke-linejoin:round;stroke-opacity:1"
         d="M 8.7185878,4.0337352 -2.2072895,0.01601326 8.7185884,-4.0017078 c -1.7454984,2.3720609 -1.7354408,5.6174519 -6e-7,8.035443 z"
         transform="scale(-0.6,-0.6)" />
    </marker>
    <marker
       inkscape:stockid="Arrow2Mend"
       orient="auto"
       refY="0"
       refX="0"
       id="marker18809"
       style="overflow:visible"
       inkscape:isstock="true">
      <path
         inkscape:connector-curvature="0"
         id="path18811"
         style="fill:#ff0000;fill-opacity:1;fill-rule:evenodd;stroke:#ff0000;stroke-width:0.625;stroke-linejoin:round;stroke-opacity:1"
         d="M 8.7185878,4.0337352 -2.2072895,0.01601326 8.7185884,-4.0017078 c -1.7454984,2.3720609 -1.7354408,5.6174519 -6e-7,8.035443 z"
         transform="scale(-0.6,-0.6)" />
    </marker>
    <marker
       inkscape:stockid="Arrow2Mend"
       orient="auto"
       refY="0"
       refX="0"
       id="Arrow2Mend-9-9"
       style="overflow:visible"
       inkscape:isstock="true">
      <path
         inkscape:connector-curvature="0"
         id="path4918-5-9"
         style="fill:#ff0000;fill-opacity:1;fill-rule:evenodd;stroke:#ff0000;stroke-width:0.625;stroke-linejoin:round;stroke-opacity:1"
         d="M 8.7185878,4.0337352 -2.2072895,0.01601326 8.7185884,-4.0017078 c -1.7454984,2.3720609 -1.7354408,5.6174519 -6e-7,8.035443 z"
         transform="scale(-0.6,-0.6)" />
    </marker>
    <clipPath
       id="clipEmfPath3-0-1-7"
       clipPathUnits="userSpaceOnUse">
      <path
         inkscape:connector-curvature="0"
         id="path10903-0-9-0"
         d="m 0.449977,0.899953 692.064023,0 0,438.877047 -692.064023,0 z" />
    </clipPath>
    <clipPath
       id="clipEmfPath3-0-1"
       clipPathUnits="userSpaceOnUse">
      <path
         inkscape:connector-curvature="0"
         id="path10903-0-9"
         d="m 0.449977,0.899953 692.064023,0 0,438.877047 -692.064023,0 z" />
    </clipPath>
    <marker
       inkscape:stockid="Arrow1Lend"
       orient="auto"
       refY="0"
       refX="0"
       id="Arrow1Lend"
       style="overflow:visible"
       inkscape:isstock="true">
      <path
         inkscape:connector-curvature="0"
         id="path4894"
         d="M 0,0 5,-5 -12.5,0 5,5 0,0 Z"
         style="fill:#ff0000;fill-opacity:1;fill-rule:evenodd;stroke:#ff0000;stroke-width:1pt;stroke-opacity:1"
         transform="matrix(-0.8,0,0,-0.8,-10,0)" />
    </marker>
    <marker
       inkscape:stockid="Arrow2Mend"
       orient="auto"
       refY="0"
       refX="0"
       id="Arrow2Mend-9-9-0"
       style="overflow:visible"
       inkscape:isstock="true"
       inkscape:collect="always">
      <path
         inkscape:connector-curvature="0"
         id="path4918-5-9-5"
         style="fill:#000000;fill-opacity:1;fill-rule:evenodd;stroke:#000000;stroke-width:0.625;stroke-linejoin:round;stroke-opacity:1"
         d="M 8.7185878,4.0337352 -2.2072895,0.01601326 8.7185884,-4.0017078 c -1.7454984,2.3720609 -1.7354408,5.6174519 -6e-7,8.035443 z"
         transform="scale(-0.6,-0.6)" />
    </marker>
    <marker
       inkscape:isstock="true"
       style="overflow:visible"
       id="marker10895"
       refX="0"
       refY="0"
       orient="auto"
       inkscape:stockid="Arrow2Mend"
       inkscape:collect="always">
      <path
         transform="scale(-0.6,-0.6)"
         d="M 8.7185878,4.0337352 -2.2072895,0.01601326 8.7185884,-4.0017078 c -1.7454984,2.3720609 -1.7354408,5.6174519 -6e-7,8.035443 z"
         style="fill:#000000;fill-opacity:1;fill-rule:evenodd;stroke:#000000;stroke-width:0.625;stroke-linejoin:round;stroke-opacity:1"
         id="path10897"
         inkscape:connector-curvature="0" />
    </marker>
    <marker
       inkscape:isstock="true"
       style="overflow:visible"
       id="marker15085"
       refX="0"
       refY="0"
       orient="auto"
       inkscape:stockid="Arrow2Mstart">
      <path
         inkscape:connector-curvature="0"
         transform="scale(0.6,0.6)"
         d="M 8.7185878,4.0337352 -2.2072895,0.01601326 8.7185884,-4.0017078 c -1.7454984,2.3720609 -1.7354408,5.6174519 -6e-7,8.035443 z"
         style="fill:#000000;fill-opacity:1;fill-rule:evenodd;stroke:#000000;stroke-width:0.625;stroke-linejoin:round;stroke-opacity:1"
         id="path15087" />
    </marker>
    <marker
       inkscape:stockid="Arrow1Lend"
       orient="auto"
       refY="0"
       refX="0"
       id="Arrow1Lend-1-4"
       style="overflow:visible"
       inkscape:isstock="true">
      <path
         inkscape:connector-curvature="0"
         id="path4894-6-0"
         d="M 0,0 5,-5 -12.5,0 5,5 0,0 Z"
         style="fill:#ff9e00;fill-opacity:1;fill-rule:evenodd;stroke:#ff9e00;stroke-width:1pt;stroke-opacity:1"
         transform="matrix(-0.8,0,0,-0.8,-10,0)" />
    </marker>
    <marker
       inkscape:stockid="Arrow2Mend"
       orient="auto"
       refY="0"
       refX="0"
       id="marker18154-7"
       style="overflow:visible"
       inkscape:isstock="true">
      <path
         inkscape:connector-curvature="0"
         id="path18156-1"
         style="fill:#ff9e00;fill-opacity:1;fill-rule:evenodd;stroke:#ff9e00;stroke-width:0.625;stroke-linejoin:round;stroke-opacity:1"
         d="M 8.7185878,4.0337352 -2.2072895,0.01601326 8.7185884,-4.0017078 c -1.7454984,2.3720609 -1.7354408,5.6174519 -6e-7,8.035443 z"
         transform="scale(-0.6,-0.6)" />
    </marker>
    <marker
       inkscape:stockid="Arrow2Mend"
       orient="auto"
       refY="0"
       refX="0"
       id="marker18809-2"
       style="overflow:visible"
       inkscape:isstock="true">
      <path
         inkscape:connector-curvature="0"
         id="path18811-1"
         style="fill:#ff0000;fill-opacity:1;fill-rule:evenodd;stroke:#ff0000;stroke-width:0.625;stroke-linejoin:round;stroke-opacity:1"
         d="M 8.7185878,4.0337352 -2.2072895,0.01601326 8.7185884,-4.0017078 c -1.7454984,2.3720609 -1.7354408,5.6174519 -6e-7,8.035443 z"
         transform="scale(-0.6,-0.6)" />
    </marker>
    <clipPath
       id="clipEmfPath3-0-1-7-9"
       clipPathUnits="userSpaceOnUse">
      <path
         inkscape:connector-curvature="0"
         id="path10903-0-9-0-1"
         d="m 0.449977,0.899953 692.064023,0 0,438.877047 -692.064023,0 z" />
    </clipPath>
    <marker
       inkscape:stockid="Arrow2Mend"
       orient="auto"
       refY="0"
       refX="0"
       id="Arrow2Mend-9-9-3"
       style="overflow:visible"
       inkscape:isstock="true">
      <path
         inkscape:connector-curvature="0"
         id="path4918-5-9-53"
         style="fill:#ff0000;fill-opacity:1;fill-rule:evenodd;stroke:#ff0000;stroke-width:0.625;stroke-linejoin:round;stroke-opacity:1"
         d="M 8.7185878,4.0337352 -2.2072895,0.01601326 8.7185884,-4.0017078 c -1.7454984,2.3720609 -1.7354408,5.6174519 -6e-7,8.035443 z"
         transform="scale(-0.6,-0.6)" />
    </marker>
    <clipPath
       id="clipEmfPath3-0-1-8"
       clipPathUnits="userSpaceOnUse">
      <path
         inkscape:connector-curvature="0"
         id="path10903-0-9-7"
         d="m 0.449977,0.899953 692.064023,0 0,438.877047 -692.064023,0 z" />
    </clipPath>
    <marker
       inkscape:stockid="Arrow2Mend"
       orient="auto"
       refY="0"
       refX="0"
       id="Arrow2Mend-9-9-1"
       style="overflow:visible"
       inkscape:isstock="true">
      <path
         inkscape:connector-curvature="0"
         id="path4918-5-9-7"
         style="fill:#ff0000;fill-opacity:1;fill-rule:evenodd;stroke:#ff0000;stroke-width:0.625;stroke-linejoin:round;stroke-opacity:1"
         d="M 8.7185878,4.0337352 -2.2072895,0.01601326 8.7185884,-4.0017078 c -1.7454984,2.3720609 -1.7354408,5.6174519 -6e-7,8.035443 z"
         transform="scale(-0.6,-0.6)" />
    </marker>
    <clipPath
       id="clipEmfPath3-0-1-6"
       clipPathUnits="userSpaceOnUse">
      <path
         inkscape:connector-curvature="0"
         id="path10903-0-9-3"
         d="m 0.449977,0.899953 692.064023,0 0,438.877047 -692.064023,0 z" />
    </clipPath>
    <marker
       inkscape:stockid="Arrow2Mend"
       orient="auto"
       refY="0"
       refX="0"
       id="marker18154-2"
       style="overflow:visible"
       inkscape:isstock="true">
      <path
         inkscape:connector-curvature="0"
         id="path18156-5"
         style="fill:#ff9e00;fill-opacity:1;fill-rule:evenodd;stroke:#ff9e00;stroke-width:0.625;stroke-linejoin:round;stroke-opacity:1"
         d="M 8.7185878,4.0337352 -2.2072895,0.01601326 8.7185884,-4.0017078 c -1.7454984,2.3720609 -1.7354408,5.6174519 -6e-7,8.035443 z"
         transform="scale(-0.6,-0.6)" />
    </marker>
    <clipPath
       id="clipEmfPath3-0-1-7-99"
       clipPathUnits="userSpaceOnUse">
      <path
         inkscape:connector-curvature="0"
         id="path10903-0-9-0-13"
         d="m 0.449977,0.899953 692.064023,0 0,438.877047 -692.064023,0 z" />
    </clipPath>
  </defs>
  <sodipodi:namedview
     id="base"
     pagecolor="#ffffff"
     bordercolor="#666666"
     borderopacity="1.0"
     inkscape:pageopacity="0.0"
     inkscape:pageshadow="2"
     inkscape:zoom="1.4"
     inkscape:cx="409.54715"
     inkscape:cy="572.16374"
     inkscape:document-units="px"
     inkscape:current-layer="layer1"
     showgrid="true"
     inkscape:window-width="1920"
     inkscape:window-height="1017"
     inkscape:window-x="-8"
     inkscape:window-y="-8"
     inkscape:window-maximized="1">
    <inkscape:grid
       type="xygrid"
       id="grid22183" />
  </sodipodi:namedview>
  <metadata
     id="metadata21054">
    <rdf:RDF>
      <cc:Work
         rdf:about="">
        <dc:format>image/svg+xml</dc:format>
        <dc:type
           rdf:resource="http://purl.org/dc/dcmitype/StillImage" />
        <dc:title></dc:title>
      </cc:Work>
    </rdf:RDF>
  </metadata>
  <g
     inkscape:label="レイヤー 1"
     inkscape:groupmode="layer"
     id="layer1">
    <path
       sodipodi:nodetypes="cssssccssssccc"
       inkscape:connector-curvature="0"
       d="m 427.27758,216.96012 -18.91067,10.42112 c -18.90524,9.87966 -47.21372,14.09558 -72.16578,-0.1872 -25.95989,-14.85968 -53.80229,-17.13545 -80.57325,-0.56161 -20.98406,12.99119 -54.276,12.99119 -79.22806,-0.11194 -29.86315,-15.68211 -51.6194,-16.548 -81.289326,1.4325 L 79.381325,327.85201 C 109.9896,308.2649 131.74584,309.13079 161.609,324.81289 c 24.95206,13.10314 58.244,13.10314 79.22806,0.11195 26.77096,-16.57382 54.61335,-14.29809 80.57325,0.56159 24.95206,14.28284 53.01405,9.58017 72.16577,0.18722 l 17.97234,-8.81453 8.62453,-54.77612 z"
       style="fill:#78e164;fill-opacity:0.79701496;fill-rule:evenodd;stroke:#000000;stroke-width:1;stroke-linecap:butt;stroke-linejoin:miter;stroke-miterlimit:4;stroke-dasharray:none;stroke-opacity:1"
       id="path4708-9" />
    <path
       style="fill:#ffffff;fill-opacity:1;fill-rule:evenodd;stroke:none"
       d="m 37.359224,459.81607 0,80.396 112.644096,0 0,-80.396 -112.644096,0 z"
       id="path11234-6"
       inkscape:connector-curvature="0" />
    <path
       style="fill:#ff0000;fill-opacity:1;fill-rule:evenodd;stroke:none"
       d="m 109.05552,509.83907 c 0,-1.932 1.6124,-3.525 3.5998,-3.525 2.0061,0 3.59979,1.593 3.59979,3.525 0,1.949 -1.59369,3.524 -3.59979,3.524 -1.9874,0 -3.5998,-1.575 -3.5998,-3.524 z"
       id="path11238-5"
       inkscape:connector-curvature="0" />
    <path
       style="fill:none;stroke:#ff0000;stroke-width:2.54986763px;stroke-linecap:butt;stroke-linejoin:round;stroke-miterlimit:4;stroke-dasharray:none;stroke-opacity:1"
       d="m 109.05552,509.83907 c 0,-1.932 1.6124,-3.525 3.5998,-3.525 2.0061,0 3.59979,1.593 3.59979,3.525 0,1.949 -1.59369,3.524 -3.59979,3.524 -1.9874,0 -3.5998,-1.575 -3.5998,-3.524"
       id="path11240-1"
       inkscape:connector-curvature="0" />
    <g
       id="g4845"
       transform="translate(46.508236,-186.43845)">
      <path
         inkscape:connector-curvature="0"
         id="path11242-7"
         d="m 37.57358,756.72351 0,29.999 18.899,0 0,-29.999 -18.899,0 z"
         style="fill:#0070c0;fill-opacity:1;fill-rule:evenodd;stroke:none" />
      <path
         inkscape:connector-curvature="0"
         id="path11244-0"
         d="m 56.47258,746.22451 -9.4495,20.999 -9.4495,-20.999 z"
         style="fill:#0070c0;fill-opacity:1;fill-rule:evenodd;stroke:none" />
    </g>
    <path
       style="fill:#ffffff;fill-opacity:1;fill-rule:evenodd;stroke:none"
       d="m 223.19217,493.79264 0,80.396 112.644,0 0,-80.396 -112.644,0 z"
       id="path11246-2"
       inkscape:connector-curvature="0" />
    <path
       style="fill:#0070c0;fill-opacity:1;fill-rule:evenodd;stroke:none"
       d="m 270.06517,604.41264 0,30.14801 18.749,0 0,-30.14801 -18.749,0 z"
       id="path11254-4"
       inkscape:connector-curvature="0" />
    <path
       style="fill:#0070c0;fill-opacity:1;fill-rule:evenodd;stroke:none"
       d="m 288.81417,593.91265 -9.375,20.99898 -9.374,-20.99898 z"
       id="path11256-8"
       inkscape:connector-curvature="0" />
    <path
       style="fill:#ff0000;fill-opacity:1;stroke:#ff0000;stroke-width:2.54986763px;stroke-linecap:butt;stroke-linejoin:round;stroke-miterlimit:4;stroke-dasharray:none;stroke-opacity:1"
       d="m 197.86934,277.88537 c 0,-1.931 1.594,-3.525 3.525,-3.525 1.95,0 3.525,1.594 3.525,3.525 0,1.95 -1.575,3.525 -3.525,3.525 -1.931,0 -3.525,-1.575 -3.525,-3.525"
       id="path11252-0-8"
       inkscape:connector-curvature="0" />
    <text
       xml:space="preserve"
       style="font-style:normal;font-weight:normal;font-size:40px;line-height:125%;font-family:sans-serif;letter-spacing:0px;word-spacing:0px;fill:#000000;fill-opacity:1;stroke:none;stroke-width:1px;stroke-linecap:butt;stroke-linejoin:miter;stroke-opacity:1"
       x="44.465034"
       y="669.32532"
       id="text12260-4"
       sodipodi:linespacing="125%"><tspan
         sodipodi:role="line"
         id="tspan12262-0"
         x="44.465034"
         y="669.32532"
         style="font-style:normal;font-variant:normal;font-weight:normal;font-stretch:normal;font-size:27.5px;font-family:'MS Gothic';-inkscape-font-specification:'MS Gothic'">カメラ<tspan
   style="font-style:normal;font-variant:normal;font-weight:normal;font-stretch:normal;font-family:'Times New Roman';-inkscape-font-specification:'Times New Roman, '"
   id="tspan6923">A</tspan></tspan></text>
    <text
       xml:space="preserve"
       style="font-style:normal;font-weight:normal;font-size:40px;line-height:125%;font-family:sans-serif;letter-spacing:0px;word-spacing:0px;fill:#000000;fill-opacity:1;stroke:none;stroke-width:1px;stroke-linecap:butt;stroke-linejoin:miter;stroke-opacity:1"
       x="219.17929"
       y="669.32532"
       id="text12260-4-1"
       sodipodi:linespacing="125%"><tspan
         sodipodi:role="line"
         x="219.17929"
         y="669.32532"
         style="font-style:normal;font-variant:normal;font-weight:normal;font-stretch:normal;font-size:27.5px;font-family:'MS Gothic';-inkscape-font-specification:'MS Gothic'"
         id="tspan12308">カメラ<tspan
   style="font-style:normal;font-variant:normal;font-weight:normal;font-stretch:normal;font-family:'Times New Roman';-inkscape-font-specification:'Times New Roman, '"
   id="tspan6925">B</tspan></tspan></text>
    <rect
       style="opacity:1;fill:none;fill-opacity:1;stroke:#ff0000;stroke-width:1;stroke-linecap:square;stroke-miterlimit:3;stroke-dasharray:none;stroke-dashoffset:0;stroke-opacity:1"
       id="rect12312"
       width="280"
       height="35"
       x="40.893616"
       y="642.88531"
       ry="1.27148" />
    <text
       xml:space="preserve"
       style="font-style:normal;font-weight:normal;font-size:40px;line-height:125%;font-family:sans-serif;letter-spacing:0px;word-spacing:0px;fill:#000000;fill-opacity:1;stroke:none;stroke-width:1px;stroke-linecap:butt;stroke-linejoin:miter;stroke-opacity:1"
       x="30.179329"
       y="701.03955"
       id="text12260-4-7"
       sodipodi:linespacing="125%"><tspan
         sodipodi:role="line"
         x="30.179329"
         y="701.03955"
         style="font-style:normal;font-variant:normal;font-weight:normal;font-stretch:normal;font-size:27.5px;font-family:'MS Gothic';-inkscape-font-specification:'MS Gothic';fill:#ff0000;fill-opacity:1"
         id="tspan12332">ステレオ計測用カメラ対</tspan></text>
    <text
       xml:space="preserve"
       style="font-style:normal;font-weight:normal;font-size:40px;line-height:125%;font-family:sans-serif;letter-spacing:0px;word-spacing:0px;fill:#000000;fill-opacity:1;stroke:none;stroke-width:1px;stroke-linecap:butt;stroke-linejoin:miter;stroke-opacity:1"
       x="44.521187"
       y="250.94324"
       id="text12260"
       sodipodi:linespacing="125%"><tspan
         sodipodi:role="line"
         id="tspan12262"
         x="44.521187"
         y="250.94324"
         style="font-style:normal;font-variant:normal;font-weight:normal;font-stretch:normal;font-size:27.5px;font-family:'MS Gothic';-inkscape-font-specification:'MS Gothic'">オーロラ</tspan></text>
    <path
       style="fill:none;fill-rule:evenodd;stroke:#000000;stroke-width:2;stroke-linecap:butt;stroke-linejoin:miter;stroke-miterlimit:4;stroke-dasharray:none;stroke-opacity:1;marker-end:url(#marker10895)"
       d="M 278.81046,592.35463 239.81028,286.44455"
       id="path4885-5-2"
       inkscape:connector-curvature="0"
       sodipodi:nodetypes="cc" />
    <path
       style="fill:none;fill-rule:evenodd;stroke:#000000;stroke-width:2;stroke-linecap:butt;stroke-linejoin:miter;stroke-miterlimit:4;stroke-dasharray:none;stroke-opacity:1;marker-end:url(#Arrow2Mend-9-9-0)"
       d="M 92.868562,559.77415 198.54366,284.85119"
       id="path4885-5-2-1"
       inkscape:connector-curvature="0"
       sodipodi:nodetypes="cc" />
    <path
       style="fill:none;fill-rule:evenodd;stroke:#ff0000;stroke-width:0.99999994px;stroke-linecap:butt;stroke-linejoin:miter;stroke-opacity:1;marker-end:url(#Arrow1Lend)"
       d="M 212.27762,216.14066 186.91639,377.94933"
       id="path6522"
       inkscape:connector-curvature="0" />
    <path
       style="fill:#ffffff;fill-opacity:0.74509804;stroke:#000000;stroke-width:1.94989872px;stroke-linecap:butt;stroke-linejoin:round;stroke-miterlimit:4;stroke-dasharray:none;stroke-opacity:1"
       clip-path="url(#clipEmfPath3-0-1)"
       d="m 1.9499,227.538 112.6441,0 0,80.396 -112.6441,0 z"
       id="path11236-5-4"
       inkscape:connector-curvature="0"
       transform="translate(47.236814,233.65274)" />
    <path
       style="fill:#ffffff;fill-opacity:0.74509804;stroke:#000000;stroke-width:1.94989872px;stroke-linecap:butt;stroke-linejoin:round;stroke-miterlimit:4;stroke-dasharray:none;stroke-opacity:1"
       clip-path="url(#clipEmfPath3-0-1-7)"
       d="m 1.9499,227.538 112.6441,0 0,80.396 -112.6441,0 z"
       id="path11236-5-4-0"
       inkscape:connector-curvature="0"
       transform="translate(220.34193,263.87916)" />
    <path
       sodipodi:nodetypes="cssssccsssscc"
       inkscape:connector-curvature="0"
       d="m 150.08494,497.18326 -4.49834,2.42905 c -4.49706,2.30283 -11.2309,3.28551 -17.16633,-0.0436 -6.17516,-3.46362 -12.79814,-3.99407 -19.16624,-0.13091 -4.99155,3.0281 -12.910825,3.0281 -18.846254,-0.026 -7.103651,-3.65531 -12.278887,-3.85714 -19.336577,0.33391 l -3.741544,23.28527 c 7.2809,-4.56553 12.456123,-4.3637 19.559774,-0.70838 5.935441,3.05418 13.854711,3.05418 18.846261,0.0262 6.3681,-3.86316 12.99107,-3.33272 19.16624,0.1309 5.93543,3.32916 12.61063,2.23302 17.16632,0.0436 l 4.27514,-2.05456 c 1.24721,-7.76182 2.49438,-15.52365 3.74155,-23.28548 z"
       style="fill:#78e164;fill-opacity:0.79701496;fill-rule:evenodd;stroke:#000000;stroke-width:1;stroke-linecap:butt;stroke-linejoin:miter;stroke-miterlimit:4;stroke-dasharray:none;stroke-opacity:1"
       id="path4708-9-1" />
    <path
       style="fill:#ff0000;fill-opacity:1;stroke:#ff0000;stroke-width:2.54986763px;stroke-linecap:butt;stroke-linejoin:round;stroke-miterlimit:4;stroke-dasharray:none;stroke-opacity:1"
       d="m 107.31234,509.66556 c 0,-1.931 1.594,-3.525 3.525,-3.525 1.95,0 3.525,1.594 3.525,3.525 0,1.95 -1.575,3.525 -3.525,3.525 -1.931,0 -3.525,-1.575 -3.525,-3.525"
       id="path11252-0-8-3"
       inkscape:connector-curvature="0" />
    <path
       style="fill:none;fill-rule:evenodd;stroke:#000000;stroke-width:2;stroke-linecap:butt;stroke-linejoin:miter;stroke-miterlimit:4;stroke-dasharray:none;stroke-opacity:1"
       d="M 99.903246,541.00986 110.38001,514.05647"
       id="path4885-5-2-1-7"
       inkscape:connector-curvature="0"
       sodipodi:nodetypes="cc" />
    <path
       style="fill:none;fill-rule:evenodd;stroke:#000000;stroke-width:2;stroke-linecap:butt;stroke-linejoin:miter;stroke-miterlimit:4;stroke-dasharray:none;stroke-opacity:1"
       d="m 276.41267,573.13588 -2.82345,-22.34591"
       id="path4885-5-2-1-7-8"
       inkscape:connector-curvature="0"
       sodipodi:nodetypes="cc" />
    <text
       xml:space="preserve"
       style="font-style:normal;font-weight:normal;font-size:40px;line-height:125%;font-family:sans-serif;letter-spacing:0px;word-spacing:0px;fill:#000000;fill-opacity:1;stroke:none;stroke-width:1px;stroke-linecap:butt;stroke-linejoin:miter;stroke-opacity:1"
       x="159.04713"
       y="193.66536"
       id="text12260-9"
       sodipodi:linespacing="125%"><tspan
         sodipodi:role="line"
         x="159.04713"
         y="193.66536"
         style="font-style:normal;font-variant:normal;font-weight:normal;font-stretch:normal;font-size:27.5px;font-family:'MS Gothic';-inkscape-font-specification:'MS Gothic'"
         id="tspan22930">誤対応地磁気</tspan></text>
    <path
       style="fill:none;fill-rule:evenodd;stroke:#ff0000;stroke-width:1.5;stroke-linecap:butt;stroke-linejoin:miter;stroke-opacity:1;marker-end:url(#Arrow2Mend-9-9);stroke-miterlimit:4;stroke-dasharray:none"
       d="m 105.55035,483.38344 12.5331,58.02054"
       id="path6522-7"
       inkscape:connector-curvature="0"
       sodipodi:nodetypes="cc" />
    <path
       sodipodi:nodetypes="cssssccsssscc"
       inkscape:connector-curvature="0"
       d="m 310.08494,533.18326 -4.49834,2.42905 c -4.49706,2.30283 -11.2309,3.28551 -17.16633,-0.0436 -6.17516,-3.46362 -12.79814,-3.99407 -19.16624,-0.13091 -4.99155,3.0281 -12.91082,3.0281 -18.84625,-0.026 -7.10365,-3.65531 -12.27889,-3.85714 -19.33658,0.33391 l -3.74155,23.28527 c 7.28091,-4.56553 12.45613,-4.3637 19.55978,-0.70838 5.93544,3.05418 13.85471,3.05418 18.84626,0.0262 6.3681,-3.86316 12.99107,-3.33272 19.16624,0.1309 5.93543,3.32916 12.61063,2.23302 17.16632,0.0436 l 4.27514,-2.05456 c 1.24721,-7.76182 2.49438,-15.52365 3.74155,-23.28548 z"
       style="fill:#78e164;fill-opacity:0.79701496;fill-rule:evenodd;stroke:#000000;stroke-width:0.99999994;stroke-linecap:butt;stroke-linejoin:miter;stroke-miterlimit:4;stroke-dasharray:none;stroke-opacity:1"
       id="path4708-9-1-4" />
    <path
       style="fill:#ff9e00;fill-opacity:1;stroke:#ff9e00;stroke-width:2.54986763px;stroke-linecap:butt;stroke-linejoin:round;stroke-miterlimit:4;stroke-dasharray:none;stroke-opacity:1"
       d="m 235.2205,278.77823 c 0,-1.931 1.594,-3.525 3.525,-3.525 1.95,0 3.525,1.594 3.525,3.525 0,1.95 -1.575,3.525 -3.525,3.525 -1.931,0 -3.525,-1.575 -3.525,-3.525"
       id="path11252-0-8-0"
       inkscape:connector-curvature="0" />
    <path
       style="fill:none;fill-rule:evenodd;stroke:#ff9e00;stroke-width:1.5;stroke-linecap:butt;stroke-linejoin:miter;stroke-opacity:1;marker-end:url(#marker18154);stroke-miterlimit:4;stroke-dasharray:none"
       d="m 283.28005,516.82007 -15.79558,54.68581"
       id="path6522-4-7"
       inkscape:connector-curvature="0"
       sodipodi:nodetypes="cc" />
    <path
       style="fill:#ff9e00;fill-opacity:1;stroke:#ff9e00;stroke-width:2.54986763px;stroke-linecap:butt;stroke-linejoin:round;stroke-miterlimit:4;stroke-dasharray:none;stroke-opacity:1"
       d="m 270.04193,548.81413 c 0,-1.931 1.594,-3.525 3.525,-3.525 1.95,0 3.525,1.594 3.525,3.525 0,1.95 -1.575,3.525 -3.525,3.525 -1.931,0 -3.525,-1.575 -3.525,-3.525"
       id="path11252-0-8-0-7"
       inkscape:connector-curvature="0" />
    <ellipse
       style="opacity:1;fill:none;fill-opacity:1;stroke:#0000ff;stroke-width:0.99999994;stroke-linecap:square;stroke-miterlimit:3;stroke-dasharray:none;stroke-dashoffset:0;stroke-opacity:1"
       id="path13346-1"
       cx="269.83945"
       cy="234.60719"
       rx="29.285711"
       ry="52.857143"
       transform="matrix(0.98232385,0.18718938,-0.18718938,0.98232385,0,0)" />
    <text
       xml:space="preserve"
       style="font-style:normal;font-weight:normal;font-size:40px;line-height:125%;font-family:sans-serif;letter-spacing:0px;word-spacing:0px;fill:#000000;fill-opacity:1;stroke:none;stroke-width:1px;stroke-linecap:butt;stroke-linejoin:miter;stroke-opacity:1"
       x="42.24247"
       y="356.00922"
       id="text12260-4-7-40"
       sodipodi:linespacing="125%"><tspan
         sodipodi:role="line"
         x="42.24247"
         y="356.00922"
         style="font-style:normal;font-variant:normal;font-weight:normal;font-stretch:normal;font-size:27.5px;font-family:'MS Gothic';-inkscape-font-specification:'MS Gothic';fill:#ff0000;fill-opacity:1"
         id="tspan12332-8">類似領域</tspan></text>
    <path
       style="fill:none;fill-rule:evenodd;stroke:#ff0000;stroke-width:0.99999994px;stroke-linecap:butt;stroke-linejoin:miter;stroke-opacity:1"
       d="m 191.1106,282.61807 -75.79268,41.94934"
       id="path13366-2"
       inkscape:connector-curvature="0" />
    <path
       style="fill:none;fill-rule:evenodd;stroke:#ff9e00;stroke-width:1px;stroke-linecap:butt;stroke-linejoin:miter;stroke-opacity:1;marker-end:url(#Arrow1Lend-1-4)"
       d="M 248.02218,212.92533 223.31402,370.86028"
       id="path6522-4"
       inkscape:connector-curvature="0" />
    <g
       id="g24322" />
  </g>
</svg>
