<?xml version="1.0" encoding="UTF-8" standalone="no"?>
<!-- Created with Inkscape (http://www.inkscape.org/) -->

<svg
   xmlns:dc="http://purl.org/dc/elements/1.1/"
   xmlns:cc="http://creativecommons.org/ns#"
   xmlns:rdf="http://www.w3.org/1999/02/22-rdf-syntax-ns#"
   xmlns:svg="http://www.w3.org/2000/svg"
   xmlns="http://www.w3.org/2000/svg"
   xmlns:sodipodi="http://sodipodi.sourceforge.net/DTD/sodipodi-0.dtd"
   xmlns:inkscape="http://www.inkscape.org/namespaces/inkscape"
   width="210mm"
   height="297mm"
   viewBox="0 0 744.09448819 1052.3622047"
   id="svg23612"
   version="1.1"
   inkscape:version="0.91 r13725"
   sodipodi:docname="Cam2missImages.svg">
  <defs
     id="defs23614">
    <marker
       inkscape:stockid="Arrow1Mend"
       orient="auto"
       refY="0.0"
       refX="0.0"
       id="marker24495"
       style="overflow:visible;"
       inkscape:isstock="true">
      <path
         id="path24497"
         d="M 0.0,0.0 L 5.0,-5.0 L -12.5,0.0 L 5.0,5.0 L 0.0,0.0 z "
         style="fill-rule:evenodd;stroke:#ff9e00;stroke-width:1pt;stroke-opacity:1;fill:#ff9e00;fill-opacity:1"
         transform="scale(0.4) rotate(180) translate(10,0)" />
    </marker>
    <marker
       inkscape:stockid="Arrow1Mend"
       orient="auto"
       refY="0.0"
       refX="0.0"
       id="Arrow1Mend"
       style="overflow:visible;"
       inkscape:isstock="true">
      <path
         id="path4900"
         d="M 0.0,0.0 L 5.0,-5.0 L -12.5,0.0 L 5.0,5.0 L 0.0,0.0 z "
         style="fill-rule:evenodd;stroke:#ff0000;stroke-width:1pt;stroke-opacity:1;fill:#ff0000;fill-opacity:1"
         transform="scale(0.4) rotate(180) translate(10,0)" />
    </marker>
    <clipPath
       id="clipEmfPath3-0-1-7-99"
       clipPathUnits="userSpaceOnUse">
      <path
         inkscape:connector-curvature="0"
         id="path10903-0-9-0-13"
         d="m 0.449977,0.899953 692.064023,0 0,438.877047 -692.064023,0 z" />
    </clipPath>
    <clipPath
       id="clipEmfPath3-0-1-6"
       clipPathUnits="userSpaceOnUse">
      <path
         inkscape:connector-curvature="0"
         id="path10903-0-9-3"
         d="m 0.449977,0.899953 692.064023,0 0,438.877047 -692.064023,0 z" />
    </clipPath>
  </defs>
  <sodipodi:namedview
     id="base"
     pagecolor="#ffffff"
     bordercolor="#666666"
     borderopacity="1.0"
     inkscape:pageopacity="0.0"
     inkscape:pageshadow="2"
     inkscape:zoom="0.98994949"
     inkscape:cx="504.49932"
     inkscape:cy="417.53553"
     inkscape:document-units="px"
     inkscape:current-layer="layer1"
     showgrid="true"
     inkscape:window-width="1920"
     inkscape:window-height="1017"
     inkscape:window-x="-8"
     inkscape:window-y="-8"
     inkscape:window-maximized="1">
    <inkscape:grid
       type="xygrid"
       id="grid24389" />
  </sodipodi:namedview>
  <metadata
     id="metadata23617">
    <rdf:RDF>
      <cc:Work
         rdf:about="">
        <dc:format>image/svg+xml</dc:format>
        <dc:type
           rdf:resource="http://purl.org/dc/dcmitype/StillImage" />
        <dc:title></dc:title>
      </cc:Work>
    </rdf:RDF>
  </metadata>
  <g
     inkscape:label="レイヤー 1"
     inkscape:groupmode="layer"
     id="layer1">
    <g
       id="g24398"
       transform="matrix(1.3652658,0,0,1.3652658,-79.926479,-146.45411)">
      <path
         inkscape:connector-curvature="0"
         id="path11234-6-2"
         d="m 75.009885,461.60449 0,80.396 112.644095,0 0,-80.396 -112.644095,0 z"
         style="fill:#ffffff;fill-opacity:1;fill-rule:evenodd;stroke:none" />
      <path
         inkscape:connector-curvature="0"
         id="path11238-5-6"
         d="m 146.70618,511.62749 c 0,-1.932 1.6124,-3.525 3.5998,-3.525 2.0061,0 3.59979,1.593 3.59979,3.525 0,1.949 -1.59369,3.524 -3.59979,3.524 -1.9874,0 -3.5998,-1.575 -3.5998,-3.524 z"
         style="fill:#ff0000;fill-opacity:1;fill-rule:evenodd;stroke:none" />
      <path
         inkscape:connector-curvature="0"
         id="path11240-1-11"
         d="m 146.70618,511.62749 c 0,-1.932 1.6124,-3.525 3.5998,-3.525 2.0061,0 3.59979,1.593 3.59979,3.525 0,1.949 -1.59369,3.524 -3.59979,3.524 -1.9874,0 -3.5998,-1.575 -3.5998,-3.524"
         style="fill:none;stroke:#ff0000;stroke-width:1.86767125px;stroke-linecap:butt;stroke-linejoin:round;stroke-miterlimit:4;stroke-dasharray:none;stroke-opacity:1" />
      <path
         transform="translate(84.887475,235.44116)"
         inkscape:connector-curvature="0"
         id="path11236-5-4-06"
         d="m 1.9499,227.538 112.6441,0 0,80.396 -112.6441,0 z"
         clip-path="url(#clipEmfPath3-0-1-6)"
         style="fill:#ffffff;fill-opacity:0.74509804;stroke:#000000;stroke-width:1.42821908px;stroke-linecap:butt;stroke-linejoin:round;stroke-miterlimit:4;stroke-dasharray:none;stroke-opacity:1" />
      <path
         id="path4708-9-1-2"
         style="fill:#78e164;fill-opacity:0.79701496;fill-rule:evenodd;stroke:#000000;stroke-width:0.73245806;stroke-linecap:butt;stroke-linejoin:miter;stroke-miterlimit:4;stroke-dasharray:none;stroke-opacity:1"
         d="m 187.7356,498.97168 -4.49834,2.42905 c -4.49706,2.30283 -11.2309,3.28551 -17.16633,-0.0436 -6.17516,-3.46362 -12.79814,-3.99407 -19.16624,-0.13091 -4.99155,3.0281 -12.91083,3.0281 -18.84625,-0.026 -7.10366,-3.65531 -12.27889,-3.85714 -19.33658,0.33391 l -3.74155,23.28527 c 7.2809,-4.56553 12.45613,-4.3637 19.55978,-0.70838 5.93544,3.05418 13.85471,3.05418 18.84626,0.0262 6.3681,-3.86316 12.99107,-3.33272 19.16624,0.1309 5.93543,3.32916 12.61063,2.23302 17.16632,0.0436 l 4.27514,-2.05456 c 1.24721,-7.76182 2.49438,-15.52365 3.74155,-23.28548 z"
         inkscape:connector-curvature="0"
         sodipodi:nodetypes="cssssccsssscc" />
      <path
         inkscape:connector-curvature="0"
         id="path11252-0-8-3-26"
         d="m 144.963,511.45398 c 0,-1.931 1.594,-3.525 3.525,-3.525 1.95,0 3.525,1.594 3.525,3.525 0,1.95 -1.575,3.525 -3.525,3.525 -1.931,0 -3.525,-1.575 -3.525,-3.525"
         style="fill:#ff0000;fill-opacity:1;stroke:#ff0000;stroke-width:1.86767125px;stroke-linecap:butt;stroke-linejoin:round;stroke-miterlimit:4;stroke-dasharray:none;stroke-opacity:1" />
      <path
         sodipodi:nodetypes="cc"
         inkscape:connector-curvature="0"
         id="path6522-7-1"
         d="m 143.20101,485.17186 12.5331,58.02054"
         style="fill:none;fill-rule:evenodd;stroke:#ff0000;stroke-width:1.09868717;stroke-linecap:butt;stroke-linejoin:miter;stroke-miterlimit:4;stroke-dasharray:none;stroke-opacity:1;marker-end:url(#Arrow1Mend)" />
    </g>
    <g
       id="g24391"
       transform="matrix(1.3652658,0,0,1.3652658,-77.976099,-146.91999)">
      <path
         style="fill:#ffffff;fill-opacity:1;fill-rule:evenodd;stroke:none"
         d="m 220.84283,465.58106 0,80.396 112.644,0 0,-80.396 -112.644,0 z"
         id="path11246-2-8"
         inkscape:connector-curvature="0" />
      <path
         style="fill:#ffffff;fill-opacity:0.74509804;stroke:#000000;stroke-width:1.42821908px;stroke-linecap:butt;stroke-linejoin:round;stroke-miterlimit:4;stroke-dasharray:none;stroke-opacity:1"
         clip-path="url(#clipEmfPath3-0-1-7-99)"
         d="m 1.9499,227.538 112.6441,0 0,80.396 -112.6441,0 z"
         id="path11236-5-4-0-1"
         inkscape:connector-curvature="0"
         transform="translate(217.99259,235.66758)" />
      <path
         sodipodi:nodetypes="cssssccsssscc"
         inkscape:connector-curvature="0"
         d="m 307.7356,498.97168 -4.49834,2.42905 c -4.49706,2.30283 -11.2309,3.28551 -17.16633,-0.0436 -6.17516,-3.46362 -12.79814,-3.99407 -19.16624,-0.13091 -4.99155,3.0281 -12.91082,3.0281 -18.84625,-0.026 -7.10365,-3.65531 -12.27889,-3.85714 -19.33658,0.33391 l -3.74155,23.28527 c 7.28091,-4.56553 12.45613,-4.3637 19.55978,-0.70838 5.93544,3.05418 13.85471,3.05418 18.84626,0.0262 6.3681,-3.86316 12.99107,-3.33272 19.16624,0.1309 5.93543,3.32916 12.61063,2.23302 17.16632,0.0436 l 4.27514,-2.05456 c 1.24721,-7.76182 2.49438,-15.52365 3.74155,-23.28548 z"
         style="fill:#78e164;fill-opacity:0.79701496;fill-rule:evenodd;stroke:#000000;stroke-width:0.73245806;stroke-linecap:butt;stroke-linejoin:miter;stroke-miterlimit:4;stroke-dasharray:none;stroke-opacity:1"
         id="path4708-9-1-4-8" />
      <path
         style="fill:none;fill-rule:evenodd;stroke:#ff9e00;stroke-width:1.09868717;stroke-linecap:butt;stroke-linejoin:miter;stroke-miterlimit:4;stroke-dasharray:none;stroke-opacity:1;marker-end:url(#marker24495)"
         d="M 280.93071,488.60849 265.13513,543.2943"
         id="path6522-4-7-8"
         inkscape:connector-curvature="0"
         sodipodi:nodetypes="cc" />
      <path
         style="fill:#ff9e00;fill-opacity:1;stroke:#ff9e00;stroke-width:1.86767125px;stroke-linecap:butt;stroke-linejoin:round;stroke-miterlimit:4;stroke-dasharray:none;stroke-opacity:1"
         d="m 269.69259,512.60255 c 0,-1.931 1.594,-3.525 3.525,-3.525 1.95,0 3.525,1.594 3.525,3.525 0,1.95 -1.575,3.525 -3.525,3.525 -1.931,0 -3.525,-1.575 -3.525,-3.525"
         id="path11252-0-8-0-7-4"
         inkscape:connector-curvature="0" />
    </g>
    <text
       xml:space="preserve"
       style="font-style:normal;font-weight:normal;font-size:40px;line-height:125%;font-family:sans-serif;letter-spacing:0px;word-spacing:0px;fill:#000000;fill-opacity:1;stroke:none;stroke-width:1px;stroke-linecap:butt;stroke-linejoin:miter;stroke-opacity:1"
       x="57.446522"
       y="474.77347"
       id="text12260-4"
       sodipodi:linespacing="125%"><tspan
         sodipodi:role="line"
         id="tspan12262-0"
         x="57.446522"
         y="474.77347"
         style="font-style:normal;font-variant:normal;font-weight:normal;font-stretch:normal;font-size:20px;font-family:'MS Gothic';-inkscape-font-specification:'MS Gothic'">カメラ<tspan
   style="font-style:normal;font-variant:normal;font-weight:normal;font-stretch:normal;font-size:20px;font-family:'Times New Roman';-inkscape-font-specification:'Times New Roman, '"
   id="tspan6923">A</tspan>画像</tspan></text>
    <text
       xml:space="preserve"
       style="font-style:normal;font-weight:normal;font-size:40px;line-height:125%;font-family:sans-serif;letter-spacing:0px;word-spacing:0px;fill:#000000;fill-opacity:1;stroke:none;stroke-width:1px;stroke-linecap:butt;stroke-linejoin:miter;stroke-opacity:1"
       x="247.04552"
       y="475.17957"
       id="text12260-4-7"
       sodipodi:linespacing="125%"><tspan
         sodipodi:role="line"
         id="tspan12262-0-3"
         x="247.04552"
         y="475.17957"
         style="font-style:normal;font-variant:normal;font-weight:normal;font-stretch:normal;font-size:20px;font-family:'MS Gothic';-inkscape-font-specification:'MS Gothic'">カメラ<tspan
   style="font-style:normal;font-variant:normal;font-weight:normal;font-stretch:normal;font-size:20px;font-family:'Times New Roman';-inkscape-font-specification:'Times New Roman, '"
   id="tspan6923-5">B</tspan>画像</tspan></text>
    <text
       xml:space="preserve"
       style="font-style:normal;font-weight:normal;font-size:40px;line-height:125%;font-family:sans-serif;letter-spacing:0px;word-spacing:0px;fill:#000000;fill-opacity:1;stroke:none;stroke-width:1px;stroke-linecap:butt;stroke-linejoin:miter;stroke-opacity:1"
       x="207.48224"
       y="639.05914"
       id="text12260-4-8"
       sodipodi:linespacing="125%"><tspan
         sodipodi:role="line"
         x="207.48224"
         y="639.05914"
         style="font-style:normal;font-variant:normal;font-weight:normal;font-stretch:normal;font-size:20px;font-family:'MS Gothic';-inkscape-font-specification:'MS Gothic';text-align:center;text-anchor:middle"
         id="tspan24550">類似度：高</tspan><tspan
         sodipodi:role="line"
         x="207.48224"
         y="664.05914"
         style="font-style:normal;font-variant:normal;font-weight:normal;font-stretch:normal;font-size:20px;font-family:'MS Gothic';-inkscape-font-specification:'MS Gothic';text-align:center;text-anchor:middle"
         id="tspan24544">誤対応の判別不可</tspan></text>
    <path
       style="fill:none;fill-rule:evenodd;stroke:#000000;stroke-width:1px;stroke-linecap:butt;stroke-linejoin:miter;stroke-opacity:1"
       d="m 130,579.33174 60,40"
       id="path24546"
       inkscape:connector-curvature="0" />
    <path
       style="fill:none;fill-rule:evenodd;stroke:#000000;stroke-width:1px;stroke-linecap:butt;stroke-linejoin:miter;stroke-opacity:1"
       d="m 290,579.33174 -70,40"
       id="path24548"
       inkscape:connector-curvature="0" />
  </g>
</svg>
